<svg xmlns="http://www.w3.org/2000/svg" width="4542.364" height="1294.668" viewBox="0 0 4542.364 1294.668"><g fill-rule="evenodd" clip-rule="evenodd" fill="#fff"><path d="M2665.361 999.156c15.034 6.21 29.296 11.731 43.25 17.944 27.258 12.137 56.173 16.023 85.521 17.531 18.276.938 36.616 1.506 54.793-1.881 16.223-3.022 31.356-8.654 44.98-18.122 28.927-20.104 39.051-48.315 35.993-82.443-2.386-26.642-15.717-46.788-36.182-63.002-17.924-14.201-38.157-24.13-59.22-32.595-21.895-8.799-43.906-17.329-64.953-28.086-25.629-13.1-49.353-28.852-70.121-48.988-68.52-66.438-56.304-167.683-1.626-223.817 28.382-29.138 63.368-46.598 102.429-54.604 66.7-13.672 132.399-8.782 196.078 16.551 11.483 4.569 12.428 6.142 8.859 17.871-6.096 20.031-12.515 39.967-18.974 59.887-2.95 9.097-4.995 9.964-13.869 5.598-23.214-11.418-47.57-19.107-73.337-21.36-26.91-2.353-53.917-3.181-80.504 3.139-38.145 9.067-61.191 35.55-64.58 74.096-1.454 16.525 3.016 31.611 12.315 45.303 9.943 14.636 23.354 25.432 38.298 34.495 15.686 9.513 32.716 16.282 49.323 23.908 20.538 9.432 41.239 18.517 61.638 28.237 26.335 12.547 50.248 28.671 70.794 49.585 28.347 28.852 42.608 63.578 44.805 103.834 1.413 25.897-.511 51.194-9.274 75.725-13.934 39.004-39.973 67.827-75.121 88.933-33.889 20.349-71.032 29.699-110.123 31.557-22.603 1.073-45.266 2.194-67.913.254-40.457-3.464-79.552-11.89-115.552-31.608-10.751-5.888-10.95-6.284-7.731-18.039 5.618-20.52 11.341-41.01 17.071-61.499.71-2.537 1.729-4.986 2.933-8.404zM3121.48 869.751c0-40.647.042-81.296-.022-121.943-.021-13.717-.144-13.732-13.852-13.777-14.328-.047-28.655.038-42.98-.124-8.925-.101-9.87-1.097-9.836-9.718.078-19.656.229-39.312.423-58.969.069-7.037.163-7.17 7.195-7.221 13.661-.098 27.321-.025 40.981-.032 2.666-.002 5.342.111 7.993-.092 8.544-.655 9.808-1.716 9.88-10.273.155-18.322-.021-36.648-.051-54.972-.006-3.331-.109-6.672.105-9.991.33-5.098 2.584-8.601 7.899-10.181 26.437-7.855 52.762-16.088 79.244-23.781 9.803-2.847 12.05-.9 12.078 9.269.076 26.987-.064 53.975-.119 80.961-.006 2.999-.12 6.003.017 8.994.356 7.779 1.487 8.984 9.44 9.765 2.974.292 5.989.198 8.986.203 27.652.044 55.308.045 82.96.119 8.616.022 8.874.106 8.936 8.913.136 19.322.061 38.648-.087 57.971-.063 8.325-.74 9.002-9.271 9.037-28.652.119-57.307.08-85.96.122-14.811.021-14.832.041-14.837 14.787-.024 67.302-.018 134.604-.065 201.905-.011 14.009.339 27.976 4.085 41.589 1.234 4.479 2.65 8.954 4.496 13.21 8.694 20.04 24.142 30.281 45.912 31.072 11.689.426 23.237-1.562 34.871-2.121.664-.032 1.326-.131 1.99-.178 12.256-.861 12.26-.86 12.621 11.262.548 18.312 1.197 36.623 1.582 54.938.162 7.731-1.1 9.728-8.419 11.274-31.094 6.569-62.575 10.507-94.216 6.128-50.729-7.021-81.887-36.503-94.73-85.891-5.066-19.482-6.973-39.282-7.029-59.307-.098-34.315-.027-68.632-.027-102.948h-.193zM3956.759 742.199c6.25-4.92 8.67-11.115 11.557-17.02 12.619-25.809 30.764-46.527 55.832-60.896 23.421-13.425 48.813-16.701 75.223-14.256 6.561.607 8.451 2.838 8.703 9.809.275 7.654.072 15.325.068 22.988-.006 17.326.066 34.651-.059 51.977-.07 9.609-1.566 11.036-10.976 11.131-4.995.05-10.005.03-14.987-.298-58.008-3.824-88.713 28.339-104.008 70.919-6.136 17.081-9.138 34.821-9.214 52.833-.317 74.632-.216 149.266-.222 223.898-.004 20.929.082 17.284-17.992 17.438-22.654.191-45.307.349-67.961.523-1.666.013-3.336.118-4.997.049-8.087-.334-9.229-1.341-9.792-9.19-.262-3.648-.189-7.324-.193-10.987-.121-111.616-.138-223.232-.406-334.848-.07-28.648-.932-57.295-1.424-85.943-.035-1.997-.027-3.995-.051-5.993-.055-4.615 2.238-6.41 6.812-6.39 24.322.108 48.645.121 72.967.018 5.477-.023 7.929 2.752 8.313 7.761.279 3.647.156 7.324.273 10.986.637 19.976 1.283 39.95 1.961 59.925.066 1.859.376 3.712.573 5.566zM4120.216 136.496c8.633-11.99 18.543-21.375 31.496-26.604 40.48-16.341 90.076-6.727 108.67 44.753 5.382 14.899 7.429 30.443 7.562 46.096.363 42.654.186 85.312.144 127.968-.011 10.472-1.013 11.342-11.445 11.458-8.662.097-17.326.178-25.99.258-14.807.138-16.029-1.277-16.029-15.658-.002-41.651 1.254-83.309-.451-124.951-.285-6.972-.768-13.987-1.898-20.86-2.539-15.424-10.975-26.017-26.289-30.77-12.513-3.881-24.891-3.986-37.233.469-11.878 4.289-20.498 12.243-25.667 23.727-4.285 9.517-6.297 19.595-6.307 30.045-.039 38.99-.062 77.981-.088 116.973-.012 20.517-.006 20.52-20.052 20.667-6.665.049-13.331.179-19.993.093-11.048-.141-12.083-1.194-12.278-11.881-.061-3.332-.051-6.665-.051-9.998-.002-99.977-.01-199.955.004-299.931.002-18.326.043-18.286 18.368-18.114 8.33.078 16.662-.129 24.99-.043 7.889.083 9.17 1.372 9.713 9.26.137 1.99.039 3.998.027 5.997-.221 35.99-.461 71.978-.646 107.968-.024 4.201-.774 8.632 3.443 13.078zM3500.025 139.046c6.507-2.329 9.544-5.898 12.655-9.294 15.396-16.808 34.159-26.169 57.238-25.983 7.652.062 15.32.058 22.949.562 9.146.604 17.681 3.716 25.081 8.983 22.561 16.055 36.931 37.359 38.801 65.522 2.984 44.901 1.271 89.897 1.841 134.848.067 5.329.131 10.664-.035 15.989-.261 8.354-1.872 10.332-9.783 10.588-11.315.367-22.65.394-33.971.235-5.846-.083-7.781-2.097-8.371-7.705-.277-2.637-.109-5.324-.109-7.989-.017-40.975.014-81.95-.064-122.925-.023-11.769-2.135-23.137-7.454-33.776-6.259-12.518-16.111-19.9-30.128-21.846-31.902-4.43-54.674 12.716-59.996 45.513-1.172 7.219-1.912 14.478-1.9 21.847.057 36.31-.086 72.621-.158 108.931-.006 2.666.08 5.334-.031 7.995-.338 8.065-1.485 9.433-9.293 9.573-10.656.193-21.322.199-31.977-.035-8.014-.177-9.013-1.295-9.039-9.609-.077-25.318.062-50.636-.025-75.954-.157-44.961 1.008-89.943-1.995-134.863-.067-.996-.143-1.994-.15-2.992-.068-8.779.938-10.062 9.439-10.256 8.99-.206 17.991-.157 26.981.054 7.219.17 8.931 1.545 9.387 8.705.48 7.549.107 15.152.107 23.882zM1354.071 284.964c3.83-8.354 5.965-17.344 8.635-26.111 14.226-46.726 28.368-93.477 44.29-139.663.866-2.511 1.63-5.063 2.629-7.519 1.365-3.355 3.773-5.418 7.593-5.417 13.318.005 26.64-.161 39.954.093 5.768.109 6.969 1.997 5.642 7.661-.678 2.892-1.924 5.651-2.933 8.463-17.624 49.116-38.442 97.006-56.01 146.147-7.159 20.022-15.098 39.768-22.124 59.833-2.867 8.188-8.103 11.821-16.28 11.942-9.652.144-19.309.001-28.961.143-6.554.096-10.4-3.211-12.939-8.981-5.494-12.491-10.013-25.348-14.492-38.21-20.004-57.44-41.916-114.173-63.28-171.11-5.774-15.388-5.144-16.193 11.254-15.879 8.317.16 16.648.286 24.957-.022 12.806-.474 14.961.539 18.828 12.778 13.315 42.143 28.13 83.81 40.203 126.348 3.265 11.505 6.486 23.024 9.708 34.542.526 1.876.47 4.068 3.326 4.962zM3883.712 219.509c0-18.976.002-37.951 0-56.927 0-1.998.06-3.999-.029-5.993-.42-9.384-.846-9.798-10.635-9.935-4.994-.069-9.996.176-14.98-.044-7.59-.336-9.578-2.263-9.734-9.522-.152-6.988-.184-13.991.125-20.97.33-7.442 2.428-9.414 9.711-9.63 5.32-.158 10.656.146 15.977-.029 7.139-.236 9.021-1.767 9.398-8.76.41-7.633.126-15.305.117-22.959-.012-9.832 1.049-11.531 10.647-13.637 9.786-2.146 18.97-6.042 28.469-9.009 9.415-2.94 11.595-1.616 11.798 7.966.242 11.315.037 22.638.119 33.958.082 11.352.994 12.311 12.73 12.391 10.984.075 21.97-.154 32.955-.224 9.891-.063 11.43 1.382 11.678 11.521.162 6.655.213 13.322.002 19.973-.227 7.138-1.881 8.891-8.943 8.938-10.984.072-21.971-.268-32.955-.399-2.662-.031-5.34-.105-7.984.143-6.357.595-7.436 1.434-7.445 8.057-.064 37.619-.131 75.242.264 112.859.098 9.35 2.436 18.386 9.229 25.731 5.547 5.997 12.048 9.285 20.238 8.949 4.985-.204 9.971-.486 14.943-.882 4.742-.378 8.007 1.493 8.534 6.275.872 7.929 1.544 15.903 1.745 23.873.123 4.906-3.155 8.021-7.74 9.221-20.344 5.325-40.663 6.578-60.828-.925-11.362-4.227-20.095-11.576-26.086-22.115-6.689-11.771-10.629-24.402-10.762-37.978-.195-19.97-.051-39.943-.051-59.916l-.507-.001zM2635.063 169.232c0-52.977.01-105.955-.009-158.931-.003-8.803.944-10.071 9.4-10.191 10.993-.157 21.993-.152 32.985.061 8.855.171 10.24 1.72 10.7 10.646.104 1.994.035 3.998.035 5.997.001 102.294.006 204.589-.002 306.883-.001 16.228-.024 16.24-15.736 16.312-9.663.044-19.327.124-28.988.038-6.831-.061-7.97-1.081-8.595-7.884-.334-3.637-.153-7.324-.153-10.988-.007-50.647-.005-101.294-.005-151.941l.368-.002zM1986.336 170.654c0 51.993.001 103.984-.004 155.976 0 2.332.072 4.673-.104 6.994-.296 3.907-2.543 6.226-6.429 6.258-13.328.113-26.659.073-39.987.008-4.024-.02-6.052-2.417-6.354-6.258-.208-2.652-.183-5.327-.183-7.99-.008-103.318-.007-206.637-.006-309.956 0-.666-.004-1.333.004-2 .143-12.701.984-13.563 13.695-13.616 9.665-.04 19.332-.111 28.996.02 8.986.122 10.1 1.36 10.407 10.588.056 1.665.015 3.333.015 4.999v154.977h-.05zM1788.461 221.216c0-33.955-.001-67.911.001-101.865 0-2.331.033-4.661.02-6.991-.02-3.546 1.498-5.816 5.247-5.816 13.312.001 26.624.03 39.934.191 4.506.055 6.431 3.043 6.708 7.161.223 3.315.174 6.653.174 9.982-.006 67.911-.016 135.821-.042 203.73-.004 10.821-1.8 12.714-12.72 12.9-8.985.153-17.978.176-26.961-.031-10.121-.233-12.413-2.672-12.413-12.403v-106.858h.052zM1782.157 36.918c.692-18.556 14.324-29.758 35.386-29.078 15.25.492 28.86 15.127 28.222 30.344-.729 17.343-16.249 31.219-34.155 30.535-15.808-.603-30.044-15.973-29.453-31.801zM648.612 1012.56c-.013-300.573.007-601.147.007-901.72 0-5.996.37-12.05-.303-17.979-5.673-49.996-47.839-89.041-98.366-90.7-20.301-.667-40.641-.204-60.962-.2-104.634.02-209.268.059-313.902.092-24.659.007-49.324-.337-73.975.108-41.768.754-80.866 28.46-94.811 66.486-4.664 12.713-5.743 25.842-5.736 39.27.089 162.28.058 324.562.058 486.842h-.621c0 160.95-.004 321.899.014 482.85.001 8.663.155 17.372 1.794 25.881 9.714 50.396 51.195 84.879 102.534 85.008 77.309.194 154.619.175 231.927.178 68.646.002 137.292.103 205.935-.257 21.237-.112 41.964-4.012 59.592-16.836 30.104-21.897 46.871-51.259 47.102-89.047.142-23.324-.286-46.651-.287-69.976zm-386.178-897.31c.684-4.085 3.107-6.564 6.647-8.012 4.327-1.769 8.849-2.6 13.601-2.583 27.915.1 55.831.118 83.746.036 5.49-.016 10.452 1.447 15.252 3.895 4.106 2.094 7.291 4.763 6.394 9.981-.951 5.542-5.174 9.743-10.771 10.025-6.297.317-12.624.034-18.938.029-11.299-.008-22.599-.002-33.898-.002v.064c-16.948 0-33.899.142-50.845-.057-9.198-.105-12.65-4.627-11.188-13.376zm61.768 1027.035c-37.935 1.42-62.349-33.494-61.905-61.036.582-36.105 26.918-63.26 62.03-62.979 36.161.291 62.909 26.889 62.915 62.092.005 35.529-29.588 63.566-63.04 61.923zm257.222-150.329c-168.931-.003-337.863.029-506.794.068-4.997.001-10.001.396-14.988.229-5.977-.201-7.695-1.891-8.132-7.736-.272-3.646-.11-7.327-.11-10.992-.004-126.615-.003-253.23-.001-379.846.003-126.282-.007-252.565.013-378.847.003-18.731.069-18.705 18.689-18.745 171.263-.367 342.527 1.104 513.79.06 14.048-.086 14.579.436 14.584 14.595.04 127.615.052 255.229.071 382.845.02 126.948.041 253.896.057 380.844.001 17.633-.009 17.526-17.179 17.525zM1963.025 852.894c-2.378-41.587-12.935-80.907-35.015-116.347-43.083-69.151-109.04-97.563-187.698-84.379-44.579 7.471-81.135 28.723-108.173 65.478-2.641 3.592-5.288 7.369-8.976 8.937-2.367-.609-2.072-1.806-2.144-2.702-1.387-17.582-2.78-35.164-4.077-52.752-.885-12.026-1.942-13.198-13.624-13.229-15.662-.042-31.323.052-46.984.066-6.331.007-12.667-.22-18.992-.018-7.538.241-8.773 1.483-8.812 8.817-.027 4.986.488 9.975.665 14.965 1.843 52.29 2.046 104.602 2.04 156.916-.019 147.616-.01 295.233.003 442.85.002 12.619.475 13.1 12.792 13.123 25.324.045 50.648.066 75.974.023 11.761-.021 12.4-.737 12.488-12.447.014-1.666.007-3.332.006-4.998-.045-66.645-.094-133.288-.132-199.933-.001-2.997-.084-6.01.188-8.987.17-1.849-.248-4.32 2.007-5.182 2.484-.949 3.349 1.4 4.493 2.929.798 1.065 1.521 2.185 2.3 3.264 12.602 17.437 28.899 30.315 48.627 38.717 20.462 8.713 42.007 12.37 64.165 13.09 55.766 1.812 104.241-15.431 143.638-55.532 41.857-42.607 60.78-95.161 65.308-153.76 1.52-19.653 1.056-39.273-.067-58.909zm-116.379 115.183c-4.098 10.219-9.024 20.033-15.455 29.003-14.913 20.8-34.126 34.808-59.771 40.099-18.767 3.873-37.111 6.652-56.227 2.103-25.521-6.074-45.669-19.569-60.433-41.054-14.688-21.372-23.146-44.772-22.4-71.115.349-12.315.06-24.647.06-36.972-.207-20.634-.855-41.27 2.205-61.814 7.952-53.396 46.763-93.222 100.208-98.814 44.231-4.628 77.819 15.552 102.033 51.894 9.908 14.869 15.378 31.777 18.651 49.166 8.756 46.525 9.121 92.648-8.871 137.504zM2458.801 826.405c-2.125-13.172-6.597-25.751-9.968-38.609-10.308-39.311-32.286-71.244-62.309-97.964-23.79-21.175-52.299-32.874-83.117-38.71-14.344-2.717-29.196-1.803-43.869-1.146-51.162 2.292-92.909 23.207-125.265 62.885-3.157 3.872-6.266 7.784-9.338 11.722-1.065 1.364-2.231 2.743-4.047 2.249-1.994-.544-1.725-2.505-1.85-4.132-1.344-17.585-2.742-35.165-4.041-52.752-.78-10.546-2.303-12.127-12.658-12.131-21.323-.008-42.648.041-63.973.068-1.333.002-2.672-.069-3.997.044-6.274.54-7.558 1.806-7.882 7.847-.09 1.658.053 3.33.109 4.994.605 17.645 1.701 35.288 1.74 52.935.186 83.632.083 167.265.083 250.897h.259c0 100.295-.001 200.589.006 300.883.001 3.662-.195 7.356.199 10.982.819 7.536 1.547 8.131 9.307 8.146 26.99.057 53.979.07 80.968.033 10.892-.014 11.219-.406 11.342-11.199.038-3.332.018-6.664.016-9.997-.041-65.641-.086-131.282-.119-196.924-.001-2.996-.075-6.01.21-8.983.176-1.832-.018-4.336 2.614-4.713 1.904-.273 2.768 1.522 3.738 2.84.789 1.071 1.51 2.191 2.294 3.266 14.577 19.959 33.556 34.028 56.892 42.086 23.535 8.126 47.683 12.012 72.646 9.795 25.611-2.276 51.019-5.592 74.442-17.132 46.324-22.822 77.836-59.431 97.696-106.501 14.553-34.49 20.509-70.738 21.093-108.032.331-21.003.131-41.953-3.221-62.747zm-114.155 143.199c-6.479 15.504-15.463 29.386-27.139 41.555-15.838 16.506-34.805 26.427-57.773 28.331-15.983 1.324-31.968 1.565-47.828-1.003-13.036-2.11-24.886-7.438-35.156-15.73-28.735-23.208-45.34-52.963-46.074-90.267-.57-28.92-.593-57.897.54-86.794 1.603-40.879 18.034-74.205 52.072-98.577 38.345-27.457 106.877-23.659 140.963 19.728 20.594 26.215 31.662 55.948 34.444 88.927.783 9.286.894 18.628 1.122 23.715.452 33.832-3.689 62.64-15.171 90.115zM1466.855 1101.316c-27.98-86-56-171.988-83.901-258.015-27.799-85.707-55.532-171.436-83.178-257.192-9.995-31.005-19.071-62.302-30.467-92.858-2.875-7.713-7.114-10.854-15.456-10.757-30.312.351-60.634-.103-90.95.126-23.601.179-20.328-3.578-28.125 20.238-24.821 75.82-49.342 151.739-73.85 227.663-34.11 105.675-68.116 211.385-102.134 317.09-6.606 20.529-13.06 41.106-20.132 63.386 6.103 0 10.414-.003 14.724.001 26.319.023 52.638.064 78.956.067 10.274.001 10.408-.315 13.836-10.491 18.154-53.887 31.837-109.148 50.207-162.97 3.625-10.618 4.327-11.655 15.314-11.66 59.302-.025 118.605-.001 177.909.097 12.843.021 14.587 1.314 18.523 13.583 7.717 24.061 15.188 48.2 22.881 72.269 9.513 29.763 17.871 59.889 28.343 89.354 2.618 7.366 6.982 10.492 14.822 10.373 19.318-.292 38.645.002 57.967-.064 9.322-.032 18.661-.053 27.959-.614 9.661-.586 9.605-.856 6.752-9.626zm-187.172-252.012c-2.94.463-5.956.605-8.939.611-23.32.047-46.641.025-69.961.027-22.655.002-45.309.002-67.962 0-1.999 0-4.004.078-5.996-.051-8.35-.541-9.399-1.785-6.876-9.84 9.542-30.462 18.529-61.094 28.819-91.33 15.654-45.997 27.322-93.163 40.076-140.005 2.096-7.693 3.687-15.524 5.49-23.295.226-.972.286-1.98.493-2.957.698-3.277 1.718-7.248 5.43-7.109 2.936.11 4.099 3.766 4.884 6.846 4.845 19.012 9.823 37.99 14.775 56.976 11.928 45.726 27.098 90.447 41.73 135.34 6.801 20.863 12.651 42.037 20.364 62.605.699 1.864 1.146 3.822 1.719 5.733 1.108 3.695-.458 5.882-4.046 6.449zM3793.45 800.79c-20.49-73.319-79.749-142.022-182.271-151.062-10.743-.947-21.347 1.179-31.851.137-14.17-1.407-27.889.254-41.641 2.899-65.506 12.6-114.602 48.217-146.918 106.354-21.809 39.235-30.916 81.883-30.583 131.594-.284 7.731.615 20.334 2.18 32.91 3.474 27.919 9.962 55.06 22.682 80.269 25.132 49.806 62.376 86.629 115.688 105.706 16.099 5.761 32.934 7.898 49.787 10.024 31.804 4.011 63.498 1.808 94.119-6.332 66.847-17.768 113.169-60.367 139.729-123.743 25.804-61.565 26.898-124.998 9.079-188.756zm-121.256 190.6c-14.911 25.17-35.759 43.278-64.102 50.686-41.052 10.729-76.581-.069-104.442-32.271-21.2-24.503-32.742-53.793-37.888-85.615-6.836-42.273-3.775-83.574 12.772-123.444 4.472-10.775 10.025-20.994 16.166-30.908 34.171-55.167 119.884-67.238 166.601-9.529 19.013 23.485 30.073 50.764 35.229 80.476 2.455 14.154 2.609 28.49 3.215 37.679.535 43.505-7.83 79.638-27.551 112.926zM4540.797 826.14c-4.937-42.601-19.022-81.425-45.731-115.317-17.71-22.474-39.819-39.024-66.502-49.439-26.82-10.471-54.748-13.423-83.298-12.646-30.694.836-60.007 7.236-87.493 21.139-43.505 22.007-73.051 57.349-93.257 100.64-28.255 60.539-31.161 124.277-17.407 188.456 15.172 70.797 71.6 150.015 185.846 158.086 40.494 2.861 80.48 1.255 120.288-6.355 20.265-3.875 40.456-7.922 59.245-17.044 3.542-1.72 5.205-3.193 4.171-7.378-4.702-19.034-8.985-38.174-13.807-57.176-1.662-6.548-2.75-6.821-9.183-4.692-21.849 7.229-44.174 12.46-67.002 15.214-29.174 3.521-58.344 4.729-87.494-.991-59.643-11.702-100.946-60.68-101.089-120.295-.025-10.03.011-10.076 9.753-10.319 1.998-.049 3.997-.018 5.997-.018h132.929v.103c18.324 0 36.647-.026 54.971.006 28.317.05 56.637.223 84.953.168 10.684-.021 13.107-2.159 13.781-11.372 1.726-23.579 3.07-47.116.329-70.77zm-103.519 10.375c-9.65.165-19.305.053-28.958.054-22.302.003-44.604.001-66.905.001h-83.881c-2.664 0-5.326.013-7.988-.011-12.137-.109-12.989-.853-11.123-12.46 4.322-26.869 14.75-51.011 33.078-71.386 13.855-15.401 30.156-27.478 50.697-31.892 47.748-10.262 91.672 6.076 114.033 57.183 6.74 15.403 9.732 31.74 10.328 48.497.324 9.052-.437 9.862-9.281 10.014zM2553.12 155.689c-18.778-38.678-51.345-57.176-94.084-52.735-23.713 2.464-44.439 11.219-58.832 31.466-.763 1.073-1.626 2.077-3.213 1.854-2.06-2.08-2.087-4.791-1.96-7.444.253-5.31.961-10.611.981-15.917.124-32.982.11-65.964.138-98.946 0-1.332.061-2.675-.085-3.994-.874-7.959-2.781-9.775-10.715-9.793-7.993-.019-15.988.319-23.979.226-17.985-.214-17.952-.283-18.013 18.272-.312 97.278-.621 194.557-1.004 291.834-.027 6.984-.927 13.97-.857 20.949.068 6.775 1.598 8.19 8.291 8.471 8.982.376 17.979.644 26.966.573 7.444-.06 9.366-1.783 10.745-9.058.614-3.238.649-6.604.738-9.918.123-4.559-.076-9.141 1.518-13.811 4.784.62 5.977 4.513 8.053 7.228 10.258 13.408 23.262 22.91 39.688 26.982 17.759 4.401 35.84 4.757 53.295-.856 30.314-9.747 50.851-30.654 63.762-59.322 6.34-14.073 9.312-29.07 11.061-44.349 3.248-28.383.105-55.763-12.494-81.712zm-52.854 120.235c-13.346 23.975-35.813 30.304-61.802 26.182-23.299-3.696-44.552-33.41-42.976-57.059.485-7.301.701-14.619 1.04-21.93-.242-10.316-1.573-20.6.014-30.924 5.396-35.087 42.566-57.417 75.926-45.439 10.67 3.832 19.861 10.114 25.436 19.936 20.354 35.863 22.76 72.595 2.362 109.234zM1209.606 326.03c-19.353-59.058-38.667-118.129-57.985-177.198-13.436-41.083-26.833-82.178-40.301-123.251-2.876-8.775-3.356-9.029-12.834-9.084-6.995-.041-13.991-.008-20.987-.013-6.994-.005-13.991.106-20.984-.031-10.791-.212-11.297.044-14.751 10.619-27.336 83.716-54.666 167.434-81.978 251.159-5.463 16.747-10.999 33.473-16.189 50.304-2.987 9.683-1.086 12.002 9.009 12.011 10.66.01 21.322-.08 31.979-.275 8.754-.16 9.895-1.06 12.543-9.728 7.479-24.478 14.915-48.968 22.312-73.469 3.629-12.021 4.53-12.88 17.479-12.946 25.65-.129 51.301-.119 76.952-.12 12.711 0 13.297.487 17.449 13.021 8.257 24.924 16.448 49.873 24.81 74.762 2.729 8.124 3.736 8.705 12.237 8.75 10.327.057 20.653-.021 30.98-.056 13.516-.043 14.5-1.515 10.259-14.455zm-97.874-120.67c-1.649.168-3.295.533-4.942.533-22.316-.001-44.63-.051-66.946-.085-2.032-.003-3.96-.37-6.583-2.118 13.188-45.332 27.198-90.736 39.776-136.569l3.173.237c13.308 43.54 26.557 87.097 40.007 130.592 1.478 4.776.307 6.924-4.485 7.41zM3382.138 185.292c-8.906-35.968-30.267-62.663-65.969-75.798-16.417-6.039-33.72-7.557-51.156-6.644-42.878 2.246-74.573 22.142-93.82 60.7-9.662 19.358-13.351 40.291-13.54 60.943.202 13.934 1.494 26.856 5.239 39.352 11.706 39.057 35.773 66.231 75.778 77.728 14.975 4.304 30.467 3.935 45.65 2.832 33.817-2.457 61.241-17.447 79.928-46.13 22.69-34.83 27.731-73.228 17.89-112.983zm-67.574 98.027c-22.522 31.764-67.453 30.555-87.888-2.572-22.708-36.814-21.38-74.473-2.379-112.197 18.589-36.906 71.658-38.195 92.934-3.266 11.179 18.353 15.688 37.897 14.994 59.955 1.596 20.967-5.144 40.43-17.661 58.08zM1698.416 329.767c-.204-11.312-.919-22.614-1.289-33.924-.839-25.636-.664-51.275-.315-76.917.271-20.02-1.143-39.908-6.188-59.371-8.41-32.437-34.088-53.098-67.521-55.519-22.113-1.601-43.827-.11-65.398 4.842-9.771 2.243-19.35 4.773-27.733 10.587-5.598 3.883-6.113 5.317-4.031 11.539 1.581 4.722 3.025 9.49 4.62 14.208 2.894 8.566 5.903 10.085 14.099 5.731 19.903-10.573 41.111-11.892 63.053-10.661 16.683.935 34.863 14.673 36.116 39.667.299 5.955-1.589 8.17-7.999 9.091-6.567.943-13.231 1.221-19.853 1.797-22.679 1.976-44.693 6.433-65.146 17.005-24.862 12.852-39.573 32.87-43.216 60.754-3.959 30.307 16.317 67.858 52.287 74.405 12.635 2.298 25.097 2.102 37.714.111 16.334-2.579 30.343-9.422 41.886-21.317 2.477-2.552 4.518-5.821 8.844-6.424 2.049 4.352 1.78 9.023 2.136 13.574.698 8.916 2.699 11.134 11.6 11.364 8.649.223 17.314.012 25.969-.157 9.267-.179 10.529-1.285 10.365-10.385zm-53.912-79.152c-.086 6.126.232 13.411-1.231 20.684-1.711 8.497-5.545 15.646-12.09 21.215-10.189 8.67-22.074 13.421-35.42 14.245-26.764 1.654-38.154-20.767-36.243-39.664 1.354-13.39 7.897-23.631 19.67-30.626 11.099-6.594 23.189-9.812 35.775-11.445 6.582-.854 13.251-1.386 19.884-1.413 6.799-.029 8.759 2.058 9.482 8.874.314 2.963.146 5.979.168 8.972.021 2.66.005 5.321.005 9.158zM2254.129 329.536c-2.073-11.577-1.831-23.195-1.881-34.83-.067-15.316-.017-30.634-.017-42.182.442-27.085-.318-50.406-1.965-73.629-2.898-40.898-27.58-67.633-67.748-74.729-19.617-3.464-39.117-1.191-58.559 1.765-12.621 1.918-24.11 7.375-35.792 12.078-6.933 2.792-8.172 6.344-5.938 13.518 1.284 4.123 2.89 8.144 4.324 12.22 3.884 11.032 4.089 11.499 14.365 6.829 18.586-8.445 37.796-11.614 58.196-10.529 22.945 1.22 38.579 15.781 39.829 38.892.384 7.093-.801 8.75-7.739 10.316-6.536 1.475-13.235 1.13-19.863 1.595-25.176 1.762-49.326 7.121-71.095 20.616-21.033 13.039-33.633 31.156-36.439 56.391-4.683 42.121 25.868 73.193 59.385 76.3 12.695 1.177 25.251.483 37.643-2.672 12.19-3.106 22.966-8.654 31.661-17.94 1.814-1.937 3.769-3.781 5.862-5.405 3.148-2.443 5.679-1.716 6.711 2.183 1.102 4.164 1.937 8.406 2.698 12.648.883 4.909 3.239 7.741 8.657 7.627 9.651-.204 19.317.087 28.962-.267 8.031-.295 10.187-2.733 8.743-10.795zm-109.303-22.761c-17.511-2.532-27.229-12.737-28.834-30.28-2.049-22.397 6.321-36.084 27.186-44.418 15.336-6.125 31.336-8.648 47.768-8.332 9.635.186 10.939 1.8 10.815 11.172-.049 3.656-.008 7.314-.008 12.088.105 1.869.402 4.854.425 7.841.24 31.305-27.35 56.267-57.352 51.929zM2960.661 180.555c-8.768-43.388-36.314-71.089-77.896-77.133-46.347-6.735-89.481 13.052-111.069 56.647-15.447 31.2-19.491 64.268-11.953 98.105 10.264 46.069 38.273 74.755 85.56 83.501 30.832 5.703 60.921 2.274 90.716-6.178 2.538-.72 4.956-1.916 7.359-3.042 4.435-2.076 6.424-5.35 5.349-10.431-1.098-5.189-1.648-10.494-2.713-15.691-1.993-9.736-5.721-11.989-15.69-9.675-1.932.448-3.83 1.106-5.679 1.832-6.893 2.703-14.057 3.909-21.424 4.202-9.312.37-18.618 1.052-27.933 1.228-20.322.383-37.83-6.416-51.881-21.314-10.269-10.887-15.193-24.057-15.742-38.898-.212-5.738.906-6.908 6.708-7.422 2.978-.263 5.987-.189 8.983-.191 20.312-.014 40.625-.007 60.937-.007v.091c22.311 0 44.62.05 66.931-.022 10.576-.034 12.724-2.264 13.017-12.942.392-14.352-.734-28.584-3.58-42.66zm-56.088 19.256c-14.625.414-29.269.113-43.905.113v.076c-14.304 0-28.609.159-42.91-.057-9.316-.141-10.219-1.425-9.351-10.695 3.65-39.008 45.339-62.759 78.611-44.718 12.605 6.835 21.122 17.005 24.312 31.224.943 4.21 1.871 8.438 2.518 12.701 1.273 8.366-.599 11.11-9.275 11.356zM4523.401 158.336c-10.303-24.001-26.416-42.408-51.853-50.649-21.315-6.905-43.163-7.816-64.887-1.604-41.897 11.982-65.347 41.515-76.104 82.173-5.855 22.133-6.322 44.92-1.829 67.324 8.741 43.574 33.772 73.216 77.518 84.646 24.771 6.472 50.094 6.153 75.29 1.481 10.81-2.004 21.364-4.938 31.6-8.979 3.964-1.565 7.535-3.833 6.502-8.682-1.728-8.11-3.874-16.146-6.211-24.106-1.186-4.038-4.031-5.943-8.5-4.25-3.104 1.177-6.279 2.201-9.479 3.089-21.889 6.071-44.334 5.805-66.428 3.247-28.606-3.313-51.552-29.811-52.838-58.183-.265-5.815.528-6.737 6.602-7.505 1.316-.166 2.656-.222 3.984-.222 22.308-.014 44.615-.01 66.923-.01l-.001.431c22.643 0 45.287.058 67.93-.032 7.902-.03 10.048-1.382 10.479-7.557 1.684-24.075 1.038-47.938-8.698-70.612zm-48.056 41.546c-15.275.3-30.561.088-45.844.088v.042c-14.285 0-28.573.177-42.855-.06-10.285-.17-11.73-2.404-8.917-12.074 2.892-9.936 6.739-19.441 12.816-27.896 12.853-17.878 34.144-25.946 55.351-20.649 15.139 3.782 26.09 12.766 31.635 27.624 2.783 7.459 5.342 15.034 6.309 22.987.919 7.562-.722 9.786-8.495 9.938z"/></g></svg>