<svg version="1.1" class="signal-zero" xmlns="http://www.w3.org/2000/svg" xmlns:xlink="http://www.w3.org/1999/xlink" x="0px" y="0px"
	 width="28.295px" height="32.605px" viewBox="337.119 388.325 28.295 32.605"
	 enable-background="new 337.119 388.325 28.295 32.605" xml:space="preserve">
<path fill="none" d="M365.353,402.933c-0.189-1.758-0.718-3.417-1.553-4.98c-0.819-1.538-1.878-2.885-3.192-4.025
	c-2.681-2.328-5.812-3.48-9.352-3.525c-0.597-0.007-1.196,0.044-1.79,0.12c-1.714,0.22-3.338,0.724-4.853,1.557
	c-0.262,0.144-0.444,0.128-0.686-0.047c-1.569-1.138-3.175-2.224-4.806-3.271c-0.253-0.163-0.495-0.351-0.791-0.437h-0.081
	c-0.046,0.145,0.068,0.224,0.137,0.315c1.212,1.615,2.494,3.173,3.803,4.71c0.16,0.188,0.163,0.2-0.031,0.366
	c-0.553,0.473-1.082,0.969-1.558,1.521c-0.906,1.05-1.666,2.195-2.241,3.46c-0.789,1.737-1.264,3.542-1.223,5.464
	c0.001,0.065,0.022,0.134-0.019,0.196v0.525c0.031,0.034,0.021,0.076,0.02,0.115c-0.009,0.49-0.007,0.983,0.052,1.469
	c0.177,1.44,0.582,2.819,1.199,4.132c0.841,1.79,2.002,3.342,3.485,4.653c1.269,1.123,2.698,1.984,4.274,2.596
	c1.922,0.746,3.914,1.053,5.975,0.92c1.006-0.064,1.992-0.222,2.961-0.491c1.042-0.29,2.037-0.695,2.982-1.221
	c0.148-0.083,0.264-0.08,0.403,0.023c0.472,0.348,0.956,0.677,1.437,1.012c1.342,0.934,2.695,1.851,4.088,2.709
	c0.08,0.05,0.161,0.097,0.253,0.122s0.114-0.014,0.088-0.092c-0.035-0.097-0.105-0.172-0.165-0.253
	c-1.218-1.628-2.519-3.19-3.828-4.745c-0.144-0.17-0.145-0.198,0.022-0.34c0.683-0.581,1.317-1.211,1.885-1.906
	c1.396-1.713,2.354-3.645,2.85-5.8c0.182-0.789,0.284-1.585,0.299-2.397C365.413,404.569,365.44,403.746,365.353,402.933
	L365.353,402.933z M341.363,402.294c0.229-0.915,0.555-1.792,1.016-2.619c0.47-0.844,1.058-1.598,1.733-2.282
	c0.271-0.275,0.562-0.537,0.876-0.767c0.056-0.042,0.085-0.063,0.146,0.004c0.555,0.618,1.115,1.231,1.676,1.845
	c0.321,0.352,0.639,0.706,0.968,1.05c0.729,0.762,1.458,1.523,2.197,2.274c0.235,0.238,0.501,0.445,0.76,0.74h-0.241
	c-2.973,0-5.946,0-8.919,0C341.316,402.541,341.303,402.537,341.363,402.294L341.363,402.294z M354.583,414.176
	c-0.013,0.051-0.068,0.061-0.111,0.074c-0.537,0.174-1.084,0.314-1.641,0.398c-0.516,0.077-1.034,0.142-1.56,0.13
	c-1.467-0.019-2.872-0.314-4.21-0.925c-0.923-0.421-1.756-0.971-2.518-1.642c-1.291-1.14-2.229-2.514-2.824-4.126
	c-0.296-0.802-0.484-1.626-0.569-2.479c-0.096-0.96-0.058-1.909,0.122-2.855c0.031-0.164,0.076-0.118,0.155-0.043
	c0.439,0.415,0.879,0.828,1.321,1.241c0.79,0.737,1.58,1.474,2.372,2.209c0.497,0.461,0.994,0.921,1.497,1.375
	c0.636,0.576,1.284,1.14,1.915,1.72c0.755,0.695,1.542,1.351,2.335,2.001c0.621,0.51,1.262,0.996,1.896,1.488
	c0.577,0.448,1.158,0.89,1.737,1.334C354.536,414.104,354.599,414.116,354.583,414.176L354.583,414.176z M361.148,406.943
	c-0.354,1.492-1.015,2.833-1.981,4.026c-0.479,0.592-1.024,1.115-1.605,1.604c-0.092,0.076-0.141,0.041-0.198-0.026
	c-0.529-0.624-1.096-1.214-1.649-1.815c-0.49-0.533-0.982-1.065-1.474-1.597c-0.74-0.801-1.535-1.545-2.293-2.327
	c-0.034-0.036-0.09-0.062-0.09-0.128c0.062-0.038,0.13-0.018,0.194-0.018c2.959-0.002,5.919-0.002,8.879-0.002
	C361.216,406.66,361.216,406.661,361.148,406.943L361.148,406.943z M361.27,406.405c-0.006,0.04-0.005,0.087-0.049,0.103
	c-0.044,0.014-0.07-0.029-0.099-0.056c-0.541-0.501-1.08-1.005-1.626-1.503c-0.692-0.633-1.393-1.258-2.087-1.889
	c-0.362-0.33-0.718-0.667-1.079-0.996c-0.729-0.664-1.466-1.319-2.187-1.991c-0.555-0.517-1.131-1.007-1.709-1.496
	c-0.567-0.48-1.149-0.943-1.734-1.4c-0.883-0.688-1.774-1.363-2.663-2.042c-0.098-0.075-0.111-0.123,0.025-0.168
	c0.694-0.233,1.402-0.404,2.134-0.463c0.367-0.029,0.734-0.084,1.101-0.075c1.49,0.037,2.921,0.34,4.277,0.98
	c1.22,0.575,2.281,1.36,3.187,2.35c0.888,0.969,1.569,2.069,2.026,3.308c0.302,0.816,0.498,1.656,0.592,2.517
	c0.038,0.337,0.089,0.679,0.05,0.971C361.441,405.212,361.362,405.809,361.27,406.405L361.27,406.405z"/>
</svg>
