<?xml version="1.0" encoding="utf-8"?>
<!-- Generator: Adobe Illustrator 16.0.4, SVG Export Plug-In . SVG Version: 6.00 Build 0)  -->
<!DOCTYPE svg PUBLIC "-//W3C//DTD SVG 1.1//EN" "http://www.w3.org/Graphics/SVG/1.1/DTD/svg11.dtd">
<svg class="twitter" version="1.1" id="Layer_1" xmlns="http://www.w3.org/2000/svg" xmlns:xlink="http://www.w3.org/1999/xlink" x="0px" y="0px"
	 width="34.02px" height="34.039px" viewBox="213.968 213.776 34.02 34.039" enable-background="new 213.968 213.776 34.02 34.039"
	 xml:space="preserve">
<path fill="none" d="M231.008,213.776c-9.365-0.02-17.123,7.689-17.039,16.97c-0.093,9.486,7.608,16.847,16.49,17.062
	c9.941,0.241,17.334-7.658,17.525-16.61C248.191,221.461,240.282,213.796,231.008,213.776z M239.235,226.058
	c-0.264,0.295-0.543,0.578-0.832,0.848c-0.361,0.338-0.501,0.725-0.537,1.237c-0.148,2.08-0.778,3.995-2.062,5.68
	c-1.402,1.84-3.183,3.081-5.462,3.538c-2.037,0.409-4.042,0.326-5.971-0.536c-0.338-0.151-0.675-0.307-1.008-0.468
	c-0.105-0.051-0.236-0.082-0.284-0.273c1.666-0.02,3.268-0.255,4.677-1.32c-0.275-0.107-0.529-0.209-0.786-0.305
	c-0.836-0.311-1.512-0.822-1.975-1.594c-0.087-0.146-0.204-0.318-0.126-0.478c0.083-0.171,0.29-0.084,0.443-0.092
	c0.23-0.012,0.462-0.003,0.708-0.043c-0.403-0.279-0.848-0.477-1.227-0.783c-0.757-0.612-1.089-1.438-1.242-2.363
	c-0.04-0.24,0.049-0.316,0.285-0.225c0.207,0.081,0.418,0.153,0.633,0.207c0.097,0.023,0.241,0.074,0.301-0.048
	c0.052-0.106-0.079-0.165-0.141-0.234c-0.465-0.524-0.831-1.093-0.953-1.805c-0.133-0.777-0.029-1.519,0.245-2.248
	c0.095-0.253,0.187-0.101,0.283-0.012c0.424,0.396,0.814,0.824,1.262,1.2c1.336,1.124,2.863,1.816,4.575,2.117
	c0.229,0.041,0.475,0.022,0.692,0.094c0.375,0.125,0.359-0.119,0.305-0.32c-0.115-0.427-0.02-0.831,0.071-1.239
	c0.505-2.259,3.272-3.417,5.168-2.034c0.527,0.385,0.985,0.474,1.574,0.194c0.372-0.177,0.774-0.303,1.239-0.514
	c-0.195,0.559-0.488,0.936-0.802,1.299c-0.073,0.084-0.158,0.158-0.225,0.247c-0.042,0.056-0.094,0.129-0.039,0.202
	c0.055,0.074,0.13,0.036,0.202,0.014c0.27-0.083,0.541-0.165,0.813-0.243c0.114-0.033,0.263-0.146,0.343-0.035
	C239.477,225.854,239.312,225.971,239.235,226.058z"/>
</svg>
