<svg class="facebook" version="1.1" id="Layer_1" xmlns="http://www.w3.org/2000/svg" xmlns:xlink="http://www.w3.org/1999/xlink" x="0px" y="0px"
	 width="34.167px" height="34.167px" viewBox="233.917 233.917 34.167 34.167"
	 enable-background="new 233.917 233.917 34.167 34.167" xml:space="preserve">
<path fill="none" d="M251,233.917c-9.435,0-17.083,7.648-17.083,17.083c0,9.435,7.648,17.084,17.083,17.084
	c9.435,0,17.084-7.649,17.084-17.084C268.084,241.565,260.435,233.917,251,233.917z M255.229,248.123
	c-0.089,0.902-0.163,1.806-0.235,2.709c-0.015,0.187-0.093,0.243-0.276,0.241c-0.646-0.011-1.293,0.016-1.938-0.013
	c-0.317-0.014-0.368,0.096-0.366,0.381c0.015,1.371,0.008,2.743,0.008,4.115c0,1.384-0.008,2.767,0.006,4.149
	c0.003,0.273-0.057,0.371-0.351,0.366c-1.021-0.018-2.041-0.017-3.061,0c-0.282,0.004-0.361-0.073-0.36-0.357
	c0.01-2.744-0.001-5.487,0.015-8.231c0.002-0.352-0.095-0.451-0.433-0.422c-0.36,0.03-0.725,0-1.087,0.01
	c-0.179,0.005-0.267-0.034-0.265-0.239c0.009-0.907,0.008-1.814,0-2.721c-0.001-0.202,0.082-0.247,0.264-0.243
	c0.408,0.01,0.817-0.009,1.224,0.007c0.221,0.009,0.297-0.058,0.293-0.283c-0.012-0.624-0.005-1.247,0-1.871
	c0.006-0.727,0.166-1.416,0.533-2.048c0.609-1.046,1.575-1.514,2.734-1.579c0.993-0.056,1.993-0.018,2.991-0.031
	c0.191-0.002,0.256,0.061,0.254,0.253c-0.007,0.873-0.007,1.746,0,2.619c0.002,0.197-0.074,0.254-0.261,0.251
	c-0.51-0.008-1.021-0.005-1.529-0.001c-0.724,0.004-0.964,0.242-0.968,0.954c-0.002,0.465,0.013,0.93-0.005,1.395
	c-0.012,0.258,0.052,0.352,0.331,0.344c0.736-0.021,1.474-0.003,2.21-0.01C255.144,247.867,255.253,247.884,255.229,248.123z"/>
</svg>
