<?xml version="1.0" standalone="no"?>
<!DOCTYPE svg PUBLIC "-//W3C//DTD SVG 1.1//EN" "http://www.w3.org/Graphics/SVG/1.1/DTD/svg11.dtd" >
<svg>
<metadata>
Created by FontForge 20090622 at Wed Jun 29 19:37:25 2016
 By deploy user
&#194;&#174;1998 COMPUTORIUM
</metadata>
<defs>
<font id="FuturaExtended" horiz-adv-x="2364" >
  <font-face 
    font-family="FuturaExtended"
    font-weight="400"
    font-stretch="normal"
    units-per-em="2048"
    panose-1="2 11 11 0 0 0 0 0 0 0"
    ascent="1638"
    descent="-410"
    x-height="961"
    cap-height="1544"
    bbox="-105 -549 5392 2104"
    underline-thickness="25"
    underline-position="-38"
    unicode-range="U+0020-U+F002"
  />
<missing-glyph horiz-adv-x="1024" 
d="M128 0v1805h768v-1805h-768zM256 128h512v1549h-512v-1549z" />
    <glyph glyph-name=".notdef" horiz-adv-x="1024" 
d="M128 0v1805h768v-1805h-768zM256 128h512v1549h-512v-1549z" />
    <glyph glyph-name=".null" horiz-adv-x="0" 
 />
    <glyph glyph-name="nonmarkingreturn" horiz-adv-x="592" 
 />
    <glyph glyph-name="space" unicode=" " horiz-adv-x="592" 
 />
    <glyph glyph-name="glyph4" horiz-adv-x="592" 
 />
    <glyph glyph-name="glyph5" horiz-adv-x="592" 
 />
    <glyph glyph-name="exclam" unicode="!" horiz-adv-x="656" 
d="M324 193q51 0 81.5 -33t30.5 -84q0 -49 -32 -86t-80 -37q-111 0 -123 119q0 51 36 86t87 35zM236 1544h188v-1187h-188v1187z" />
    <glyph glyph-name="quotedbl" unicode="&#x22;" horiz-adv-x="899" 
d="M516 1544h201l-37 -671h-127zM185 1544h200l-37 -671h-129z" />
    <glyph glyph-name="numbersign" unicode="#" horiz-adv-x="1184" 
d="M373 1075l72 398h159l-75 -398h256l71 398h160l-72 -398h189v-167h-217l-56 -312h205v-164h-237l-80 -432h-156l76 432h-252l-84 -432h-152l76 432h-205v164h238l55 312h-215v167h244zM756 908h-252l-55 -312h252z" />
    <glyph glyph-name="dollar" unicode="$" horiz-adv-x="1184" 
d="M580 1579v185h104v-187q103 0 204 -73q94 -67 144 -164l-159 -93q-70 119 -189 154v-485q396 -155 396 -471q0 -201 -139 -340q-123 -123 -257 -138v-195h-104v195q-127 0 -240 72q-214 136 -235 357l184 40q48 -263 291 -288v616q-273 122 -333 252q-34 74 -34 160
q0 193 158 322q82 67 209 81zM580 965v436q-82 -10 -137.5 -72t-55.5 -145q0 -135 193 -219zM684 717v-557q90 20 151.5 97.5t61.5 170.5q0 176 -213 289z" />
    <glyph glyph-name="percent" unicode="%" horiz-adv-x="1448" 
d="M396 1456q-97 0 -167 -65q-73 -66 -73 -162q0 -98 70.5 -163.5t169.5 -65.5q136 0 205 114q32 53 32 115q0 96 -70 161.5t-167 65.5zM396 1577q205 0 311 -174q49 -81 49 -174q0 -148 -105.5 -250t-254.5 -102q-206 0 -310 174q-49 82 -49 178q0 200 179 301
q83 47 180 47zM1057 549q-137 0 -205 -113q-33 -55 -33 -116q0 -97 70 -162.5t168 -65.5q137 0 207 113q33 53 33 115q0 134 -120 199q-55 30 -120 30zM1057 672q207 0 310 -176q48 -82 48 -176q0 -202 -178 -305q-83 -48 -180 -48q-96 0 -179 48q-181 104 -181 305
q0 147 106.5 249.5t253.5 102.5zM1133 1577l92 -53l-905 -1557l-92 54z" />
    <glyph glyph-name="ampersand" unicode="&#x26;" horiz-adv-x="1415" 
d="M932 344l-344 420q-114 -77 -156 -109q-143 -109 -143 -243q0 -152 152 -235q68 -37 143 -37q148 0 348 204zM1239 692l125 -129l-188 -219l276 -344h-239l-164 209q-217 -242 -465 -242q-257 0 -400 202q-75 106 -75 216q0 207 149 347q80 75 217 167q-116 128 -150 229
q-18 54 -18 109q0 206 163 295q82 45 190 45q219 0 313 -160q43 -73 43 -161q0 -115 -92 -222q-61 -71 -189 -161l326 -394zM629 1004q207 143 207 260q0 78 -52 122q-48 42 -128 42q-69 0 -117.5 -44t-54.5 -112q0 -110 145 -268z" />
    <glyph glyph-name="quotesingle" unicode="'" horiz-adv-x="568" 
d="M285 1579l160 -63l-273 -547l-116 47z" />
    <glyph glyph-name="parenleft" unicode="(" horiz-adv-x="600" 
d="M332 1657l147 -113q-87 -181 -134 -446q-42 -234 -42 -465q0 -525 176 -918l-147 -111q-136 255 -191 644q-28 198 -28 381q0 594 219 1028z" />
    <glyph glyph-name="parenright" unicode=")" horiz-adv-x="600" 
d="M269 -396l-152 111q124 259 161 659q0 40 7 159q4 68 4 96q0 537 -172 920l147 112q138 -261 190 -650q25 -188 25 -386q0 -388 -93 -715q-47 -164 -117 -306z" />
    <glyph glyph-name="asterisk" unicode="*" horiz-adv-x="885" 
d="M303 1225l-172 102l66 117l180 -100v200h143v-192l164 96l72 -121l-176 -102l176 -100l-72 -121l-164 100v-196h-143v200l-176 -100l-72 117z" />
    <glyph glyph-name="plus" unicode="+" horiz-adv-x="1184" 
d="M504 613v436h176v-436h436v-177h-436v-436h-176v436h-436v177h436z" />
    <glyph glyph-name="comma" unicode="," horiz-adv-x="592" 
d="M336 244l160 -64l-273 -549l-110 49z" />
    <glyph glyph-name="hyphen" unicode="-" horiz-adv-x="680" 
d="M117 731h446v-151h-446v151z" />
    <glyph glyph-name="hyphen" unicode="&#x2010;" horiz-adv-x="680" 
d="M117 731h446v-151h-446v151z" />
    <glyph glyph-name="period" unicode="." horiz-adv-x="592" 
d="M297 205q51 0 85 -35t34 -86q0 -49 -35 -83t-84 -34q-47 0 -82 35t-35 82q0 50 33.5 85.5t83.5 35.5z" />
    <glyph glyph-name="slash" unicode="/" horiz-adv-x="1129" 
d="M920 1780l145 -68l-852 -1972l-149 67z" />
    <glyph glyph-name="zero" unicode="0" horiz-adv-x="1184" 
d="M592 1579q310 0 457 -352q26 -62 46 -140q38 -147 38 -315q0 -204 -58 -378q-60 -181 -175 -295q-134 -132 -308 -132q-168 0 -297 122q-111 104 -175 278q-69 187 -69 405q0 299 119 526q148 281 422 281zM592 1415q-114 0 -202 -107q-70 -84 -109 -212
q-45 -147 -45 -320q0 -215 74 -396q97 -240 282 -240q214 0 311 316q45 147 45 320q0 220 -72 398q-97 241 -284 241z" />
    <glyph glyph-name="one" unicode="1" horiz-adv-x="1184" 
d="M520 1368h-268l109 176h344v-1544h-185v1368z" />
    <glyph glyph-name="two" unicode="2" horiz-adv-x="1184" 
d="M92 0l697 856q114 140 114 256q0 159 -150 249q-67 40 -140 40q-182 0 -270 -151q-40 -69 -40 -129h-190q28 278 235 395q108 61 248 61q201 0 345 -134q147 -137 147 -331q0 -174 -111 -311l-508 -625h623v-176h-1000z" />
    <glyph glyph-name="three" unicode="3" horiz-adv-x="1184" 
d="M563 897q212 0 284 138q22 42 22 98q0 121 -76.5 199.5t-196.5 78.5q-102 0 -169 -60.5t-83 -162.5h-192q62 391 457 391q263 0 386 -200q58 -94 58 -215q0 -236 -197 -353q217 -102 217 -381v-37q-2 -9 -2 -12q0 -96 -67 -203q-132 -211 -424 -211q-275 0 -407 210
q-64 102 -64 204h188q0 -62 46 -127q84 -119 257 -119q176 0 252 150q37 73 37 147q0 177 -124 260q-65 43 -165 43h-37v162z" />
    <glyph glyph-name="four" unicode="4" horiz-adv-x="1184" 
d="M776 1037l-440 -646h440v646zM961 1612v-1221h176v-168h-176v-223h-185v223h-759z" />
    <glyph glyph-name="five" unicode="5" horiz-adv-x="1184" 
d="M465 1544h619v-176h-488l-96 -315l109 4q94 3 192 -42q188 -87 264 -284q39 -101 39 -198q0 -231 -138 -386q-152 -171 -386 -180l-51 -2q-103 -4 -206 40q-172 73 -263 231l145 137q35 -109 175 -187q76 -42 157 -42q227 0 332 189q51 92 51 187q0 200 -174 312
q-89 57 -183 57q-192 0 -299 -137h-41z" />
    <glyph glyph-name="six" unicode="6" horiz-adv-x="1184" 
d="M776 1577l140 -92l-412 -557l4 -4q69 37 152 37q118 0 223 -66q101 -63 161 -169q64 -112 64 -257q0 -260 -225 -414q-128 -88 -270 -88q-135 0 -256.5 66t-199 179.5t-77.5 236.5q4 11 4 22q0 176 168 402zM924 465q0 82 -52 161q-48 73 -123 117q-79 46 -169 46
q-78 0 -153 -50q-70 -46 -114 -116q-47 -76 -49 -139q-3 -84 46 -170q69 -123 197 -165q42 -14 81 -14q13 5 29 5q72 0 153 50q154 95 154 275z" />
    <glyph glyph-name="seven" unicode="7" horiz-adv-x="1184" 
d="M897 1368h-800v176h1112l-965 -1577l-147 93z" />
    <glyph glyph-name="eight" unicode="8" horiz-adv-x="1184" 
d="M856 1145q0 156 -130 231q-61 35 -134 35q-103 0 -183.5 -77.5t-80.5 -180.5q0 -142 142 -229q63 -39 126 -39q120 0 217 136q43 61 43 124zM893 428q0 181 -163 260q-68 33 -138 33q-129 0 -213 -77q-86 -80 -86 -208q0 -170 160 -257q72 -39 143 -39q158 0 253 145
q44 67 44 143zM353 801q-205 123 -205 375q0 105 59 200q56 89 150 145q98 58 231 58q279 0 396 -218q53 -99 53 -216q0 -225 -205 -344q118 -35 183 -144q60 -99 60 -229q0 -272 -232 -399q-113 -62 -259 -62q-155 0 -261 68q-214 138 -214 401q0 124 63 223
q67 103 181 142z" />
    <glyph glyph-name="nine" unicode="9" horiz-adv-x="1184" 
d="M709 637q-55 -37 -141 -37q-120 0 -234 74q-221 144 -221 418q0 184 133 331q148 164 363 164q143 0 266 -69.5t195 -192.5q67 -114 67 -229v-4q0 -133 -79 -272q-33 -58 -78 -119l-535 -726l-142 101l414 553zM625 1415q-179 0 -282 -167q-46 -75 -46 -156
q0 -179 163 -278q76 -46 165 -46q191 0 285 163q43 75 43 161q0 183 -167 280q-74 43 -161 43z" />
    <glyph glyph-name="colon" unicode=":" horiz-adv-x="592" 
d="M297 987q51 0 85 -33.5t34 -84.5q0 -49 -35 -85t-84 -36t-85 36t-36 85q0 50 35.5 84t85.5 34zM297 205q49 0 84 -34t35 -83q0 -51 -34 -86t-85 -35q-50 0 -85.5 35.5t-35.5 85.5q0 48 36 82.5t85 34.5z" />
    <glyph glyph-name="semicolon" unicode=";" horiz-adv-x="592" 
d="M396 987q49 0 82.5 -36.5t33.5 -85.5q0 -47 -34.5 -80t-81.5 -33q-119 0 -119 121q0 48 35 81t84 33zM320 244l159 -64l-270 -549l-112 49z" />
    <glyph glyph-name="less" unicode="&#x3c;" horiz-adv-x="1184" 
d="M68 596l1048 424v-192l-788 -303l788 -306v-190l-1048 424v143z" />
    <glyph glyph-name="equal" unicode="=" horiz-adv-x="1184" 
d="M68 789h1048v-176h-1048v176zM68 436h1048v-176h-1048v176z" />
    <glyph glyph-name="greater" unicode="&#x3e;" horiz-adv-x="1184" 
d="M1116 457l-1048 -424v186l788 306l-788 303v192l1048 -424v-139z" />
    <glyph glyph-name="question" unicode="?" horiz-adv-x="928" 
d="M469 205q71 0 105 -63q14 -26 14 -54q0 -48 -35.5 -84.5t-83.5 -36.5q-49 0 -82.5 34t-33.5 83t34 85t82 36zM109 1164q0 20 -8 73q0 89 54 171q111 169 314 169q244 0 334 -204q37 -84 37 -156q0 -167 -115 -260q-73 -59 -212 -98q-59 -17 -97 -35q-92 -45 -92 -132
q0 -57 44.5 -100t100.5 -43q67 0 109 47q39 45 39 113h184q0 -107 -65.5 -195.5t-167.5 -121.5q-47 -15 -97 -15q-188 0 -287 162q-49 80 -49 174l4 5l1 3q0 185 222 272l122 48q155 61 168 155q0 129 -94 185q-40 24 -89 24q-72 0 -126 -52t-54 -124q7 -32 10 -65h-190z
" />
    <glyph glyph-name="at" unicode="@" horiz-adv-x="1641" 
d="M1028 740l4 69q5 93 -49 154t-147 61q-117 0 -196 -85q-87 -94 -87 -208q0 -101 48 -175q56 -85 151 -85l5 3l3 1q225 0 268 265zM1256 1164l-123 -644q6 -49 35 -55l18 -4q52 0 108 71q40 51 68 117q43 102 43 191q0 328 -246 490q-129 85 -311 85q-236 0 -416 -172
q-192 -183 -192 -446q0 -405 328 -588q143 -80 335 -80q95 0 192 22q120 27 173 77l152 -119q-100 -57 -184 -87q-151 -55 -380 -55q-281 0 -516 199q-268 227 -268 615q4 13 4 43q0 199 114 380q110 176 287 275.5t379 99.5q138 0 270 -54q203 -83 323 -257t120 -391
q0 -59 -16 -127q-11 -48 -42 -127q-49 -127 -137 -210q-103 -97 -225 -97q-113 0 -133 129q-123 -129 -281 -129q-197 0 -299 198q-51 100 -47 195l2 43q5 101 64 206t143 161q96 65 207 65q172 0 279 -147l28 127h144z" />
    <glyph glyph-name="A" unicode="A" horiz-adv-x="1440" 
d="M721 1612l739 -1612h-208l-177 387h-706l-176 -387h-210zM721 1188l-272 -625h547z" />
    <glyph glyph-name="B" unicode="B" horiz-adv-x="1096" 
d="M131 1544h193q323 0 465 -144q96 -97 96 -232q0 -260 -176 -344q179 -15 274 -206q45 -91 45 -198q0 -211 -173 -324q-147 -96 -367 -96h-357v1544zM324 1372v-512h88q293 0 293 256q0 143 -82 204q-71 52 -219 52h-80zM324 709v-537h155q357 0 357 252q0 148 -114 223
q-97 62 -253 62h-145z" />
    <glyph glyph-name="C" unicode="C" horiz-adv-x="1352" 
d="M1272 303v-227q-191 -109 -403 -109q-160 0 -307 62q-304 128 -437 439q-65 152 -65 325q0 255 156 454q119 151 292 240q177 90 365 90q223 0 399 -100v-225q-179 153 -412 153q-245 0 -426.5 -183t-181.5 -429q0 -280 181.5 -464.5t426.5 -184.5q221 0 412 159z" />
    <glyph glyph-name="D" unicode="D" horiz-adv-x="1360" 
d="M131 1544h322q253 0 451 -91q224 -104 334 -308q83 -154 83 -352q0 -335 -202 -552q-225 -241 -648 -241h-340v1544zM324 1368v-1192h117q440 0 606 289q78 136 78 311q0 301 -208 455q-185 137 -497 137h-96z" />
    <glyph glyph-name="E" unicode="E" horiz-adv-x="1067" 
d="M148 1544h829v-176h-637v-432h621v-176h-621v-584h637v-176h-829v1544z" />
    <glyph glyph-name="F" unicode="F" horiz-adv-x="973" 
d="M144 1544h749v-176h-553v-432h537v-176h-537v-760h-196v1544z" />
    <glyph glyph-name="G" unicode="G" horiz-adv-x="1596" 
d="M944 781h613v-68q0 -314 -204 -529q-207 -219 -519 -219h-44q-10 2 -14 2q-160 0 -327 98q-140 82 -230 204q-178 242 -178 512q0 187 102 373q155 284 452 382q124 41 229 41q210 0 361.5 -69.5t291.5 -227.5l-141 -131q-191 252 -500 252q-152 0 -291 -82
q-134 -78 -220 -210q-93 -142 -93 -316l4 -12q0 -168 84 -317.5t227 -237.5q134 -82 264 -82q134 0 254.5 59.5t197.5 167.5q85 119 85 233h-404v177z" />
    <glyph glyph-name="H" unicode="H" horiz-adv-x="1385" 
d="M131 1544h193v-620h737v620h191v-1544h-191v744h-737v-744h-193v1544z" />
    <glyph glyph-name="I" unicode="I" horiz-adv-x="475" 
d="M140 1544h192v-1544h-192v1544z" />
    <glyph glyph-name="J" unicode="J" horiz-adv-x="740" 
d="M428 1544h193v-999q0 -267 -81 -405q-103 -173 -347 -173q-119 0 -234 70l97 160q86 -53 157 -53q83 0 139 66q48 57 63 145q13 78 13 190v999z" />
    <glyph glyph-name="K" unicode="K" horiz-adv-x="1229" 
d="M148 1544h192v-667l656 667h251l-694 -692l707 -852h-260l-584 721l-76 -78v-643h-192v1544z" />
    <glyph glyph-name="L" unicode="L" horiz-adv-x="789" 
d="M148 1544h192v-1368h469v-176h-661v1544z" />
    <glyph glyph-name="M" unicode="M" horiz-adv-x="1745" 
d="M873 391l532 1221l316 -1612h-201l-180 1028l-467 -1065l-465 1069l-185 -1032h-194l315 1612z" />
    <glyph glyph-name="N" unicode="N" horiz-adv-x="1608" 
d="M129 1620l1159 -1220v1144h197v-1608l-1165 1217v-1153h-191v1620z" />
    <glyph glyph-name="O" unicode="O" horiz-adv-x="1696" 
d="M848 1401q-167 0 -308 -83t-224.5 -228.5t-83.5 -317.5q0 -169 81.5 -311.5t225.5 -227.5t309 -85q166 0 307.5 83.5t225.5 228.5t84 312q0 168 -81 313t-224.5 230.5t-311.5 85.5zM848 1577q337 0 573 -234t236 -571q0 -217 -107 -401.5t-295 -294t-407 -109.5
q-217 0 -402 107t-295 295t-110 403q0 217 108 402t296 295q185 108 403 108z" />
    <glyph glyph-name="P" unicode="P" horiz-adv-x="1012" 
d="M148 1544h243q149 0 272 -23q161 -30 247 -147q81 -110 81 -278q0 -234 -171 -351q-144 -98 -324 -98h-156v-647h-196zM424 1372h-84v-553l64 -2q407 -13 407 295q0 260 -387 260z" />
    <glyph glyph-name="Q" unicode="Q" horiz-adv-x="1696" 
d="M1155 236l-354 344h244l243 -244q177 188 177 473q0 118 -56 239q-102 220 -341 310q-114 43 -240 43q-109 0 -228 -52q-175 -76 -274 -240q-94 -157 -94 -353q0 -243 180.5 -427.5t423.5 -184.5q155 0 319 92zM1288 105q-211 -142 -432 -142q-175 0 -326 65
q-306 132 -430 435q-59 144 -59 293q0 340 227 578q230 243 568 243q217 0 406.5 -109t302 -295.5t112.5 -400.5q0 -352 -242 -567l242 -238h-233z" />
    <glyph glyph-name="R" unicode="R" horiz-adv-x="1112" 
d="M148 1544h276q270 0 387 -84q180 -129 180 -348q0 -171 -101 -293t-269 -147l487 -672h-231l-457 652h-80v-652h-192v1544zM340 1372v-561q161 0 262 23q209 48 209 266q0 272 -407 272h-64z" />
    <glyph glyph-name="S" unicode="S" horiz-adv-x="1100" 
d="M836 1252q-87 149 -252 149q-146 0 -222 -114q-34 -51 -34 -99q0 -147 151 -205l176 -68q269 -104 341 -274q41 -97 41 -196q0 -146 -82 -262.5t-219 -174.5q-96 -41 -187 -41q-257 0 -399 207q-69 100 -82 226l192 41q0 -92 47 -163q86 -130 252 -130q111 0 191.5 73
t89.5 183l4 51q9 114 -82 185q-72 56 -216 118q-170 73 -224 105q-187 111 -187 329q0 147 121 262q132 125 336 125q260 0 395 -235z" />
    <glyph glyph-name="T" unicode="T" horiz-adv-x="932" 
d="M373 1368h-369v176h928v-176h-369v-1368h-190v1368z" />
    <glyph glyph-name="U" unicode="U" horiz-adv-x="1372" 
d="M1061 1544h191v-981q0 -260 -153 -426q-157 -170 -415 -170q-170 0 -300 79q-135 82 -203 233q-60 134 -60 274v991h191v-944q0 -198 84 -317q97 -135 288 -135q377 0 377 469v927z" />
    <glyph glyph-name="V" unicode="V" horiz-adv-x="1313" 
d="M-17 1544h214l459 -1140l460 1140h211l-671 -1624z" />
    <glyph glyph-name="W" unicode="W" horiz-adv-x="2104" 
d="M1053 1579l440 -1138l430 1103h209l-639 -1604l-440 1131l-436 -1135l-642 1608h210l432 -1103z" />
    <glyph glyph-name="X" unicode="X" horiz-adv-x="1176" 
d="M484 811l-424 733h221l315 -561l336 561h221l-448 -735l471 -809h-219l-361 637l-381 -637h-215z" />
    <glyph glyph-name="Y" unicode="Y" horiz-adv-x="1172" 
d="M492 672l-505 872h222l379 -659l381 659h219l-504 -872v-672h-192v672z" />
    <glyph glyph-name="Z" unicode="Z" horiz-adv-x="1133" 
d="M801 1368h-672v176h987l-784 -1368h784v-176h-1095z" />
    <glyph glyph-name="bracketleft" unicode="[" horiz-adv-x="637" 
d="M125 1661h391v-176h-204v-1708h204v-173h-391v2057z" />
    <glyph glyph-name="backslash" unicode="\" horiz-adv-x="1129" 
d="M64 1780h172l829 -1780h-172z" />
    <glyph glyph-name="bracketright" unicode="]" horiz-adv-x="637" 
d="M516 -396h-391v173h199v1712h-199v172h391v-2057z" />
    <glyph glyph-name="asciicircum" unicode="^" horiz-adv-x="1184" 
d="M475 1544h234l407 -911h-192l-332 744l-332 -744h-192z" />
    <glyph glyph-name="underscore" unicode="_" horiz-adv-x="1024" 
d="M0 -232h1024v-153h-1024v153z" />
    <glyph glyph-name="grave" unicode="`" horiz-adv-x="735" 
d="M156 1415l168 88l256 -339l-88 -56z" />
    <glyph glyph-name="a" unicode="a" horiz-adv-x="1141" 
d="M844 961h184v-961h-184v156q-134 -189 -332 -189q-105 0 -187 39q-135 64 -207 197q-67 124 -67 281q0 313 236 444q106 59 225 59q52 0 114 -20q142 -46 218 -174v168zM852 488q0 140 -82 236q-87 100 -225 100q-168 0 -262 -156q-47 -78 -47 -184q0 -214 154 -311
q70 -44 143 -44q150 0 237 107q82 99 82 252z" />
    <glyph glyph-name="b" unicode="b" horiz-adv-x="1141" 
d="M113 0v1780h184v-987q127 194 332 194q203 0 334 -147q125 -141 125 -344q0 -136 -43 -241q-78 -190 -254 -258q-78 -30 -148 -30q-121 0 -199 46q-66 39 -147 143v-156h-184zM903 488q0 190 -141 285q-76 51 -170 51q-170 0 -259 -159q-44 -78 -44 -181q0 -146 79 -245
q85 -108 228 -108q149 0 232 107q75 97 75 250z" />
    <glyph glyph-name="c" unicode="c" horiz-adv-x="903" 
d="M832 264v-235q-116 -58 -260 -58q-139 0 -257 62q-121 64 -192.5 179.5t-71.5 256.5t69 259.5t192 187.5q120 67 260 67q149 0 260 -59v-240q-110 131 -283 131q-126 0 -219.5 -100t-93.5 -227q0 -195 146 -295q77 -53 173 -53q90 0 153 30q56 26 124 94z" />
    <glyph glyph-name="d" unicode="d" horiz-adv-x="1141" 
d="M844 1780h184v-1780h-184v156q-125 -189 -328 -189q-226 0 -353 169q-112 149 -112 335q0 145 56 262q62 130 179 196q103 58 222 58q99 0 195 -54t141 -140v987zM852 475q0 215 -149 305q-73 44 -166 44q-191 0 -268 -187q-33 -80 -33 -166q0 -177 123 -282
q68 -58 174 -58q206 0 285 179q34 77 34 165z" />
    <glyph glyph-name="e" unicode="e" horiz-adv-x="1000" 
d="M811 320l158 -92q-158 -261 -453 -261q-210 0 -339 152q-126 148 -126 397q0 88 38 185q70 179 235 249q87 37 192 37q302 0 406 -254q49 -119 45 -227l-2 -57h-725q0 -136 79 -226q84 -94 218 -94q177 0 274 191zM785 588q-15 106 -81 171q-70 69 -175 69
q-112 0 -187 -64.5t-94 -175.5h537z" />
    <glyph glyph-name="f" unicode="f" horiz-adv-x="563" 
d="M164 789h-84v172h84v475q0 369 305 369q75 0 135 -25v-188q-71 41 -129 41q-127 0 -127 -232v-440h256v-172h-256v-789h-184v789z" />
    <glyph glyph-name="g" unicode="g" horiz-adv-x="1137" 
d="M840 789v172h184v-961q0 -422 -244 -512q-100 -37 -217 -37q-287 0 -408 207q-58 99 -58 225h184q0 -268 299 -268q260 0 260 317v224l-41 -62q-51 -77 -148 -108q-59 -19 -151 -19q-274 0 -392 255q-57 123 -57 278q0 182 115 327q127 160 330 160q222 0 344 -198z
M852 488q0 215 -166 300q-70 36 -137 36q-193 0 -275 -169q-38 -78 -38 -163q0 -119 50 -210q56 -102 161 -137q42 -14 90 -14q191 0 275 168q40 80 40 189z" />
    <glyph glyph-name="h" unicode="h" horiz-adv-x="1071" 
d="M129 1780h183v-948h4q92 155 293 155q335 0 335 -387v-600h-184v600q0 120 -53.5 172t-173.5 52q-221 0 -221 -299v-525h-183v1780z" />
    <glyph glyph-name="i" unicode="i" horiz-adv-x="520" 
d="M260 1528q54 0 90.5 -38.5t36.5 -92.5q0 -53 -39 -89t-92 -36q-55 0 -90 38.5t-35 94.5q0 50 39.5 86.5t89.5 36.5zM168 961h185v-961h-185v961z" />
    <glyph glyph-name="j" unicode="j" horiz-adv-x="520" 
d="M260 1528q57 0 92 -38.5t35 -96.5q0 -50 -38.5 -85.5t-88.5 -35.5q-56 0 -92.5 38.5t-36.5 94.5q0 48 40 85.5t89 37.5zM168 961h185v-1510h-185v1510z" />
    <glyph glyph-name="k" unicode="k" horiz-adv-x="948" 
d="M324 596l360 365h244l-408 -402l453 -559h-242l-344 436l-63 -63v-373h-184v1780h184v-1184z" />
    <glyph glyph-name="l" unicode="l" horiz-adv-x="457" 
d="M135 1780h185v-1780h-185v1780z" />
    <glyph glyph-name="m" unicode="m" horiz-adv-x="1573" 
d="M303 961v-121h4q35 68 139 120q54 27 117 27q182 0 277 -172q100 172 293 172q319 0 319 -399v-588h-184v549q0 127 -30 188q-43 87 -154 87q-203 0 -203 -304v-520h-184v512q0 138 -30 208q-44 104 -163 104q-201 0 -201 -320v-504h-182v961h182z" />
    <glyph glyph-name="n" unicode="n" horiz-adv-x="1071" 
d="M129 961h183v-137q106 163 297 163q335 0 335 -411v-576h-184v580q0 123 -43 179q-49 65 -168 65q-237 0 -237 -299v-525h-183v961z" />
    <glyph glyph-name="o" unicode="o" horiz-adv-x="1104" 
d="M553 811q-188 0 -285 -167q-45 -78 -45 -169q0 -190 165 -286q77 -45 165 -45q135 0 231.5 97.5t96.5 233.5q0 192 -164 291q-74 45 -164 45zM553 987q138 0 255.5 -67t187 -186t69.5 -259q0 -136 -68.5 -253t-186.5 -186t-257 -69q-136 0 -255 68.5t-188 186t-69 253.5
q0 139 68 256.5t189 187.5q118 68 255 68z" />
    <glyph glyph-name="p" unicode="p" horiz-adv-x="1141" 
d="M297 961v-160h6q53 99 187 156q71 30 143 30q264 0 390 -238q61 -115 61 -265q0 -291 -206 -443q-101 -74 -235 -74q-220 0 -346 189v-705h-184v1510h184zM903 479q0 148 -82 244q-87 101 -233 101q-167 0 -255 -156q-44 -78 -44 -184q0 -148 78 -247q84 -108 229 -108
l8 2q91 0 160 50q139 100 139 298z" />
    <glyph glyph-name="q" unicode="q" horiz-adv-x="1141" 
d="M844 961h184v-1510h-184v705q-51 -84 -141 -136.5t-187 -52.5q-207 0 -339 152q-126 146 -126 356q0 158 80 294q85 145 227 197q57 21 121 21q245 0 365 -194v168zM852 475q0 228 -168 312q-74 37 -155 37q-125 0 -212 -110q-81 -102 -81 -230q0 -149 78 -247
q85 -106 231 -106q196 0 273 176q34 78 34 168z" />
    <glyph glyph-name="r" unicode="r" horiz-adv-x="721" 
d="M324 961v-164q85 190 264 190q92 0 156 -43l-84 -172q-46 37 -123 37q-213 0 -213 -321v-488h-184v961h184z" />
    <glyph glyph-name="s" unicode="s" horiz-adv-x="789" 
d="M512 740q-42 84 -125 84q-43 0 -70.5 -28t-27.5 -71q0 -57 86 -99l161 -79q199 -98 199 -270q0 -168 -157 -265q-73 -45 -158 -45q-262 0 -348 213l160 76q54 -127 172 -127q51 0 92.5 32.5t52.5 82.5q0 74 -74 128q-31 23 -72 44l-71 37q-215 112 -215 260q0 62 36 129
q78 145 247 145q171 0 264 -168z" />
    <glyph glyph-name="t" unicode="t" horiz-adv-x="492" 
d="M152 961v366h184v-366h184v-172h-184v-789h-184v789h-101v172h101z" />
    <glyph glyph-name="u" unicode="u" horiz-adv-x="1049" 
d="M748 961h184v-553q0 -267 -171 -390q-90 -65 -228 -65q-242 0 -357 209q-55 100 -55 229v570h182v-545q0 -116 56 -196q63 -91 174 -91q215 0 215 287v545z" />
    <glyph glyph-name="v" unicode="v" horiz-adv-x="912" 
d="M731 961h209l-483 -994l-486 994h209l277 -600z" />
    <glyph glyph-name="w" unicode="w" horiz-adv-x="1473" 
d="M-33 961h209l281 -613l278 664l285 -664l277 613h211l-488 -994l-285 642l-278 -642z" />
    <glyph glyph-name="x" unicode="x" horiz-adv-x="1000" 
d="M400 520l-344 441h217l227 -314l248 314h225l-352 -441l411 -520h-217l-315 387l-303 -387h-226z" />
    <glyph glyph-name="y" unicode="y" horiz-adv-x="991" 
d="M412 164l-441 797h218l323 -613l299 613h209l-776 -1510h-207z" />
    <glyph glyph-name="z" unicode="z" horiz-adv-x="1012" 
d="M652 789h-535v172h895l-647 -789h618v-172h-979z" />
    <glyph glyph-name="braceleft" unicode="{" horiz-adv-x="684" 
d="M101 705q79 25 119 124q32 79 32 175v405q0 117 95 212q40 40 77 40h160v-172h-84q-59 0 -59 -96v-428q0 -210 -156 -336q156 -103 156 -348v-406q0 -53 13 -73q16 -25 66 -25h64v-173h-156q-86 0 -148 136q-28 61 -28 120v396q0 236 -151 299v150z" />
    <glyph glyph-name="bar" unicode="|" horiz-adv-x="1168" 
d="M496 1780h176v-1780h-176v1780z" />
    <glyph glyph-name="braceright" unicode="}" horiz-adv-x="684" 
d="M584 555q-78 -23 -119 -123q-33 -81 -33 -176v-391q0 -139 -88 -221q-43 -40 -100 -40h-143v173h84q59 0 59 92v428q0 211 156 336q-156 110 -156 348v408q0 105 -80 100l-63 -4v176h143q113 0 165 -135q23 -59 23 -121v-401q0 -230 152 -295v-154z" />
    <glyph glyph-name="asciitilde" unicode="~" horiz-adv-x="1184" 
d="M1121 580q-137 -248 -328 -248q-49 0 -107 30q-105 70 -238 149q-44 26 -87 26q-74 -21 -164 -164l-129 96l43 57q48 63 77 93q96 98 228 98q107 -15 239 -120q112 -89 160 -89q75 15 166 176z" />
    <glyph glyph-name="exclamdown" unicode="&#xa1;" horiz-adv-x="656" 
d="M324 801q-109 0 -115 111q-3 49 31.5 91t83.5 42q54 0 87.5 -35.5t33.5 -89.5q0 -53 -34 -86t-87 -33zM424 -529h-184v1189h184v-1189z" />
    <glyph glyph-name="cent" unicode="&#xa2;" horiz-adv-x="1184" 
d="M633 1284v160h98v-156q135 0 250 -63v-242q-98 133 -250 133v-667q133 0 250 123v-240q-113 -59 -254 -59v-172h-94v180q-256 34 -372 267q-56 113 -56 245q0 101 54 213q115 238 374 278zM633 1104q-141 -17 -214 -183q-34 -77 -34 -161q0 -63 36 -137q73 -150 212 -170
v651z" />
    <glyph glyph-name="sterling" unicode="&#xa3;" horiz-adv-x="1184" 
d="M957 1028l2 43q4 84 -38 166q-57 113 -178 152q-37 12 -79 12q-169 0 -284 -160q-52 -73 -52 -149q0 -110 87 -256l60 -101h301v-118h-256q29 -89 29 -176q0 -27 -8 -101q-2 -8 -8 -38l-8 -38q34 -10 133 -48l125 -48q42 -16 86 -16q76 0 138 102l30 49l155 -94
q-47 -106 -128 -171q-90 -71 -199 -71q-90 0 -247 63q-166 67 -253 67q-131 0 -180 -130l-160 80q98 175 210 217q45 17 101 17q29 90 29 168q0 100 -45 168h-264v118h204q-126 227 -116 377l4 60q7 99 89 202q75 94 172 144q113 59 238 59q171 0 323 -104
q171 -117 171 -373z" />
    <glyph glyph-name="currency" unicode="&#xa4;" horiz-adv-x="1184" 
d="M948 643q0 81 -48 158q-46 74 -118 115q-86 49 -186 49q-223 0 -320 -178q-44 -81 -44 -170q0 -182 171 -295q81 -53 181 -53q164 0 265 106q99 103 99 268zM156 908l-84 88l125 125l92 -93q124 101 303 101q171 0 305 -101l90 93l125 -125l-84 -88q88 -128 88 -299
q0 -150 -88 -285l84 -92l-125 -119l-90 88q-128 -96 -313 -96q-164 0 -295 96l-92 -88l-125 119l84 92q-88 149 -88 280q0 159 88 304z" />
    <glyph glyph-name="yen" unicode="&#xa5;" horiz-adv-x="1184" 
d="M-8 1544h221l379 -659l381 659h219l-323 -561h303v-118h-371l-113 -193v-20h484v-119h-484v-533h-192v533h-483v119h483v20l-111 193h-372v118h303z" />
    <glyph glyph-name="brokenbar" unicode="&#xa6;" horiz-adv-x="692" 
d="M484 1772h176v-1772h-176v1772z" />
    <glyph glyph-name="section" unicode="&#xa7;" horiz-adv-x="1184" 
d="M809 1436q0 84 -71 133q-62 43 -150 43q-189 0 -215 -201q0 -89 91 -155q58 -42 104 -64l154 -74l163 -81q219 -109 219 -297q0 -86 -57 -181q-52 -88 -127 -143q108 -108 108 -256q0 -233 -236 -339q-109 -49 -229 -49q-208 0 -324 132q-110 126 -110 336h183
q0 -169 123 -255q64 -45 145 -45q103 0 180 62q84 66 84 166q0 60 -39 117q-58 62 -199 128l-266 124q-79 37 -148 88q-112 83 -112 231q0 194 201 332q-96 98 -96 223q0 98 57 186q55 84 145.5 133.5t192.5 49.5q240 0 353 -172q54 -82 54 -172h-178zM797 508
q123 86 123 201q0 75 -47 123q-31 32 -114 74l-372 190q-123 -81 -123 -219l4 -26q1 -7 5 -23q20 -62 126 -124q37 -21 166 -80q141 -64 232 -116z" />
    <glyph glyph-name="dieresis" unicode="&#xa8;" horiz-adv-x="965" 
d="M264 1424q51 0 87 -36t36 -87q0 -52 -35.5 -88.5t-87.5 -36.5t-88 36.5t-36 88.5q0 50 37 86.5t87 36.5zM697 1424q51 0 86.5 -36t35.5 -87q0 -52 -35 -88.5t-87 -36.5t-88.5 36.5t-36.5 88.5q0 49 38 86t87 37z" />
    <glyph glyph-name="copyright" unicode="&#xa9;" horiz-adv-x="1641" 
d="M1104 940q-43 172 -264 172q-147 0 -228 -103q-75 -94 -75 -245q0 -190 150 -275q70 -40 169 -40q204 0 248 180h125q-24 -192 -201 -275q-81 -38 -172 -38q-254 0 -381 204q-71 114 -71 240q0 317 233 432q103 51 219 51q201 0 306 -144q51 -70 67 -159h-125zM819 1577
q337 0 573 -234t236 -571q0 -217 -107 -401.5t-295 -294t-407 -109.5q-216 0 -401 106.5t-295 293t-110 405.5q0 217 107 402t294.5 294t404.5 109zM819 1448q-181 0 -336.5 -89.5t-247 -246t-91.5 -340.5q0 -181 90 -336t246.5 -245t338.5 -90q183 0 337 87.5t246.5 244
t92.5 339.5q0 284 -196 480t-480 196z" />
    <glyph glyph-name="ordfeminine" unicode="&#xaa;" horiz-adv-x="684" 
d="M25 852h635v-96h-635v96zM545 1268q0 94 -55.5 153.5t-149.5 59.5q-82 0 -139 -59.5t-57 -141.5q0 -91 52 -151q55 -64 144 -64q92 0 148.5 56t56.5 147zM660 1561v-578h-119v97q-82 -115 -213 -115q-135 0 -219 88t-84 223q0 173 139 261q67 42 152 42q138 0 225 -114
v96h119z" />
    <glyph glyph-name="guillemotleft" unicode="&#xab;" horiz-adv-x="1071" 
d="M828 1149l116 -84l-307 -409l307 -392l-116 -84l-371 476zM436 1149l113 -84l-305 -409l305 -392l-113 -84l-376 472z" />
    <glyph glyph-name="logicalnot" unicode="&#xac;" horiz-adv-x="1184" 
d="M940 613h-872v176h1048v-553h-176v377z" />
    <glyph glyph-name="registered" unicode="&#xae;" horiz-adv-x="1641" 
d="M508 1221h391q301 0 301 -238q0 -112 -64 -182t-175 -70l227 -419h-147l-232 419h-168v-419h-133v909zM893 1088h-252v-223h271q159 0 159 104q0 119 -178 119zM819 1448q-181 0 -336.5 -89.5t-247 -246t-91.5 -340.5q0 -181 90 -336t246.5 -245t338.5 -90
q183 0 337 87.5t246.5 244t92.5 339.5q0 284 -196 480t-480 196zM819 1577q337 0 573 -234t236 -571q0 -217 -107 -401.5t-295 -294t-407 -109.5q-216 0 -401 106.5t-295 293t-110 405.5q0 217 107 402t294.5 294t404.5 109z" />
    <glyph glyph-name="degree" unicode="&#xb0;" 
 />
    <glyph glyph-name="plusminus" unicode="&#xb1;" horiz-adv-x="1184" 
d="M68 176h1048v-176h-1048v176zM504 1153h176v-356h436v-176h-436v-352h-176v352h-436v176h436v356z" />
    <glyph glyph-name="twosuperior" unicode="&#xb2;" horiz-adv-x="709" 
d="M33 621l446 508q66 75 66 147q0 68 -53.5 120t-122.5 52q-125 0 -174 -96q-15 -29 -15 -59h-137q10 79 48 139q86 137 270 137q125 0 220 -81q99 -85 99 -208q0 -107 -71 -188l-312 -357h383v-114h-647z" />
    <glyph glyph-name="threesuperior" unicode="&#xb3;" horiz-adv-x="709" 
d="M332 1180q140 0 184 78q13 23 13 55q0 67 -56 107q-50 36 -120 36q-148 0 -148 -112h-141q45 235 305 235q119 0 200 -65q87 -71 87 -187q0 -135 -131 -206q153 -71 147 -256q-4 -119 -108 -189q-92 -63 -216 -63q-183 0 -266 125q-41 62 -41 122h127q18 -133 189 -133
q73 0 128.5 47t55.5 119q0 98 -94 148q-45 24 -107 24h-8v115z" />
    <glyph glyph-name="acute" unicode="&#xb4;" horiz-adv-x="735" 
d="M412 1503l172 -88l-340 -307l-88 56z" />
    <glyph glyph-name="paragraph" unicode="&#xb6;" horiz-adv-x="1184" 
d="M504 580q-103 0 -189 44q-231 118 -231 441q0 189 139 340q41 45 89 76q97 63 192 63h600v-172h-127v-1684h-172v1684h-125v-1684h-176v892z" />
    <glyph glyph-name="cedilla" unicode="&#xb8;" horiz-adv-x="676" 
d="M357 -37l143 -60l-215 -276l-109 57z" />
    <glyph glyph-name="onesuperior" unicode="&#xb9;" horiz-adv-x="709" 
d="M307 1428h-176l74 116h236v-923h-134v807z" />
    <glyph glyph-name="ordmasculine" unicode="&#xba;" horiz-adv-x="664" 
d="M545 1272q0 85 -61.5 143t-147.5 58q-126 0 -187 -100q-28 -46 -28 -101q0 -86 62.5 -143.5t148.5 -57.5q125 0 186 106q27 47 27 95zM0 1272q0 164 148 258q77 49 188 49q196 0 287 -158q41 -71 41 -149q0 -179 -168 -265q-82 -42 -189 -42q-83 0 -165 53
q-142 92 -142 254zM0 852h664v-96h-664v96z" />
    <glyph glyph-name="guillemotright" unicode="&#xbb;" horiz-adv-x="1071" 
d="M248 168l-117 88l310 404l-310 393l117 88l373 -481zM641 168l-116 84l307 412l-307 389l116 84l375 -473z" />
    <glyph glyph-name="onequarter" unicode="&#xbc;" horiz-adv-x="1776" 
d="M260 1428h-172l68 116h235v-923h-131v807zM1465 600l-261 -348h261v348zM1596 969v-717h100v-117h-100v-135h-131v135h-496zM496 -33l-105 58l902 1552l108 -53z" />
    <glyph glyph-name="onehalf" unicode="&#xbd;" horiz-adv-x="1776" 
d="M260 1428h-172l68 116h235v-923h-131v807zM391 -33l-102 58l899 1552l105 -53zM1049 0l446 512q66 76 66 144t-54 120t-122 52q-74 0 -128 -40q-61 -44 -61 -116h-135q17 167 153 238q73 38 163 38q177 0 273 -138q46 -66 46 -146q0 -112 -72 -193l-311 -350h383v-121
h-647z" />
    <glyph glyph-name="threequarters" unicode="&#xbe;" horiz-adv-x="1776" 
d="M613 -33l-105 58l901 1552l107 -53zM1596 969v-717h100v-117h-100v-135h-131v135h-496zM1465 600l-261 -348h261v348zM381 1180q132 0 178 79q13 22 13 54q0 66 -54 107q-49 36 -118 36q-152 0 -152 -112h-135q36 235 299 235q120 0 201 -65q88 -70 88 -187
q0 -136 -133 -206q158 -67 149 -256q-6 -120 -109 -190q-91 -62 -217 -62q-181 0 -265 125q-42 63 -42 122h131q12 -133 185 -133q73 0 128.5 47t55.5 119v4q0 100 -95 146q-46 22 -108 22v115z" />
    <glyph glyph-name="questiondown" unicode="&#xbf;" horiz-adv-x="928" 
d="M457 805q-49 0 -83 35t-34 84q0 48 36.5 84.5t84.5 36.5q46 0 80.5 -35.5t34.5 -81.5q0 -50 -35 -86.5t-84 -36.5zM815 -131q4 -25 4 -78q0 -194 -180 -295q-80 -45 -174 -45q-245 0 -338 210q-39 88 -39 159q0 163 117 256q68 54 212 97q62 19 99 36q84 40 84 119
q0 59 -39 105t-96 46q-68 0 -110.5 -45t-42.5 -114h-183q0 178 152 278q82 54 184 54q183 0 278 -165q46 -80 46 -180q0 -190 -208 -266l-112 -41q-183 -67 -196 -164q0 -135 87 -188q41 -25 93 -25q73 0 128.5 52t55.5 124q0 32 -12 70h190z" />
    <glyph glyph-name="Agrave" unicode="&#xc0;" horiz-adv-x="2634" 
d="M2515 -24h-48l-1171 396v16zM2334 -24l-1038 396v16l1090 -412h-52zM2143 -24h-42l-805 396v16zM1870 -24h-32l-542 396v16zM2515 -24l-1219 -406v16l1171 390h48zM1573 -24h-21l-256 396v16zM1069 269h-99l33 11h47zM1177 280h409l38 -11h-440zM1069 269zM1177 280z
M2334 -24h52l-1090 -406v16zM1979 147zM1870 -24l-574 -406v16l542 390h32zM2143 -24l-847 -406v16l805 390h42zM1296 388v-16l-257 -396h-19zM2473 -30h-2363v17h2363v-17zM1106 232l-350 -256h-30l370 268zM1166 294l130 94v-16l-122 -88zM1106 232zM1166 294zM1573 -24
l-277 -406v16l256 390h21zM1073 265l-581 -289h-40l608 298zM1151 318l145 70v-16l-137 -65zM1073 265zM1151 318zM1981 -195h-1373l-27 17h1429zM1050 280l-793 -304h-50l832 315zM1140 333l156 55v-16l-145 -55zM1050 280zM1140 333zM1296 664v-17l-276 409h19zM1582 -328
h-584l-16 11h629zM1138 333l158 55v-16l-145 -50zM1045 290zM1033 300l105 33zM1045 290l-921 -314h-48l957 324zM1296 -430l-570 406h30l540 -390v-16zM1296 -430l-844 406h40l804 -390v-16zM1296 -430l-1089 406h50l1039 -390v-16zM1296 -430l-1220 406h48l1172 -390v-16z
M1290 380h15v-800l-15 4v796zM2515 1056h-48l-1171 396v17zM2334 1056l-1038 396v17l1090 -413h-52zM2143 1056h-42l-805 396v17zM1870 1056h-32l-542 396v17zM1468 705l-172 -58v17l163 54zM1564 753zM1468 705zM1564 753l903 303h48l-942 -315zM1573 1056h-21l-256 396v17
zM1624 1346h-654l33 11h583zM1465 713l-169 -66v17l159 60zM1455 724l100 38zM1465 713zM1555 762l779 294h52l-819 -305zM1979 1224zM1440 751l-144 -104v17l136 98zM1508 818zM1440 751zM1508 818l330 238h32l-351 -252zM1455 724l-159 -77v17l148 73zM1536 781zM1455 724
zM1536 781l565 275h42l-591 -288zM1296 1469v-17l-257 -396h-19zM2473 1044h-2363v21h2363v-21zM1296 1452l-540 -396h-30l570 413v-17zM1573 1056l-277 -409v17l256 392h21zM1296 1452l-804 -396h-40l844 413v-17zM1981 882h-1373l-27 17h1429zM1296 1452l-1039 -396h-50
l1089 413v-17zM1440 751h-442l-16 11h450zM1555 762zM1440 751zM1555 762h56l-29 -11h-15zM76 1056l1220 413v-17l-1172 -396h-48zM1296 647l-570 409h30l540 -392v-17zM1296 647l-844 409h40l804 -392v-17zM1296 647l-1089 409h50l1039 -392v-17zM1296 647l-1220 409h48
l1172 -392v-17zM1290 1459h15v-799h-15v799zM1039 -24l257 -390v-16l-276 406h19zM904 516q0 181 107 288.5t288 107.5q180 0 285.5 -107.5t105.5 -288.5q0 -178 -106.5 -284t-284.5 -106t-286.5 106.5t-108.5 283.5zM1015 420h-21l12 -34l36 -64l18 -22l27 -24l34 -25
l30 -15l26 -9l-18 17l-21 15l-29 36l-21 22l-38 73l-5 23l-10 25l-10 -11zM1558 711l16 2l-48 61l-23 19l-22 15l-37 15l-16 11l23 -26l17 -17l13 -15l7 -16l15 -23l7 -21l12 -35l14 14zM1003 501q-5 0 -11 -2q-15 -12 -15 -24q0 -30 24 -30q26 0 26 27q0 29 -24 29z" />
    <glyph glyph-name="Aacute" unicode="&#xc1;" horiz-adv-x="5749" 
d="M88 1434h1515v-364h-1515v364zM1983 1434h1514v-364h-1514v364zM3877 1434h1515v-364h-1515v364zM88 705v-1095h1515v367h-1134v728h-381zM1983 705v-1095h378v731h759v-731h377v1095h-1514zM3877 705v-364h1136v-364h-1136v-367h1515v1095h-1515z" />
    <glyph glyph-name="Acircumflex" unicode="&#xc2;" horiz-adv-x="2245" 
d="M102 1560l1036 -1982l1018 1982h-76v-47h10l-955 -1841l-962 1841h1907v47h-1978zM392 1368l117 -229h1242l117 229h-1476zM551 1059l120 -230h922l117 230h-1159zM711 756l121 -234h600l119 234h-840zM641 1283h-12q-26 0 -26 -29q0 -27 26 -27h12v-24h-16q-50 0 -50 51
q0 55 50 55h16v-26zM717 1283q-28 0 -28 -29q0 -27 28 -27q24 0 24 27q0 29 -24 29zM717 1309q48 0 48 -50q0 -56 -48 -56v0q-54 0 -54 56q0 50 54 50zM810 1203h-19l6 81q2 25 19 25q18 0 20 -23l4 -49l10 54q3 18 20 18q18 0 18 -23l10 -83h-24l-7 83l-13 -68
q-3 -15 -14 -15q-8 0 -8 11l-16 70zM944 1203h-24v65q0 41 36 41t36 -38q0 -34 -36 -34h-4v24q16 0 16 10q0 13 -13 13q-11 0 -11 -13v-68zM1040 1309v-72q0 -14 11 -14q18 0 18 14v72h21v-72q0 -34 -39 -34q-34 0 -34 34v72h23zM1113 1309h63v-26h-16v-80h-30v80h-17v26z
M1248 1283q-29 0 -29 -29q0 -27 29 -27q30 0 30 27q0 29 -30 29zM1248 1309q52 0 52 -50q0 -56 -52 -56v0q-54 0 -54 56q0 50 54 50zM1377 1254q22 0 22 -17v-34h-26v34q0 6 -16 6v23q15 0 15 7q0 11 -11 11q-10 0 -10 -13v-68h-23v65q0 41 33 41q37 0 37 -26v-4
q0 -21 -21 -25zM1455 1309v-106h-26v106h26zM1505 1309v-72q0 -14 15 -14q9 0 9 14v72h27v-72q0 -34 -36 -34q-41 0 -41 34v72h26zM1603 1203h-22l4 81q1 25 22 25q14 0 18 -23l8 -49h3l5 54q2 18 22 18q19 0 20 -23l5 -83h-23l-2 83l-16 -68q-4 -15 -11 -15q-13 0 -13 11
l-14 70zM791 928h11q-5 23 -7 45zM761 893l23 102h22l25 -102h-22l-3 18h-22l-1 -18h-22zM882 911q24 0 24 33t-24 33v0v-66zM864 893v102h16q46 0 46 -51q0 -38 -28 -48q-5 -3 -19 -3h-15zM982 893l-27 102h23l8 -44q4 -22 4 -32q0 10 6 32l12 44h20l-25 -102h-21z
M1076 928h14l-3 45zM1051 893l23 102h18l28 -102h-25l-3 18h-18l-2 -18h-21zM1152 893v102h24l18 -53q0 -7 6 -23q-2 23 -2 36v40h20v-102h-20l-22 58q-1 7 -7 18q6 -14 6 -34v-42h-23zM1309 896q-3 -3 -9 -3q-45 0 -45 51t42 51h12v-22q-3 4 -9 4q-22 0 -22 -33t22 -33
q7 0 9 6v-21zM1355 893v102h38v-18h-21v-22h21v-16h-21v-22h21v-24h-38zM1457 911q22 0 22 33t-22 33v0v-66zM1438 893v102h17q44 0 44 -51t-48 -51h-13zM885 591v23q12 -8 19 -8q11 0 11 14l-14 14q-16 16 -16 27q0 27 28 27q7 0 16 -4v-16q-7 2 -10 4q-13 0 -13 -11
l14 -18q14 -18 14 -23q0 -36 -28 -36q-9 0 -21 7zM968 586v46l-24 56h23l5 -18q4 -5 6 -18q3 6 4 18l8 18h20l-24 -56v-46h-18zM1024 591v23q9 -8 14 -8q9 0 9 14l-11 14q-14 18 -14 27q0 27 24 27q12 0 23 -4v-16q-11 2 -18 4q-7 0 -7 -11l13 -18q13 -18 13 -23
q0 -36 -30 -36q-7 0 -16 7zM1101 586v84h-13v18h50v-18h-16v-84h-21zM1162 586v102h42v-18h-24v-18h20v-22h-20v-23h24v-21h-42zM1226 586l11 102h25l5 -36q3 -22 3 -32q1 5 6 32l2 36h25l11 -102h-20l-5 46v38l-11 -84h-16l-13 84v-12q-1 -11 -1 -18v-8l-4 -46h-18z
M1333 591v23q10 -8 15 -8q11 0 11 14l-13 14q-13 14 -13 27q0 27 26 27q10 0 16 -4v-16l-14 4q-6 0 -6 -11l12 -18q10 -15 10 -23q0 -36 -26 -36q-8 0 -18 7zM875 434l171 -309q24 -30 42 -30q24 0 29 38q15 111 -5 111h-4q-3 -1 -7 -1l-27 -18l61 189v-507l-268 527h8z
M1393 434q-87 -171 -169 -309q-18 -30 -44 -30q-24 0 -28 38q-11 111 10 111h2q16 -9 30 -19l-59 189v-507l267 527h-9zM867 445h535v-11h-535v11z" />
    <glyph glyph-name="Atilde" unicode="&#xc3;" horiz-adv-x="2361" 
d="M110 1523q286 -522 685 -1160q93 -100 174 -100q92 0 109 131q23 174 23 271q0 144 -46 144h-11q-7 0 -22 -9q-93 -56 -111 -58l244 708v-1894l-1078 1967h33zM2205 1523q-292 -522 -692 -1160q-85 -100 -170 -100q-92 0 -112 131q-24 155 -24 264q0 151 53 151h8
q5 0 126 -67l-239 708v-1894l1083 1967h-33zM77 1555h2161v-37h-2161v37z" />
    <glyph glyph-name="Adieresis" unicode="&#xc4;" horiz-adv-x="1440" 
d="M721 1612l739 -1612h-208l-177 387h-706l-176 -387h-210zM721 1188l-272 -625h547zM504 2011q51 0 88 -35.5t37 -86.5q0 -52 -36.5 -88.5t-88.5 -36.5q-51 0 -87 37t-36 88t36 86.5t87 35.5zM936 2011q50 0 87.5 -36t37.5 -86q0 -53 -36 -89t-89 -36q-51 0 -88 37t-37 88
q0 50 37.5 86t87.5 36z" />
    <glyph glyph-name="Aring" unicode="&#xc5;" horiz-adv-x="1440" 
d="M721 1612l739 -1612h-208l-177 387h-706l-176 -387h-210zM721 1188l-272 -625h547zM725 2091q74 0 128.5 -54t54.5 -128q0 -107 -92 -163q-41 -25 -91 -25q-79 0 -133.5 54.5t-54.5 133.5q0 76 55.5 129t132.5 53zM725 2001q-39 0 -67.5 -26.5t-28.5 -65.5q0 -40 28 -68
t68 -28q37 0 63.5 29t26.5 67t-26 65t-64 27z" />
    <glyph glyph-name="AE" unicode="&#xc6;" horiz-adv-x="2040" 
d="M744 1544h676l75 -176h-630l184 -432h618l82 -176h-620l248 -584h638l76 -176h-831l-168 387h-705l-174 -387h-213zM752 1159l-283 -596h551z" />
    <glyph glyph-name="Ccedilla" unicode="&#xc7;" horiz-adv-x="1352" 
d="M1272 303v-227q-191 -109 -403 -109q-160 0 -307 62q-304 128 -437 439q-65 152 -65 325q0 255 156 454q119 151 292 240q177 90 365 90q223 0 399 -100v-225q-179 153 -412 153q-245 0 -426.5 -183t-181.5 -429q0 -280 181.5 -464.5t426.5 -184.5q221 0 412 159z
M697 -37l143 -60l-211 -276l-109 57z" />
    <glyph glyph-name="Egrave" unicode="&#xc8;" horiz-adv-x="1067" 
d="M148 1544h829v-176h-637v-432h621v-176h-621v-584h637v-176h-829v1544zM324 2005l168 86l256 -340l-88 -55z" />
    <glyph glyph-name="Eacute" unicode="&#xc9;" horiz-adv-x="1067" 
d="M148 1544h829v-176h-637v-432h621v-176h-621v-584h637v-176h-829v1544zM600 2091l172 -86l-340 -309l-88 55z" />
    <glyph glyph-name="Ecircumflex" unicode="&#xca;" horiz-adv-x="1067" 
d="M148 1544h829v-176h-637v-432h621v-176h-621v-584h637v-176h-829v1544zM533 2091l327 -295l-120 -96l-207 197l-209 -197l-119 96z" />
    <glyph glyph-name="Edieresis" unicode="&#xcb;" horiz-adv-x="1067" 
d="M148 1544h829v-176h-637v-432h621v-176h-621v-584h637v-176h-829v1544zM344 2011q50 0 87.5 -36t37.5 -86q0 -53 -36 -89t-89 -36q-51 0 -88 37t-37 88q0 50 37.5 86t87.5 36zM776 2011q52 0 87.5 -35t35.5 -87t-35.5 -88.5t-87.5 -36.5t-88 36.5t-36 88.5
q0 51 36.5 86.5t87.5 35.5z" />
    <glyph glyph-name="Igrave" unicode="&#xcc;" horiz-adv-x="475" 
d="M144 1544h192v-1544h-192v1544zM25 2005l168 86l256 -340l-88 -55z" />
    <glyph glyph-name="Iacute" unicode="&#xcd;" horiz-adv-x="475" 
d="M140 1544h192v-1544h-192v1544zM281 2091l172 -86l-340 -309l-88 55z" />
    <glyph glyph-name="Icircumflex" unicode="&#xce;" horiz-adv-x="475" 
d="M140 1544h192v-1544h-192v1544zM236 2091l327 -295l-118 -96l-209 197l-207 -197l-121 96z" />
    <glyph glyph-name="Idieresis" unicode="&#xcf;" horiz-adv-x="475" 
d="M144 1544h192v-1544h-192v1544zM21 2011q51 0 87 -35.5t36 -86.5q0 -52 -35.5 -88.5t-87.5 -36.5t-89 36.5t-37 88.5q0 51 37.5 86.5t88.5 35.5zM453 2011q51 0 87 -35.5t36 -86.5q0 -52 -35.5 -88.5t-87.5 -36.5t-88.5 36.5t-36.5 88.5q0 51 37 86.5t88 35.5z" />
    <glyph glyph-name="Eth" unicode="&#xd0;" horiz-adv-x="1596" 
d="M944 781h613v-68q0 -314 -204 -529q-207 -219 -519 -219h-44q-10 2 -14 2q-160 0 -327 98q-140 82 -230 204q-178 242 -178 512q0 187 102 373q155 284 452 382q124 41 229 41q210 0 361.5 -69.5t291.5 -227.5l-141 -131q-191 252 -500 252q-152 0 -291 -82
q-134 -78 -220 -210q-93 -142 -93 -316l4 -12q0 -168 84 -317.5t227 -237.5q134 -82 264 -82q134 0 254.5 59.5t197.5 167.5q85 119 85 233h-404v177zM1056 2104h147q-41 -190 -215 -256q-82 -31 -184 -31q-101 0 -203 90q-90 80 -114 197h149q47 -141 186 -156
q180 0 234 156z" />
    <glyph glyph-name="Ntilde" unicode="&#xd1;" horiz-adv-x="1608" 
d="M129 1620l1159 -1220v1144h197v-1608l-1165 1217v-1153h-191v1620zM1104 2001l96 -80q-32 -70 -99 -119q-70 -51 -144 -51q-48 8 -94 27l-105 43q-64 26 -102 35h-19q-75 0 -125 -92l-96 79q92 164 227 164q53 0 79 -12l104 -48q81 -37 118 -42q13 0 21 -4q87 0 139 100z
" />
    <glyph glyph-name="Ograve" unicode="&#xd2;" horiz-adv-x="1696" 
d="M848 1401q-167 0 -308 -83t-224.5 -228.5t-83.5 -317.5q0 -169 81.5 -311.5t225.5 -227.5t309 -85q166 0 307.5 83.5t225.5 228.5t84 312q0 168 -81 313t-224.5 230.5t-311.5 85.5zM848 1577q337 0 573 -234t236 -571q0 -217 -107 -401.5t-295 -294t-407 -109.5
q-217 0 -402 107t-295 295t-110 403q0 217 108 402t296 295q185 108 403 108zM637 2001l168 88l256 -340l-88 -57z" />
    <glyph glyph-name="Oacute" unicode="&#xd3;" horiz-adv-x="1696" 
d="M848 1401q-167 0 -308 -83t-224.5 -228.5t-83.5 -317.5q0 -169 81.5 -311.5t225.5 -227.5t309 -85q166 0 307.5 83.5t225.5 228.5t84 312q0 168 -81 313t-224.5 230.5t-311.5 85.5zM848 1577q337 0 573 -234t236 -571q0 -217 -107 -401.5t-295 -294t-407 -109.5
q-217 0 -402 107t-295 295t-110 403q0 217 108 402t296 295q185 108 403 108zM893 2091l172 -86l-340 -309l-88 55z" />
    <glyph glyph-name="Ocircumflex" unicode="&#xd4;" horiz-adv-x="1696" 
d="M848 1401q-167 0 -308 -83t-224.5 -228.5t-83.5 -317.5q0 -169 81.5 -311.5t225.5 -227.5t309 -85q166 0 307.5 83.5t225.5 228.5t84 312q0 168 -81 313t-224.5 230.5t-311.5 85.5zM848 1577q337 0 573 -234t236 -571q0 -217 -107 -401.5t-295 -294t-407 -109.5
q-217 0 -402 107t-295 295t-110 403q0 217 108 402t296 295q185 108 403 108zM848 2091l328 -295l-119 -96l-209 197l-207 -197l-121 96z" />
    <glyph glyph-name="Otilde" unicode="&#xd5;" horiz-adv-x="1696" 
d="M848 1401q-167 0 -308 -83t-224.5 -228.5t-83.5 -317.5q0 -169 81.5 -311.5t225.5 -227.5t309 -85q166 0 307.5 83.5t225.5 228.5t84 312q0 168 -81 313t-224.5 230.5t-311.5 85.5zM848 1577q337 0 573 -234t236 -571q0 -217 -107 -401.5t-295 -294t-407 -109.5
q-217 0 -402 107t-295 295t-110 403q0 217 108 402t296 295q185 108 403 108zM1145 2001l94 -80q-30 -70 -98 -119q-71 -51 -145 -51q-47 8 -93 27l-105 44q-56 24 -101 34h-21q-76 0 -123 -92l-96 79q92 164 227 164q54 0 80 -12l103 -48q80 -37 116 -42q13 0 21 -4
q85 0 141 100z" />
    <glyph glyph-name="Odieresis" unicode="&#xd6;" horiz-adv-x="1696" 
d="M848 1401q-167 0 -308 -83t-224.5 -228.5t-83.5 -317.5q0 -169 81.5 -311.5t225.5 -227.5t309 -85q166 0 307.5 83.5t225.5 228.5t84 312q0 168 -81 313t-224.5 230.5t-311.5 85.5zM848 1577q337 0 573 -234t236 -571q0 -217 -107 -401.5t-295 -294t-407 -109.5
q-217 0 -402 107t-295 295t-110 403q0 217 108 402t296 295q185 108 403 108zM637 2011q51 0 87 -35.5t36 -86.5q0 -52 -35.5 -88.5t-87.5 -36.5t-88.5 36.5t-36.5 88.5t36.5 87t88.5 35zM1067 2011q52 0 88.5 -35t36.5 -87q0 -53 -36 -89t-89 -36q-51 0 -87 37t-36 88
t36 86.5t87 35.5z" />
    <glyph glyph-name="multiply" unicode="&#xd7;" 
 />
    <glyph glyph-name="Oslash" unicode="&#xd8;" horiz-adv-x="1696" 
d="M457 289q173 -141 391 -141q166 0 307.5 83.5t225.5 228.5t84 312q0 209 -134 387zM365 369l887 878q-169 154 -404 154q-167 0 -308 -83t-224.5 -228.5t-83.5 -317.5q0 -224 133 -403zM848 1577q301 0 537 -205l202 207l84 -84l-206 -207q192 -226 192 -516
q0 -217 -107 -401.5t-295 -294t-407 -109.5q-293 0 -532 193l-203 -203l-84 86l199 201q-187 205 -187 528q0 217 108 402t296 295q185 108 403 108z" />
    <glyph glyph-name="Ugrave" unicode="&#xd9;" horiz-adv-x="1372" 
d="M1061 1544h191v-981q0 -260 -153 -426q-157 -170 -415 -170q-170 0 -300 79q-135 82 -203 233q-60 134 -60 274v991h191v-944q0 -198 84 -317q97 -135 288 -135q377 0 377 469v927zM453 2005l168 86l256 -340l-88 -55z" />
    <glyph glyph-name="Uacute" unicode="&#xda;" horiz-adv-x="1372" 
d="M1061 1544h191v-981q0 -260 -153 -426q-157 -170 -415 -170q-170 0 -300 79q-135 82 -203 233q-60 134 -60 274v991h191v-944q0 -198 84 -317q97 -135 288 -135q377 0 377 469v927zM727 2091l172 -86l-340 -309l-88 55z" />
    <glyph glyph-name="Ucircumflex" unicode="&#xdb;" horiz-adv-x="1372" 
d="M1065 1544h191v-981q0 -260 -153 -426q-157 -170 -415 -170q-170 0 -300 79q-135 82 -203 233q-60 134 -60 274v991h191v-944q0 -200 83 -317q96 -135 289 -135q377 0 377 469v927zM688 2091l328 -295l-119 -96l-209 197l-209 -197l-118 96z" />
    <glyph glyph-name="Udieresis" unicode="&#xdc;" horiz-adv-x="1372" 
d="M1065 1544h191v-981q0 -260 -153 -426q-157 -170 -415 -170q-170 0 -300 79q-135 82 -203 233q-60 134 -60 274v991h191v-944q0 -200 83 -317q96 -135 289 -135q377 0 377 469v927zM471 2011q52 0 88.5 -35t36.5 -87q0 -53 -36 -89t-89 -36q-51 0 -87 37t-36 88t36 86.5
t87 35.5zM903 2011q53 0 89 -34.5t36 -87.5q0 -54 -35.5 -89.5t-89.5 -35.5q-52 0 -87 36.5t-35 88.5q0 51 35.5 86.5t86.5 35.5z" />
    <glyph glyph-name="Yacute" unicode="&#xdd;" horiz-adv-x="475" 
d="M140 1544h192v-1544h-192v1544zM247 2048q46 0 77 -33t31 -79t-33 -76t-79 -30t-76 33t-30 80q0 42 34 73.5t76 31.5z" />
    <glyph glyph-name="Thorn" unicode="&#xde;" horiz-adv-x="1100" 
d="M836 1252q-87 149 -252 149q-146 0 -222 -114q-34 -51 -34 -99q0 -147 151 -205l176 -68q269 -104 341 -274q41 -97 41 -196q0 -146 -82 -262.5t-219 -174.5q-96 -41 -187 -41q-257 0 -399 207q-69 100 -82 226l192 41q0 -92 47 -163q86 -130 252 -130q111 0 191.5 73
t89.5 183l4 51q9 114 -82 185q-72 56 -216 118q-170 73 -224 105q-187 111 -187 329q0 147 121 262q132 125 336 125q260 0 395 -235zM576 -37l143 -60l-211 -276l-109 57z" />
    <glyph glyph-name="germandbls" unicode="&#xdf;" horiz-adv-x="1188" 
d="M140 793h-84v172h84v328q0 234 102 366q114 146 342 146q266 0 394 -228q59 -105 59 -229q0 -211 -193 -328q180 -54 273 -269q44 -102 44 -216v-38q-2 -10 -2 -13q0 -128 -90 -260q-85 -126 -203 -188q-131 -69 -290 -69v173q103 0 199 55q202 115 202 334
q0 134 -76 231q-74 94 -204 132q-55 16 -121 16v180q157 0 241 135q39 63 39 141q0 111 -83 189q-81 75 -193 75q-256 0 -256 -389v-1239h-184v793z" />
    <glyph glyph-name="agrave" unicode="&#xe0;" horiz-adv-x="1141" 
d="M844 961h184v-961h-184v156q-134 -189 -332 -189q-105 0 -187 39q-135 64 -207 197q-67 124 -67 281q0 313 236 444q106 59 225 59q52 0 114 -20q142 -46 218 -174v168zM852 488q0 140 -82 236q-87 100 -225 100q-168 0 -262 -156q-47 -78 -47 -184q0 -214 154 -311
q70 -44 143 -44q150 0 237 107q82 99 82 252zM361 1415l168 88l256 -339l-88 -56z" />
    <glyph glyph-name="aacute" unicode="&#xe1;" horiz-adv-x="1141" 
d="M844 961h184v-961h-184v156q-134 -189 -332 -189q-105 0 -187 39q-135 64 -207 197q-67 124 -67 281q0 313 236 444q106 59 225 59q52 0 114 -20q142 -46 218 -174v168zM852 488q0 140 -82 236q-87 100 -225 100q-168 0 -262 -156q-47 -78 -47 -184q0 -214 154 -311
q70 -44 143 -44q150 0 237 107q82 99 82 252zM613 1503l172 -88l-340 -307l-88 56z" />
    <glyph glyph-name="acircumflex" unicode="&#xe2;" horiz-adv-x="1141" 
d="M844 961h184v-961h-184v156q-134 -189 -332 -189q-105 0 -187 39q-135 64 -207 197q-67 124 -67 281q0 313 236 444q106 59 225 59q52 0 114 -20q142 -46 218 -174v168zM852 488q0 140 -82 236q-87 100 -225 100q-168 0 -262 -156q-47 -78 -47 -184q0 -214 154 -311
q70 -44 143 -44q150 0 237 107q82 99 82 252zM568 1503l329 -294l-121 -97l-208 197l-207 -197l-121 97z" />
    <glyph glyph-name="atilde" unicode="&#xe3;" horiz-adv-x="1141" 
d="M844 961h184v-961h-184v156q-134 -189 -332 -189q-105 0 -187 39q-135 64 -207 197q-67 124 -67 281q0 313 236 444q106 59 225 59q52 0 114 -20q142 -46 218 -174v168zM852 488q0 140 -82 236q-87 100 -225 100q-168 0 -262 -156q-47 -78 -47 -184q0 -214 154 -311
q70 -44 143 -44q150 0 237 107q82 99 82 252zM869 1411l96 -80q-34 -71 -99 -118q-70 -49 -145 -49q-51 7 -77 18l-106 44q-77 32 -118 42h-20q-75 0 -123 -92l-97 80q92 164 228 164q48 0 114 -27q18 -10 46 -23l78 -37q18 -9 63 -16q13 0 18 -4q84 0 142 98z" />
    <glyph glyph-name="adieresis" unicode="&#xe4;" horiz-adv-x="1141" 
d="M844 961h184v-961h-184v156q-134 -189 -332 -189q-105 0 -187 39q-135 64 -207 197q-67 124 -67 281q0 313 236 444q106 59 225 59q52 0 114 -20q142 -46 218 -174v168zM852 488q0 140 -82 236q-87 100 -225 100q-168 0 -262 -156q-47 -78 -47 -184q0 -214 154 -311
q70 -44 143 -44q150 0 237 107q82 99 82 252zM357 1424q51 0 86.5 -36t35.5 -87q0 -52 -35 -88.5t-87 -36.5t-88.5 36.5t-36.5 88.5q0 49 38 86t87 37zM789 1424q49 0 86 -37t37 -86q0 -52 -35.5 -88.5t-87.5 -36.5t-88.5 36.5t-36.5 88.5q0 49 38 86t87 37z" />
    <glyph glyph-name="aring" unicode="&#xe5;" horiz-adv-x="1141" 
d="M844 961h184v-961h-184v156q-134 -189 -332 -189q-105 0 -187 39q-135 64 -207 197q-67 124 -67 281q0 313 236 444q106 59 225 59q52 0 114 -20q142 -46 218 -174v168zM852 488q0 140 -82 236q-87 100 -225 100q-168 0 -262 -156q-47 -78 -47 -184q0 -214 154 -311
q70 -44 143 -44q150 0 237 107q82 99 82 252zM572 1503q74 0 129 -54t55 -128q0 -78 -53.5 -133t-130.5 -55q-79 0 -133 54.5t-54 133.5q0 103 94 157q43 25 93 25zM572 1411q-40 0 -68.5 -25.5t-28.5 -64.5t29 -67.5t68 -28.5q37 0 64.5 29.5t27.5 66.5t-27.5 63.5
t-64.5 26.5z" />
    <glyph glyph-name="ae" unicode="&#xe6;" horiz-adv-x="1653" 
d="M193 961q117 22 256 22q278 0 360 -155q126 159 359 159q258 0 382 -203q74 -121 74 -335h-735q0 -139 84.5 -228.5t222.5 -89.5q168 0 273 189l155 -92q-155 -261 -436 -261q-221 0 -377 177q-127 -177 -366 -177q-223 0 -340 143q-58 71 -58 163q4 11 4 20q0 84 59 167
q100 140 306 140q185 0 293 -84l2 41q9 182 -115 244q-69 27 -172 27q-106 0 -231 -31v164zM701 293q0 76 -90 121q-73 35 -158 35q-81 0 -146 -38q-76 -44 -84 -118q0 -77 82 -124q70 -40 152 -40l6 1l5 1q130 0 200 78q33 37 33 84zM1444 588q-21 156 -149 214
q-57 26 -119 26q-102 0 -177.5 -69t-95.5 -171h541z" />
    <glyph glyph-name="ccedilla" unicode="&#xe7;" horiz-adv-x="903" 
d="M469 -37l144 -60l-217 -276l-107 57zM832 264v-235q-116 -58 -260 -58q-139 0 -257 62q-121 64 -192.5 179.5t-71.5 256.5t69 259.5t192 187.5q120 67 260 67q149 0 260 -59v-240q-110 131 -283 131q-126 0 -219.5 -100t-93.5 -227q0 -195 146 -295q77 -53 173 -53
q90 0 153 30q56 26 124 94z" />
    <glyph glyph-name="egrave" unicode="&#xe8;" horiz-adv-x="1000" 
d="M811 320l158 -92q-158 -261 -453 -261q-210 0 -339 152q-126 148 -126 397q0 88 38 185q70 179 235 249q87 37 192 37q302 0 406 -254q49 -119 45 -227l-2 -57h-725q0 -136 79 -226q84 -94 218 -94q177 0 274 191zM785 588q-15 106 -81 171q-70 69 -175 69
q-112 0 -187 -64.5t-94 -175.5h537zM293 1415l168 88l256 -339l-88 -56z" />
    <glyph glyph-name="eacute" unicode="&#xe9;" horiz-adv-x="1000" 
d="M811 320l158 -92q-158 -261 -453 -261q-210 0 -339 152q-126 148 -126 397q0 88 38 185q70 179 235 249q87 37 192 37q302 0 406 -254q49 -119 45 -227l-2 -57h-725q0 -136 79 -226q84 -94 218 -94q177 0 274 191zM785 588q-15 106 -81 171q-70 69 -175 69
q-112 0 -187 -64.5t-94 -175.5h537zM545 1503l172 -88l-340 -307l-88 56z" />
    <glyph glyph-name="ecircumflex" unicode="&#xea;" horiz-adv-x="1000" 
d="M811 320l158 -92q-158 -261 -453 -261q-210 0 -339 152q-126 148 -126 397q0 88 38 185q70 179 235 249q87 37 192 37q302 0 406 -254q49 -119 45 -227l-2 -57h-725q0 -136 79 -226q84 -94 218 -94q177 0 274 191zM785 588q-15 106 -81 171q-70 69 -175 69
q-112 0 -187 -64.5t-94 -175.5h537zM500 1503l328 -294l-119 -97l-209 197l-207 -197l-121 97z" />
    <glyph glyph-name="edieresis" unicode="&#xeb;" horiz-adv-x="1000" 
d="M811 320l158 -92q-158 -261 -453 -261q-210 0 -339 152q-126 148 -126 397q0 88 38 185q70 179 235 249q87 37 192 37q302 0 406 -254q49 -119 45 -227l-2 -57h-725q0 -136 79 -226q84 -94 218 -94q177 0 274 191zM785 588q-15 106 -81 171q-70 69 -175 69
q-112 0 -187 -64.5t-94 -175.5h537zM281 1424q49 0 86 -37t37 -86q0 -52 -35.5 -88.5t-87.5 -36.5t-88.5 36.5t-36.5 88.5q0 49 38 86t87 37zM713 1424q51 0 87 -36t36 -87q0 -53 -35 -89t-88 -36q-52 0 -88.5 36.5t-36.5 88.5q0 50 37.5 86.5t87.5 36.5z" />
    <glyph glyph-name="igrave" unicode="&#xec;" horiz-adv-x="520" 
d="M168 961h185v-961h-185v961zM47 1415l168 88l256 -339l-86 -56z" />
    <glyph glyph-name="iacute" unicode="&#xed;" horiz-adv-x="520" 
d="M168 961h185v-961h-185v961zM299 1503l172 -88l-340 -307l-88 56z" />
    <glyph glyph-name="icircumflex" unicode="&#xee;" horiz-adv-x="520" 
d="M168 961h185v-961h-185v961zM260 1503l328 -294l-119 -97l-209 197l-209 -197l-119 97z" />
    <glyph glyph-name="idieresis" unicode="&#xef;" horiz-adv-x="520" 
d="M168 961h185v-961h-185v961zM43 1424q51 0 88 -36t37 -87q0 -53 -36 -89t-89 -36q-51 0 -87 37t-36 88q0 49 37 86t86 37zM475 1424q51 0 88 -36t37 -87q0 -54 -35.5 -89.5t-89.5 -35.5q-52 0 -87 36.5t-35 88.5q0 49 36.5 86t85.5 37z" />
    <glyph glyph-name="eth" unicode="&#xf0;" horiz-adv-x="1137" 
d="M840 789v172h184v-961q0 -422 -244 -512q-100 -37 -217 -37q-287 0 -408 207q-58 99 -58 225h184q0 -268 299 -268q260 0 260 317v224l-41 -62q-51 -77 -148 -108q-59 -19 -151 -19q-274 0 -392 255q-57 123 -57 278q0 182 115 327q127 160 330 160q222 0 344 -198z
M852 488q0 215 -166 300q-70 36 -137 36q-193 0 -275 -169q-38 -78 -38 -163q0 -119 50 -210q56 -102 161 -137q42 -14 90 -14q191 0 275 168q40 80 40 189zM763 1474h147q-41 -190 -215 -256q-82 -31 -184 -31q-101 0 -203 90q-90 80 -114 197h149q47 -141 186 -156
q180 0 234 156z" />
    <glyph glyph-name="ntilde" unicode="&#xf1;" horiz-adv-x="1071" 
d="M129 961h183v-137q106 163 297 163q335 0 335 -411v-576h-184v580q0 123 -43 179q-49 65 -168 65q-237 0 -237 -299v-525h-183v961zM832 1411l96 -80q-30 -71 -99 -119t-145 -48q-46 6 -78 19l-106 43q-87 35 -115 42h-20q-74 0 -125 -92l-96 80q93 164 229 164
q59 0 156 -48l77 -38q18 -9 66 -17q12 0 20 -4q85 0 140 98z" />
    <glyph glyph-name="ograve" unicode="&#xf2;" horiz-adv-x="1104" 
d="M553 811q-188 0 -285 -167q-45 -78 -45 -169q0 -190 165 -286q77 -45 165 -45q135 0 231.5 97.5t96.5 233.5q0 192 -164 291q-74 45 -164 45zM553 987q138 0 255.5 -67t187 -186t69.5 -259q0 -136 -68.5 -253t-186.5 -186t-257 -69q-136 0 -255 68.5t-188 186t-69 253.5
q0 139 68 256.5t189 187.5q118 68 255 68zM344 1415l168 88l256 -339l-88 -56z" />
    <glyph glyph-name="oacute" unicode="&#xf3;" horiz-adv-x="1104" 
d="M553 811q-188 0 -285 -167q-45 -78 -45 -169q0 -190 165 -286q77 -45 165 -45q135 0 231.5 97.5t96.5 233.5q0 192 -164 291q-74 45 -164 45zM553 987q138 0 255.5 -67t187 -186t69.5 -259q0 -136 -68.5 -253t-186.5 -186t-257 -69q-136 0 -255 68.5t-188 186t-69 253.5
q0 139 68 256.5t189 187.5q118 68 255 68zM596 1499l172 -88l-340 -307l-88 55z" />
    <glyph glyph-name="ocircumflex" unicode="&#xf4;" horiz-adv-x="1104" 
d="M553 811q-188 0 -285 -167q-45 -78 -45 -169q0 -190 165 -286q77 -45 165 -45q135 0 231.5 97.5t96.5 233.5q0 192 -164 291q-74 45 -164 45zM553 987q138 0 255.5 -67t187 -186t69.5 -259q0 -136 -68.5 -253t-186.5 -186t-257 -69q-136 0 -255 68.5t-188 186t-69 253.5
q0 139 68 256.5t189 187.5q118 68 255 68zM553 1503l328 -294l-121 -97l-207 197l-209 -197l-121 97z" />
    <glyph glyph-name="otilde" unicode="&#xf5;" horiz-adv-x="1104" 
d="M553 811q-188 0 -285 -167q-45 -78 -45 -169q0 -190 165 -286q77 -45 165 -45q135 0 231.5 97.5t96.5 233.5q0 192 -164 291q-74 45 -164 45zM553 987q138 0 255.5 -67t187 -186t69.5 -259q0 -136 -68.5 -253t-186.5 -186t-257 -69q-136 0 -255 68.5t-188 186t-69 253.5
q0 139 68 256.5t189 187.5q118 68 255 68zM852 1411l96 -80q-32 -71 -100 -119t-143 -48q-48 6 -77 18l-107 44q-81 33 -117 42h-19q-74 0 -125 -92l-96 80q92 164 227 164q54 0 114 -27l47 -23l77 -37q19 -9 63 -16q13 0 21 -4q83 0 139 98z" />
    <glyph glyph-name="odieresis" unicode="&#xf6;" horiz-adv-x="1104" 
d="M553 811q-188 0 -285 -167q-45 -78 -45 -169q0 -190 165 -286q77 -45 165 -45q135 0 231.5 97.5t96.5 233.5q0 192 -164 291q-74 45 -164 45zM553 987q138 0 255.5 -67t187 -186t69.5 -259q0 -136 -68.5 -253t-186.5 -186t-257 -69q-136 0 -255 68.5t-188 186t-69 253.5
q0 139 68 256.5t189 187.5q118 68 255 68zM336 1424q51 0 88 -36t37 -87q0 -53 -36 -89t-89 -36q-51 0 -87 37t-36 88q0 49 37 86t86 37zM768 1424q51 0 88 -36t37 -87q0 -53 -36 -89t-89 -36q-51 0 -88 37t-37 88q0 49 38 86t87 37z" />
    <glyph glyph-name="divide" unicode="&#xf7;" 
 />
    <glyph glyph-name="oslash" unicode="&#xf8;" horiz-adv-x="1104" 
d="M1075 940l-131 -131q121 -155 121 -340q0 -212 -152 -359t-364 -147q-190 0 -330 121l-122 -127l-64 60l123 127q-119 157 -119 335q0 132 71.5 252t188 188t256.5 68q186 0 328 -118l131 135zM748 744q-88 65 -195 65q-187 0 -282 -171q-48 -87 -48 -167q0 -103 70 -194
zM809 676l-452 -467q77 -69 184 -69q88 0 168.5 48t126 125t45.5 166q0 107 -72 197z" />
    <glyph glyph-name="ugrave" unicode="&#xf9;" horiz-adv-x="1049" 
d="M748 961h184v-553q0 -267 -171 -390q-90 -65 -228 -65q-242 0 -357 209q-55 100 -55 229v570h182v-545q0 -116 56 -196q63 -91 174 -91q215 0 215 287v545zM316 1415l168 88l256 -339l-88 -56z" />
    <glyph glyph-name="uacute" unicode="&#xfa;" horiz-adv-x="1049" 
d="M748 961h184v-553q0 -267 -171 -390q-90 -65 -228 -65q-242 0 -357 209q-55 100 -55 229v570h182v-545q0 -116 56 -196q63 -91 174 -91q215 0 215 287v545zM568 1503l172 -88l-340 -307l-88 56z" />
    <glyph glyph-name="ucircumflex" unicode="&#xfb;" horiz-adv-x="1049" 
d="M748 961h184v-553q0 -267 -171 -390q-90 -65 -228 -65q-242 0 -357 209q-55 100 -55 229v570h182v-545q0 -116 56 -196q63 -91 174 -91q215 0 215 287v545zM525 1503l327 -294l-121 -97l-206 197l-209 -197l-119 97z" />
    <glyph glyph-name="udieresis" unicode="&#xfc;" horiz-adv-x="1049" 
d="M748 957h184v-553q0 -268 -171 -391q-89 -64 -228 -64q-243 0 -357 208q-55 100 -55 230v570h182v-545q0 -116 56 -196q63 -91 174 -91q215 0 215 287v545zM312 1420q51 0 87.5 -36t36.5 -87q0 -54 -35 -89.5t-89 -35.5q-52 0 -87.5 36.5t-35.5 88.5q0 49 37 86t86 37z
M744 1420q50 0 87.5 -36.5t37.5 -86.5q0 -52 -36.5 -88.5t-88.5 -36.5t-87.5 36.5t-35.5 88.5q0 49 37 86t86 37z" />
    <glyph glyph-name="yacute" unicode="&#xfd;" horiz-adv-x="520" 
d="M168 961h185v-961h-185v961zM260 1528q54 0 90.5 -38.5t36.5 -92.5q0 -53 -39 -89t-92 -36q-55 0 -90 38.5t-35 94.5q0 50 39.5 86.5t89.5 36.5z" />
    <glyph glyph-name="thorn" unicode="&#xfe;" horiz-adv-x="789" 
d="M512 740q-42 84 -125 84q-43 0 -70.5 -28t-27.5 -71q0 -57 86 -99l161 -79q199 -98 199 -270q0 -168 -157 -265q-73 -45 -158 -45q-262 0 -348 213l160 76q54 -127 172 -127q51 0 92.5 32.5t52.5 82.5q0 74 -74 128q-31 23 -72 44l-71 37q-215 112 -215 260q0 62 36 129
q78 145 247 145q171 0 264 -168zM409 -62l122 -51l-180 -235l-92 49z" />
    <glyph glyph-name="ydieresis" unicode="&#xff;" horiz-adv-x="991" 
d="M412 164l-441 797h218l323 -613l299 613h209l-776 -1510h-207zM281 1424q49 0 86 -37t37 -86q0 -52 -35.5 -88.5t-87.5 -36.5t-88.5 36.5t-36.5 88.5q0 49 38 86t87 37zM713 1424q51 0 87 -36t36 -87q0 -53 -35 -89t-88 -36q-52 0 -88.5 36.5t-36.5 88.5q0 50 37.5 86.5
t87.5 36.5z" />
    <glyph glyph-name="Gbreve" unicode="&#x11e;" horiz-adv-x="1596" 
d="M944 781h613v-68q0 -314 -204 -529q-207 -219 -519 -219h-44q-10 2 -14 2q-160 0 -327 98q-140 82 -230 204q-178 242 -178 512q0 187 102 373q155 284 452 382q124 41 229 41q210 0 361.5 -69.5t291.5 -227.5l-141 -131q-191 252 -500 252q-152 0 -291 -82
q-134 -78 -220 -210q-93 -142 -93 -316l4 -12q0 -168 84 -317.5t227 -237.5q134 -82 264 -82q134 0 254.5 59.5t197.5 167.5q85 119 85 233h-404v177zM1056 2104h147q-41 -190 -215 -256q-82 -31 -184 -31q-101 0 -203 90q-90 80 -114 197h149q47 -141 186 -156
q180 0 234 156z" />
    <glyph glyph-name="gbreve" unicode="&#x11f;" horiz-adv-x="1137" 
d="M840 789v172h184v-961q0 -422 -244 -512q-100 -37 -217 -37q-287 0 -408 207q-58 99 -58 225h184q0 -268 299 -268q260 0 260 317v224l-41 -62q-51 -77 -148 -108q-59 -19 -151 -19q-274 0 -392 255q-57 123 -57 278q0 182 115 327q127 160 330 160q222 0 344 -198z
M852 488q0 215 -166 300q-70 36 -137 36q-193 0 -275 -169q-38 -78 -38 -163q0 -119 50 -210q56 -102 161 -137q42 -14 90 -14q191 0 275 168q40 80 40 189zM763 1474h147q-41 -190 -215 -256q-82 -31 -184 -31q-101 0 -203 90q-90 80 -114 197h149q47 -141 186 -156
q180 0 234 156z" />
    <glyph glyph-name="Idotaccent" unicode="&#x130;" horiz-adv-x="475" 
d="M140 1544h192v-1544h-192v1544zM247 2048q46 0 77 -33t31 -79t-33 -76t-79 -30t-76 33t-30 80q0 42 34 73.5t76 31.5z" />
    <glyph glyph-name="dotlessi" unicode="&#x131;" horiz-adv-x="520" 
d="M168 961h185v-961h-185v961z" />
    <glyph glyph-name="OE" unicode="&#x152;" horiz-adv-x="2341" 
d="M1473 1544h807v-176h-631v-432h614v-176h-614v-584h631v-176h-807v260q-227 -293 -617 -293q-335 0 -573 228q-242 232 -242 565q0 341 233.5 580t573.5 239q262 0 483 -164q98 -72 142 -147v276zM1465 760q0 173 -74 317q-78 152 -220.5 238t-318.5 86
q-271 0 -445.5 -184.5t-174.5 -456.5q0 -232 171 -417q180 -195 445 -195q279 0 454 200q163 187 163 412z" />
    <glyph glyph-name="oe" unicode="&#x153;" horiz-adv-x="1835" 
d="M1620 588q-30 240 -297 240q-94 -10 -159 -79q-62 -65 -80 -161h536zM881 471q0 187 -154 291q-73 49 -168 49q-135 0 -232 -89q-99 -92 -99 -226q0 -184 136 -288q67 -51 156 -60q150 0 252 85q109 91 109 238zM1649 320l160 -92q-80 -155 -262 -227q-86 -34 -175 -34
q-280 0 -407 213q-91 -140 -266 -193q-79 -24 -146 -24q-277 0 -433 240q-79 121 -79 246q0 256 170 408q146 130 314 130q129 0 247.5 -57t192.5 -158q141 215 407 215q294 0 395 -274q42 -114 42 -225v-39h-734q15 -137 84 -221q79 -97 209 -97q89 0 166.5 53t114.5 136z
" />
    <glyph glyph-name="Scedilla" unicode="&#x15e;" horiz-adv-x="1100" 
d="M836 1252q-87 149 -252 149q-146 0 -222 -114q-34 -51 -34 -99q0 -147 151 -205l176 -68q269 -104 341 -274q41 -97 41 -196q0 -146 -82 -262.5t-219 -174.5q-96 -41 -187 -41q-257 0 -399 207q-69 100 -82 226l192 41q0 -92 47 -163q86 -130 252 -130q111 0 191.5 73
t89.5 183l4 51q9 114 -82 185q-72 56 -216 118q-170 73 -224 105q-187 111 -187 329q0 147 121 262q132 125 336 125q260 0 395 -235zM576 -37l143 -60l-211 -276l-109 57z" />
    <glyph glyph-name="scedilla" unicode="&#x15f;" horiz-adv-x="789" 
d="M512 740q-42 84 -125 84q-43 0 -70.5 -28t-27.5 -71q0 -57 86 -99l161 -79q199 -98 199 -270q0 -168 -157 -265q-73 -45 -158 -45q-262 0 -348 213l160 76q54 -127 172 -127q51 0 92.5 32.5t52.5 82.5q0 74 -74 128q-31 23 -72 44l-71 37q-215 112 -215 260q0 62 36 129
q78 145 247 145q171 0 264 -168zM409 -62l122 -51l-180 -235l-92 49z" />
    <glyph glyph-name="florin" unicode="&#x192;" horiz-adv-x="1184" 
d="M508 897h-131l14 140h146l43 251q30 175 84 267q92 157 305 157q64 0 135 -12l-29 -176q-64 16 -98 16q-151 0 -192 -209l-58 -294h264l-18 -140h-268l-133 -729q-27 -147 -62 -225q-112 -248 -422 -248h-48q-8 2 -11 2l31 174l41 -2q228 -11 286 324z" />
    <glyph glyph-name="circumflex" unicode="&#x2c6;" horiz-adv-x="965" 
d="M479 1503l330 -294l-121 -97l-209 197l-206 -197l-121 97z" />
    <glyph glyph-name="caron" unicode="&#x2c7;" 
 />
    <glyph glyph-name="macron" unicode="&#x2c9;" 
 />
    <glyph glyph-name="breve" unicode="&#x2d8;" horiz-adv-x="1004" 
d="M713 1424h147q-41 -190 -215 -256q-82 -31 -184 -31q-101 0 -203 90q-90 80 -114 197h149q47 -141 186 -156q180 0 234 156z" />
    <glyph glyph-name="dotaccent" unicode="&#x2d9;" 
 />
    <glyph glyph-name="ring" unicode="&#x2da;" horiz-adv-x="735" 
d="M373 1503q75 0 128.5 -53.5t53.5 -128.5q0 -108 -90 -162q-43 -26 -92 -26q-79 0 -133.5 54.5t-54.5 133.5q0 76 55.5 129t132.5 53zM373 1411q-40 0 -68 -25t-28 -65t28 -68t68 -28q38 0 65 29t27 67q0 37 -27.5 63.5t-64.5 26.5z" />
    <glyph glyph-name="ogonek" unicode="&#x2db;" 
 />
    <glyph glyph-name="tilde" unicode="&#x2dc;" horiz-adv-x="1045" 
d="M819 1411l97 -80q-33 -72 -99 -118q-69 -49 -145 -49q-47 6 -79 19l-105 43q-78 32 -115 42h-20q-75 0 -125 -92l-97 80q95 164 230 164q55 0 156 -48l78 -37q23 -11 65 -18q12 0 20 -4q87 0 139 98z" />
    <glyph glyph-name="mu" unicode="&#xb5;" horiz-adv-x="1049" 
d="M748 961h184v-553q0 -199 -94 -315q-102 -126 -297 -126q-102 0 -238 89v-605h-182v1510h182v-545q0 -276 226 -276q219 0 219 276v545z" />
    <glyph glyph-name="mu" unicode="&#x3bc;" horiz-adv-x="1049" 
d="M748 961h184v-553q0 -199 -94 -315q-102 -126 -297 -126q-102 0 -238 89v-605h-182v1510h182v-545q0 -276 226 -276q219 0 219 276v545z" />
    <glyph glyph-name="endash" unicode="&#x2013;" horiz-adv-x="1024" 
d="M0 735h1024v-155h-1024v155z" />
    <glyph glyph-name="emdash" unicode="&#x2014;" horiz-adv-x="2048" 
d="M0 580v151h2048v-151h-2048z" />
    <glyph glyph-name="quoteleft" unicode="&#x2018;" horiz-adv-x="568" 
d="M396 1577l112 -45l-223 -563l-160 63z" />
    <glyph glyph-name="quoteright" unicode="&#x2019;" horiz-adv-x="568" 
d="M285 1579l160 -63l-273 -547l-116 47z" />
    <glyph glyph-name="quotesinglbase" unicode="&#x201a;" 
 />
    <glyph glyph-name="quotedblleft" unicode="&#x201c;" horiz-adv-x="899" 
d="M735 1577l113 -49l-223 -563l-160 67zM391 1577l117 -45l-223 -563l-160 63z" />
    <glyph glyph-name="quotedblright" unicode="&#x201d;" horiz-adv-x="899" 
d="M164 965l-117 47l230 565l159 -65zM504 965l-117 47l230 565l159 -65z" />
    <glyph glyph-name="quotedblbase" unicode="&#x201e;" horiz-adv-x="899" 
d="M215 -369l-110 49l223 564l160 -64zM559 -369l-114 49l223 564l160 -68z" />
    <glyph glyph-name="dagger" unicode="&#x2020;" horiz-adv-x="1184" 
d="M500 1217v563h184v-563h373v-176h-373v-1221h-184v1221h-371v176h371z" />
    <glyph glyph-name="daggerdbl" unicode="&#x2021;" horiz-adv-x="1184" 
d="M500 1288v492h184v-492h373v-176h-373v-247h373v-177h-373v-868h-184v868h-371v177h371v247h-371v176h371z" />
    <glyph glyph-name="bullet" unicode="&#x2022;" horiz-adv-x="592" 
d="M297 643q50 0 84.5 -34t34.5 -84q0 -48 -35.5 -84.5t-83.5 -36.5q-49 0 -85 36t-36 85q0 50 35.5 84t85.5 34z" />
    <glyph glyph-name="ellipsis" unicode="&#x2026;" horiz-adv-x="2048" 
d="M340 205q48 0 84.5 -35t36.5 -82q0 -49 -36 -85t-85 -36t-85 36t-36 85q0 47 36.5 82t84.5 35zM1024 205q48 0 84.5 -35t36.5 -82q0 -49 -36 -85t-85 -36t-82.5 36t-33.5 85q0 47 34.5 82t81.5 35zM1708 205q49 0 85 -34t36 -83q0 -50 -35.5 -85.5t-85.5 -35.5
q-49 0 -85 36t-36 85q0 47 36.5 82t84.5 35z" />
    <glyph glyph-name="perthousand" unicode="&#x2030;" horiz-adv-x="2271" 
d="M1141 1577l92 -53l-901 -1557l-96 54zM408 1577q205 0 311 -174q49 -81 49 -178q0 -202 -180 -304q-84 -48 -180 -48q-208 0 -315 177q-50 83 -50 175q0 203 185 306q84 46 180 46zM404 1456q-95 0 -165.5 -66t-70.5 -161q0 -97 69.5 -165t166.5 -68q139 0 208 116
q31 52 31 117q0 96 -71 161.5t-168 65.5zM1067 672q208 0 312 -177q49 -83 49 -175q0 -201 -181 -308q-83 -49 -180 -49q-206 0 -310 179q-48 83 -48 178q0 200 179 304q82 48 179 48zM1067 549q-98 0 -167 -65q-72 -67 -72 -164t72 -163q69 -65 167 -65q135 0 205 113
q33 53 33 115q0 131 -118 198q-55 31 -120 31zM1872 672q208 0 313 -176q48 -80 48 -176q0 -203 -180 -308q-84 -49 -181 -49q-206 0 -311 179q-49 83 -49 178q0 201 180 305q82 47 180 47zM1872 549q-134 0 -202 -113q-33 -55 -33 -116q0 -97 68.5 -162.5t166.5 -65.5
q137 0 204 113q32 54 32 115q0 98 -68.5 163.5t-167.5 65.5z" />
    <glyph glyph-name="guilsinglleft" unicode="&#x2039;" horiz-adv-x="688" 
d="M416 1149l117 -84l-305 -409l305 -392l-113 -84l-377 476z" />
    <glyph glyph-name="guilsinglright" unicode="&#x203a;" horiz-adv-x="688" 
d="M273 180l-117 84l305 392l-305 409l113 84l374 -493z" />
    <glyph glyph-name="trademark" unicode="&#x2122;" horiz-adv-x="1923" 
d="M68 1544h700v-129h-284v-731h-131v731h-285v129zM924 1544h217l248 -608l256 608h211v-860h-131v731l-297 -731h-80l-287 731h-4v-731h-133v860z" />
    <glyph glyph-name="minus" unicode="&#xad;" 
 />
    <glyph glyph-name="minus" unicode="&#x2212;" 
 />
    <glyph glyph-name="periodcentered" unicode="&#xb7;" horiz-adv-x="1184" 
d="M592 1159q228 0 338 -190q51 -88 51 -193q0 -224 -194 -336q-92 -53 -195 -53q-220 0 -334 195q-53 91 -53 194q0 221 194 332q89 51 193 51z" />
    <glyph glyph-name="periodcentered" unicode="&#x2219;" horiz-adv-x="1184" 
d="M592 1159q228 0 338 -190q51 -88 51 -193q0 -224 -194 -336q-92 -53 -195 -53q-220 0 -334 195q-53 91 -53 194q0 221 194 332q89 51 193 51z" />
    <glyph glyph-name="fi" unicode="&#xf001;" horiz-adv-x="1049" 
d="M164 789h-84v172h84v475q0 369 305 369q75 0 135 -25v-188q-71 41 -129 41q-127 0 -127 -232v-440h256v-172h-256v-789h-184v789zM793 1528q53 0 88 -39t35 -92q0 -52 -37.5 -88.5t-89.5 -36.5q-56 0 -92.5 38.5t-36.5 94.5q0 50 41 86.5t92 36.5zM697 961h184v-961h-184
v961z" />
    <glyph glyph-name="fl" unicode="&#xf002;" horiz-adv-x="1016" 
d="M164 789h-84v172h84v475q0 369 305 369q75 0 135 -25v-188q-71 41 -129 41q-127 0 -127 -232v-440h256v-172h-256v-789h-184v789zM701 1780h184v-1780h-184v1780z" />
    <glyph glyph-name="glyph227" horiz-adv-x="592" 
 />
    <glyph glyph-name="glyph228" horiz-adv-x="592" 
 />
    <glyph glyph-name="c277" unicode="&#x2cb;" 
 />
    <glyph glyph-name="c278" unicode="&#x2cc;" 
 />
    <glyph glyph-name="c274" unicode="&#x2c8;" horiz-adv-x="520" 
d="M168 961h185v-961h-185v961z" />
    <glyph glyph-name="c279" unicode="&#x2cd;" 
 />
    <glyph glyph-name="c276" unicode="&#x2ca;" 
 />
    <glyph glyph-name="c275" unicode="&#xaf;" 
 />
    <glyph glyph-name="nonbreakingspace" unicode="&#xa0;" horiz-adv-x="250" 
 />
    <glyph glyph-name="c280" unicode="&#x2ce;" 
 />
    <glyph glyph-name="c281" unicode="&#x2cf;" 
 />
    <glyph glyph-name="c282" unicode="&#x2d0;" 
 />
    <glyph glyph-name="c283" unicode="&#x2d1;" 
 />
    <glyph glyph-name="c284" unicode="&#x2d2;" 
 />
    <glyph glyph-name="c285" unicode="&#x2d3;" 
 />
    <glyph glyph-name="c286" unicode="&#x2d4;" 
 />
    <glyph glyph-name="c287" unicode="&#x2d5;" 
 />
    <glyph glyph-name="c288" unicode="&#x2d6;" 
 />
    <glyph glyph-name="c289" unicode="&#x2d7;" 
 />
    <glyph glyph-name="c290" unicode="&#x2015;" 
 />
    <glyph glyph-name="c291" unicode="&#x2016;" 
 />
    <glyph glyph-name="c292" unicode="&#x2017;" 
 />
    <glyph glyph-name="c293" unicode="&#x201b;" 
 />
    <glyph glyph-name="c294" unicode="&#x201f;" 
 />
    <glyph glyph-name="c295" unicode="&#x2023;" 
 />
    <glyph glyph-name="c296" unicode="&#x2024;" 
 />
    <glyph glyph-name="c297" unicode="&#x2025;" 
 />
    <glyph glyph-name="c298" unicode="&#x2027;" 
 />
    <glyph glyph-name="c299" unicode="&#x2028;" 
 />
    <glyph glyph-name="c300" unicode="&#x2029;" 
 />
    <glyph glyph-name="c301" unicode="&#x202a;" 
 />
    <glyph glyph-name="c302" unicode="&#x202b;" 
 />
    <glyph glyph-name="c303" unicode="&#x202c;" 
 />
    <glyph glyph-name="c304" unicode="&#x202d;" 
 />
    <glyph glyph-name="c305" unicode="&#x202e;" 
 />
    <glyph glyph-name="c306" unicode="&#x202f;" 
 />
    <glyph glyph-name="c307" unicode="&#x2031;" 
 />
    <glyph glyph-name="c308" unicode="&#x2032;" 
 />
    <glyph glyph-name="c309" unicode="&#x2033;" 
 />
    <glyph glyph-name="c310" unicode="&#x2034;" 
 />
    <glyph glyph-name="c311" unicode="&#x2035;" 
 />
    <glyph glyph-name="c312" unicode="&#x2036;" 
 />
    <glyph glyph-name="c313" unicode="&#x2037;" 
 />
    <glyph glyph-name="c314" unicode="&#x2038;" 
 />
    </font>
</defs>
</svg>
