<svg xmlns="http://www.w3.org/2000/svg" width="210.253" height="136.106" viewBox="0 0 210.253 136.106"><g fill-rule="evenodd" clip-rule="evenodd"><path d="M32.172 22.961c1.544-6.062 2.917-11.708 4.442-17.312.643-2.364 1.145-5.001 4.239-5.561 3.072-.555 4.454 1.596 5.917 3.673 7.762 11.024 14.818 22.475 20.505 34.712.958 2.062 1.669 3.329 4.263 2.801 1.814-.369 3.494.733 5.151 1.543 2.838 1.387 5.875 2.082 9.238 2.338-.683-3.951-1.642-7.609-1.888-11.314-.56-8.432 4.511-12.007 12.38-8.963 4.688 1.813 8.94 4.467 12.851 7.546 2.478 1.95 4.08 2.06 6.717.015 9.892-7.665 20.459-14.601 33.225-15.704 7.002-.605 12.512-3.414 18.18-6.82 4.272-2.566 8.83-4.597 13.903-5.21 9.304-1.127 15.923 3.452 17.976 12.58.327 1.457.652 2.941.726 4.426.226 4.584 1.494 8.444 4.921 11.947 3.491 3.57 3.621 8.85 4.188 13.604 1.684 14.13 1.66 28.408-1.041 42.28-4.462 22.923-20.846 34.48-42.079 40.42-7.909 2.213-16.107 2.438-24.245 2.712-23.938.805-47.766 3.951-71.768 3.358-12.561-.31-24.904-1.656-36.168-7.88-9.741-5.381-16.323-13.163-19.569-24.049-1.491-5-4.747-9.455-7.034-14.238-6.176-12.916-9.187-26.36-5.768-40.6 2.415-10.058 8.975-17.661 15.729-25.07.785-.861 1.665-1.635 2.459-2.487 6.221-6.681 7.779-6.566 12.55 1.253z"/><path fill="#FEDD17" d="M75.135 101.928c-4.446.129-10.212-.819-12.05 3.804-2.015 5.069 3.289 8.147 6.678 11.126 5.738 5.041 12.666 8.268 19.389 12.007-17.726 1.373-35.447 2.398-51.859-6.045-7.965-4.098-14.515-9.982-16.15-19.668-.231-1.368-1.473-2.568-2.254-3.841-6.032-9.832-11-20.023-12.722-31.659-1.708-11.537.788-21.764 7.921-30.934 3.463-4.452 7.071-8.76 11.867-13.045 4.896 12.189 9.709 23.92 14.288 35.741 1.279 3.302.673 6.802-.91 9.98 1.907 1.09 2.491-.237 2.854-1.16.852-2.166 1.284-4.378.854-6.815-1.503-8.533-.806-9.562 7.928-11.744 2.728-.683 5.559-1.156 8.362-1.281 3.455-.154 7.67-1.881 8.639 4.135.269 1.667 3.083 2.82 4.45 4.443 1.564 1.857 1.2 3.201-1.464 3.688-2.826.515-5.633.334-8.459.244-1.903-.062-3.673.241-4.539 2.312-.682 1.631-.124 3.022 1.037 4.054 1.561 1.387 3.336 1.118 5.095.168 3.071-1.658 6.224-3.134 9.892-4.062.492 2.463-.468 4.518-1.232 6.654-.746 2.086-.248 3.951 1.726 5.211 1.604 1.023 3.231.8 4.667-.268 1.933-1.439 1.762-3.439 1.062-5.428-2.918-8.291-2.952-8.501 5.785-9.402 4.064-.419 6.208-1.88 5.911-5.871 3.795-1.446 6.854 4.396 10.698.659 8.574 7.749 16.669 15.71 16.275 28.636-.096 3.118.654 6.281 1.289 9.364 1.451 7.053 5.742 8.688 11.496 4.195 5.005-3.907 9.093-8.651 12.115-14.37 4.752-8.99 7.473-18.861 12.347-27.777 1.326-2.425 2.233-5.307 5.513-5.95 4.004.46 6.884-2.099 10.021-3.844 5.804-3.229 11.376-6.925 18.003-8.359 5.699-1.234 8.484.521 9.795 6.152 2.631 11.312 2.166 22.819 2.2 34.302.015 5.058 1.157 9.979-.61 15.159-6.202 18.187-20.093 26.941-37.507 31.597-7.942 2.124-16.155 1.958-24.283 2.475-10.625.675-21.27 1.162-31.861 2.188-6.652.645-12.755-.041-18.783-3.157-7.562-3.909-15.212-7.615-21.09-13.966-3.92-4.234-3.345-6.027 2.343-6.977 8.762-1.463 17.595-.718 26.401-.263 1.424.073 2.881.712 4.749-1.441-6.454-1.066-12.18-1.8-18.05-1.015-1.877-.919-.698-1.987.106-2.544 3.569-2.47 3.212-5.722 2.341-9.326-1.489-6.162-1.114-6.568 5.435-7.388 2.649-.331 5.26-.871 7.613-2.15 1.728-.938 3.462-2.056 2.502-5.557-2.956 6.341-8.306 7.099-13.73 7.741-2.579.306-3.885 1.427-2.989 4.331 1.29 4.176 2.841 8.571-3.095 10.723-.097 4.123-3.323 3.787-6.01 4.218z"/><path fill="#FEFEFE" d="M161.634 49.029c-5.092 5.725-7.562 12.81-10.346 19.751-3.529 8.801-6.975 17.665-13.625 24.759-2.521 2.688-5.219 5.159-8.588 6.737-4.568 2.141-7.805.84-9.414-3.896-1.513-4.452-1.859-9.163-1.966-13.786-.183-8.02-3.392-14.446-9.092-19.816-2.435-2.294-4.614-4.763-6.004-7.846 5.026-9.165 13.216-15.104 21.431-21.018 8.873-6.387 18.938-9.963 29.676-10.492 10.364-.511 19.791 3.364 27.928 9.811 2.219 1.758-.441 2.212-1.523 2.8-6.665 3.617-13.098 7.553-18.477 12.996z"/><path fill="#FEDD17" d="M63.79 44.813c-8.384.007-15.787.776-22.355 4.973-1.237.79-2.076.817-2.616-.627-1.604-4.286-4.323-8.203-3.355-13.25 1.78-9.274 3.781-18.484 6.667-28.51 8.715 11.882 15.729 23.859 21.659 37.414z"/><path fill="#FCDC17" d="M164.694 21.359c6.102-4.205 11.799-6.991 18.193-8.076 3.306-.562 5.863.939 7.064 4.16 1.514 4.063 1.756 8.399 2.403 12.643.116.757.305 1.807-.913 1.879-2.315.138-4.504 1.604-6.934-.609-5.336-4.867-11.822-7.804-19.813-9.997zM89.634 34.359c-.005-4.947 1.184-5.815 5.115-4.053 5.001 2.241 9.439 5.438 13.908 8.582 1.8 1.268 1.353 2.04.071 3.338-2.439 2.47-4.719 5.1-7.012 7.709-2.375 2.702-5.69 2.548-7.429-.707-2.586-4.843-4.133-10.068-4.653-14.869z"/><path fill="#060501" d="M75.135 101.928l4.376-.753c-.867-2.546-2.626-5.562 2.481-5.229 1.854.121 2.294-.969 2.28-2.481-.008-.828-.123-1.655-.167-2.483-.158-2.911-3.416-6.19-1.239-8.315 1.744-1.703 5.676-.993 8.514-1.791 3.155-.887 7.281-.802 7.282-5.9 0-1.134 1.345-1.916 2.664-1.598 1.233.298 1.992 1.192 2.017 2.524.048 2.602-1.28 4.341-3.447 5.645-2.815 1.694-6 2.306-9.094 2.268-4.604-.058-6.325.938-4.26 5.813 1.943 4.587 1.958 9.058-3.793 11.344-.045.018.132.594.208.909l-7.822.047z"/><path fill="#F6D616" d="M77.511 49.888l8.141 2.085c-1.49 2.75-3.796 3.983-5.929 5.43-3.199 2.168-3.358.045-3.376-2.332-.082-1.833-1.67-4.005 1.164-5.183z"/><path fill="#514707" d="M77.511 49.888c-2.121 1.338-.421 3.535-1.165 5.183-.345-1.893-2.868-4.275 1.165-5.183z"/><path fill="#020200" d="M51.607 90.9c3.502-1.761 5.71-3.975 7.521-6.565 1.297-1.856 2.875-2.747 5.073-2 1.775.604 2.62 2.005 2.568 3.851-.064 2.34-1.439 3.592-3.641 4.062-.161.034-.311.116-.467.174-10.996 4.058-11.065 4.077-7.876 15.188.593 2.068.348 3.605-1.176 4.886-1.264 1.062-2.893 1.016-4.219.226-1.805-1.077-2.032-2.936-1.583-4.846.679-2.892 2.471-6.959.438-8.429-2.089-1.509-5.102 1.951-7.72 3.214-.893.431-1.698 1.086-2.624 1.399-2.451.829-4.418.051-5.083-2.471-.683-2.59.721-4.251 3.324-4.433 3.146-.22 6.269-.298 9.347-1.192 2.632-.766 3.402-1.943 2.377-4.671-.882-2.347-1.629-4.682-3.312-6.598-1.355-1.542-1.605-3.255-.577-5.04.859-1.49 2.307-1.778 3.892-1.6 2.365.268 2.877 2.215 3.081 3.967.399 3.426.44 6.893.657 10.878z"/></g></svg>