<svg xmlns="http://www.w3.org/2000/svg" width="502" height="502" viewBox="0 0 502 502"><path fill="#fff" d="M251 0c-138.624 0-251 112.376-251 251 0 138.623 112.376 251 251 251 138.623 0 251-112.377 251-251 0-138.624-112.377-251-251-251zm62.141 208.723c-1.307 13.254-2.396 26.53-3.455 39.807-.219 2.743-1.354 3.572-4.066 3.529-9.492-.15-19.001.237-28.479-.185-4.652-.207-5.408 1.414-5.365 5.599.207 20.152.094 40.31.094 60.464-.001 20.321-.104 40.645.089 60.965.039 4.014-.837 5.461-5.153 5.384-14.986-.268-29.983-.251-44.97-.006-4.146.066-5.304-1.08-5.288-5.255.154-40.311-.015-80.62.224-120.93.031-5.172-1.386-6.617-6.363-6.194-5.292.447-10.655-.004-15.981.144-2.626.073-3.922-.493-3.893-3.512.126-13.324.12-26.651.004-39.976-.026-2.966 1.205-3.631 3.878-3.564 5.993.146 11.999-.126 17.985.111 3.242.129 4.362-.849 4.301-4.166-.17-9.157-.073-18.321.008-27.481.094-10.677 2.437-20.811 7.841-30.094 8.945-15.366 23.144-22.239 40.154-23.193 14.615-.819 29.306-.271 43.961-.459 2.812-.036 3.764.905 3.738 3.719-.108 12.825-.109 25.652 0 38.479.023 2.889-1.106 3.734-3.836 3.692-7.493-.118-14.99-.071-22.485-.024-10.623.065-14.151 3.557-14.207 14.021-.034 6.829.194 13.667-.086 20.484-.156 3.794.783 5.175 4.877 5.06 10.817-.304 21.651-.045 32.479-.142 2.732-.028 4.339.215 3.994 3.723z"/></svg>