<?xml version="1.0" encoding="utf-8"?>
<!-- Generator: Adobe Illustrator 16.0.4, SVG Export Plug-In . SVG Version: 6.00 Build 0)  -->
<!DOCTYPE svg PUBLIC "-//W3C//DTD SVG 1.1//EN" "http://www.w3.org/Graphics/SVG/1.1/DTD/svg11.dtd">
<svg version="1.1" id="Layer_1" xmlns="http://www.w3.org/2000/svg" xmlns:xlink="http://www.w3.org/1999/xlink" x="0px" y="0px"
	 width="1707.916px" height="397.91px" viewBox="0 0 1707.916 397.91" enable-background="new 0 0 1707.916 397.91"
	 xml:space="preserve">
<g>
	<path fill="#FFFFFF" d="M623.549,176.127c-5.338,5.396-10.637,10.47-15.578,15.87c-2.412,2.635-3.883,2.112-6.349,0.066
		c-21.785-18.071-52.083-21.191-77.191-8.131c-26.564,13.818-41.522,44.205-36.32,73.784c5.327,30.285,28.71,53.207,58.682,57.293
		c19.608,2.672,37.709-0.984,53.682-13.301c10.991-8.475,16.878-19.797,19.453-33.203c0.721-3.75,0.214-5.051-4.063-4.99
		c-17.992,0.255-35.991,0.002-53.985,0.193c-3.793,0.039-5.287-0.729-5.018-4.856c0.39-5.974,0.21-11.994,0.05-17.988
		c-0.071-2.651,0.45-3.817,3.491-3.807c27.659,0.11,55.32,0.096,82.98,0.017c2.538-0.008,3.36,0.791,3.688,3.314
		c7.46,57.605-29.454,94.975-74.37,100.689c-46.432,5.908-89.462-17.521-106.827-58.25c-21.877-51.313,5.122-110.093,59.492-127.771
		c33.772-10.981,65.372-5.956,93.412,16.821C620.438,173.232,621.985,174.73,623.549,176.127L623.549,176.127z"/>
	<path fill="#00EF76" d="M6.926,11.649c5.825-6.544,13.216-6.889,21.051-5.214c3.939,0.843,7.517,2.688,10.999,4.64
		c70.951,39.781,141.889,79.587,212.825,119.396c0.429,0.24,0.791,0.601,1.185,0.905c-1.678,4.946-6.476,7.215-9.455,11.045
		c-5.772,5.629-11.438,11.368-17.106,17.104c-10.295,10.861-21.926,20.34-32.243,31.179c-0.913,0.958-1.828,1.941-3.085,2.487
		c-0.466,0.106-0.926,0.083-1.376-0.081c-4.255-4.447-9.323-8.035-13.441-12.634c-5.276-5.397-10.646-10.7-16.011-16.01
		c-5.618-5.733-11.322-11.381-17.032-17.023c-7.001-7.006-13.853-14.161-21.149-20.868c-4.889-6.453-12.203-10.438-17.161-16.821
		c-6.813-6.198-13.105-12.928-19.723-19.325c-19.119-19.248-38.226-38.505-57.608-57.48c-5.692-5.572-11.731-10.817-17.318-16.519
		C8.911,15.035,7.123,13.884,6.926,11.649L6.926,11.649z"/>
	<path fill="#FE3A44" d="M190.268,192.848c0.28,0.023,0.559,0.006,0.835-0.053c2.564-0.139,3.736,1.948,5.211,3.409
		c10.402,10.301,20.711,20.697,31.102,31.01c5.611,5.759,11.341,11.398,17.049,17.062c2.677,3.421,6.907,5.515,8.47,9.888
		c-51.83,29.149-103.659,58.303-155.492,87.447c-19.408,10.912-38.82,21.816-58.241,32.705c-5.698,3.193-11.564,5.785-18.336,5.666
		c-5.429-0.098-10.083-1.754-13.795-5.799c0.027-2.512,2.04-3.734,3.542-5.189c37.33-36.174,73.622-73.399,110.88-109.634
		c21.26-20.676,42-41.862,63.268-62.521C186.383,195.262,187.616,193.046,190.268,192.848L190.268,192.848z"/>
	<path fill="#FEFEFE" d="M1603.599,393.625c6.376-14.037,12.47-27.453,18.564-40.869c3.091-6.803,8.552-13.584,8.612-20.414
		s-5.227-13.73-8.259-20.561c-12.936-29.146-25.903-58.277-38.86-87.414l-1.113-2.484c9.704,0,18.911-0.02,28.118,0.012
		c2.597,0.009,2.454,2.455,3.081,3.959c9.775,23.453,19.458,46.945,29.174,70.425c0.625,1.509,1.358,2.974,2.411,5.267
		c1.677-4.014,3.09-7.274,4.411-10.572c8.708-21.737,17.462-43.456,26.013-65.256c1.147-2.926,2.467-4.021,5.675-3.926
		c8.64,0.252,17.289,0.086,26.49,0.086c-5.15,11.744-10.117,23.113-15.121,34.467c-19.491,44.229-39.033,88.434-58.414,132.709
		c-1.461,3.338-2.995,4.867-6.873,4.682C1619.859,393.367,1612.182,393.625,1603.599,393.625L1603.599,393.625z"/>
	<path fill="#FFFFFF" d="M1098.838,247.326c0,28.805-0.073,57.61,0.09,86.414c0.021,3.686-0.771,4.902-4.607,4.668
		c-5.973-0.365-11.997-0.354-17.972-0.008c-4.096,0.234-5.296-0.934-5.279-5.168c0.163-44.29,0.101-88.579,0.101-132.869
		c0-13.319,0.118-26.642-0.082-39.959c-0.051-3.383,1.015-4.27,4.235-4.16c6.485,0.22,12.99,0.243,19.476-0.009
		c3.312-0.129,4.131,0.915,4.115,4.178C1098.782,189.383,1098.838,218.355,1098.838,247.326L1098.838,247.326z"/>
	<path fill="#FFFFFF" d="M1429.627,247.531c0-28.814,0.091-57.629-0.104-86.442c-0.026-4.077,1.209-5.047,5.023-4.86
		c6.146,0.302,12.324,0.208,18.48,0.025c2.849-0.085,4.082,0.407,4.075,3.729c-0.104,58.295-0.099,116.589-0.01,174.884
		c0.004,2.973-0.986,3.58-3.705,3.504c-6.49-0.186-12.999-0.277-19.479,0.025c-3.569,0.166-4.379-0.973-4.361-4.424
		C1429.688,305.16,1429.627,276.343,1429.627,247.531L1429.627,247.531z M1022.701,66.286V42.35c0-12.164,0.083-24.33-0.062-36.492
		c-0.033-2.891,0.482-4.008,3.752-4.004c10.511,0.012,10.511-0.151,10.511,10.153c0,24.995-0.094,49.99,0.096,74.984
		c0.029,3.958-0.735,5.004-4.984,5.36c-7.112,0.596-10.858-2.073-14.475-8.094c-11.887-19.797-24.509-39.151-36.978-58.879
		c-1.294,1.414-0.66,2.942-0.66,4.278c-0.005,19.496-0.034,38.993,0.175,58.486c0.036,3.363-0.992,4.086-4.165,4.058
		c-10.062-0.089-10.062,0.045-10.062-10.052c0-25.161,0.105-50.324-0.105-75.483c-0.034-4.059,1.311-4.428,4.932-4.903
		c8.37-1.101,13.067,2.065,17.316,9.346c10.05,17.226,21.151,33.838,31.832,50.696C1020.576,62.997,1021.346,64.177,1022.701,66.286
		L1022.701,66.286z M530.323,42.692c5.828,0,11.707,0.474,17.47-0.141c5.222-0.557,5.609,2.349,5.892,6.029
		c1.526,19.864-10.506,37.499-29.655,43.425c-27.438,8.489-55.285-7.022-61.564-34.293c-4.427-19.222,3.228-38.664,19.592-49.766
		c15.65-10.618,37.511-10.584,53.157,0.082c8.183,5.576,7.697,11.078-1.273,15.678c-1.886,0.967-2.343-0.565-3.199-1.356
		c-10.189-9.405-25.166-11.383-37.479-4.905c-12.475,6.563-19.056,19.699-17.188,34.306c1.774,13.886,11.654,24.998,24.865,27.971
		c16.89,3.8,33.342-4.751,37.393-19.256c0.923-3.306,0.787-4.74-3.274-4.599c-8.148,0.283-16.316,0.003-24.476,0.132
		c-2.505,0.04-3.404-0.572-3.48-3.291c-0.279-10.02-0.398-10.016,9.732-10.016H530.323z M566.986,47.064
		c0-13.655,0.091-27.312-0.068-40.967c-0.036-3.149,0.651-4.272,4.061-4.23c15.652,0.189,31.311,0.177,46.963,0.006
		c3.186-0.035,3.842,0.978,3.844,3.963c0.004,9.895,0.129,9.895-9.854,9.895c-8.993,0-17.987,0.11-26.978-0.064
		c-2.852-0.055-3.694,0.795-3.589,3.622c0.213,5.654,0.241,11.33-0.006,16.981c-0.145,3.261,0.807,4.322,4.166,4.238
		c9.152-0.226,18.319,0.07,27.475-0.152c3.497-0.085,4.978,0.505,4.854,4.527c-0.273,8.97-0.028,8.978-9.22,8.978
		c-7.828,0-15.66,0.168-23.479-0.082c-3.17-0.101-3.924,0.895-3.796,3.9c0.239,5.651,0.292,11.333-0.014,16.979
		c-0.188,3.488,1.149,4.142,4.287,4.091c10.489-0.17,20.987,0.107,31.474-0.157c3.709-0.094,4.82,0.813,4.706,4.64
		c-0.267,8.924-0.046,8.93-8.835,8.93c-13.988,0-27.979-0.114-41.967,0.083c-3.38,0.047-4.133-1.018-4.094-4.212
		C567.082,74.377,566.986,60.72,566.986,47.064L566.986,47.064z M669.657,53.926c0,11.33-0.087,22.661,0.059,33.989
		c0.039,3.039-0.463,4.362-4.01,4.348c-10.552-0.044-10.553,0.138-10.553-10.259c0-20.66-0.089-41.321,0.086-61.979
		c0.03-3.494-0.835-4.57-4.365-4.377c-5.647,0.311-11.326,0.007-16.989,0.121c-2.206,0.045-3.168-0.396-3.316-2.943
		c-0.638-10.883-0.738-10.877,10.308-10.877c16.328,0,32.657,0.104,48.983-0.082c3.469-0.039,4.483,0.849,4.425,4.378
		c-0.157,9.483,0.02,9.486-9.276,9.486c-3.665,0-7.351,0.235-10.991-0.068c-3.415-0.284-4.536,0.645-4.452,4.277
		C669.822,31.263,669.657,42.597,669.657,53.926z"/>
	<path fill="#FFFFFF" d="M785.799,54.059c0-11.496-0.109-22.993,0.073-34.485c0.049-3.029-0.654-4.06-3.82-3.92
		c-5.985,0.264-11.994-0.011-17.989,0.12c-2.318,0.05-3.084-0.604-3.202-3.049c-0.525-10.779-0.618-10.775,9.902-10.775
		c16.66,0,33.321,0.089,49.979-0.075c3.258-0.032,4.183,0.83,4.15,4.122c-0.094,9.732,0.062,9.701-9.486,9.747
		c-4.975,0.023-11.692-1.734-14.458,0.785c-3.18,2.896-0.94,9.709-0.97,14.811c-0.104,18.825-0.13,37.652,0.039,56.477
		c0.031,3.394-0.664,4.517-4.289,4.444c-9.927-0.197-9.931-0.007-9.931-9.713C785.799,73.051,785.799,63.555,785.799,54.059
		L785.799,54.059z"/>
	<path fill="#FFFFFF" d="M735.207,46.865c0-13.475,0.097-26.951-0.069-40.424c-0.04-3.271,0.496-4.651,4.249-4.596
		c10.293,0.153,10.296-0.04,10.296,10.435c0,24.954-0.062,49.908,0.069,74.861c0.021,3.596-0.415,5.283-4.726,5.146
		c-9.812-0.313-9.819-0.05-9.819-9.987V46.865L735.207,46.865z"/>
	<path fill="#00DAFE" d="M176.998,179.596c0,0-0.001,0-0.001,0C176.997,179.597,176.997,179.596,176.998,179.596
		c-5.322-5.271-10.644-10.543-15.967-15.814h0c-5.416-5.931-11.068-11.623-17.09-16.94c0,0,0,0,0,0c0-0.001,0-0.001,0-0.002
		c-6.768-7.324-13.725-14.455-21.302-20.956c0,0-0.001,0-0.001,0c-4.668-6.693-12.038-10.67-17.072-16.995c0,0-0.001,0-0.001,0
		L86.069,89.776c0,0,0,0,0.001-0.001c-5.012-5.092-9.977-10.23-15.042-15.268c-21.219-21.104-42.3-42.349-64.102-62.858
		c-4.28,4.448-6.142,9.837-6.192,15.93c-0.001,0.002-0.001,0.004-0.002,0.006c0-0.002,0-0.004,0-0.006
		c-1.115,2.554-0.624,5.255-0.625,7.886C0.078,93.12,0.088,150.775,0.094,208.429c0.005,47.656,0.002,95.312,0.037,142.971
		c0.007,8.271,0.84,16.344,6.938,22.783c43.372-42.822,86.766-85.623,130.108-128.479c17.757-17.559,35.398-35.234,53.09-52.855
		C186.664,187.61,181.385,184.05,176.998,179.596z"/>
	<path fill="#FEBF00" d="M327.407,173.17c-2.667-1.732-5.942-2.449-8.385-4.642c-5.504-3.819-11.586-6.587-17.507-9.647
		c0,0,0-0.001,0-0.001c-6.786-4.652-14.022-8.509-21.392-12.127c0,0,0,0-0.001,0c-5.688-4.047-12.051-6.914-18.119-10.294
		c0,0,0,0,0,0c-3.006-1.694-6.011-3.389-9.017-5.082l-10.303,10.435c-5.985,5.357-11.704,10.982-17.088,16.944c0,0,0,0,0,0
		c0,0-0.001,0-0.001,0c-11.777,11.064-23.382,22.301-34.492,34.042c11.912,11.716,23.825,23.43,35.738,35.145
		c0-0.001,0-0.001,0-0.002l0,0.001c5.37,5.948,10.973,11.66,17.051,16.893c0,0,0,0.001,0,0.001c3.014,3.109,6.028,6.221,9.042,9.33
		c3.614-1.967,7.479-3.511,10.607-6.299l0,0c5.696-2.523,11.149-5.49,16.297-9.007c0,0,0,0,0.001,0
		c6.599-3.174,12.982-6.737,19.12-10.733c7.118-4.207,14.906-7.232,21.557-12.256c0.562-0.268,1.123-0.539,1.688-0.799
		c9.287-4.273,17.204-10.141,18.226-21.095C341.342,184.216,334.944,178.062,327.407,173.17z"/>
	<path fill="#FFFFFF" d="M1052.101,238.017c-0.018-5.249,2.334-12.281-1.044-15.242c-2.955-2.592-9.821-0.785-14.962-0.811
		c-9.716-0.049-9.717-0.014-10.316,10.361c-13.137-12.804-28.322-16.484-45.105-12.67c-32.63,7.414-53.146,38.477-47.688,71.475
		c4.234,25.619,26.159,47.178,51.921,50.516c15.441,2.002,29.299-1.805,40.873-13.951c0,5.779,0.37,10.734-0.065,15.617
		c-1.738,19.496-15.188,30.998-34.695,29.936c-13.021-0.711-22.065-7.564-28.182-18.631c-1.381-2.498-2.398-3.377-5.281-2
		c-5.383,2.574-10.892,4.988-16.553,6.846c-4.003,1.314-3.509,3.021-1.979,5.959c11.294,21.707,35.02,34.629,59.625,32.195
		c24.393-2.414,41.937-13.975,49.852-37.998c3.055-9.273,3.689-18.895,3.674-28.605
		C1052.114,300.015,1052.201,269.016,1052.101,238.017L1052.101,238.017z M1025.569,294.983
		c-5.054,14.522-18.326,23.579-32.796,22.763c-15.157-0.855-28.174-11.957-31.857-27.162c-0.826-3.41-1.292-6.857-1.156-9.562
		c0.074-22.764,15.775-39.006,36.61-38.122c13.682,0.581,22.838,8.313,28.213,20.459
		C1029.137,273.648,1029.255,284.389,1025.569,294.983L1025.569,294.983z M1411.826,195.871
		c-6.872-21.756-28.673-38.261-53.367-39.111c-21.961-0.758-43.964-0.252-65.945-0.539c-3.795-0.05-4.662,1.013-4.642,4.727
		c0.166,28.815,0.092,57.631,0.092,86.447c0,28.481,0.081,56.965-0.091,85.446c-0.023,4.113,0.547,5.998,5.292,5.588
		c5.787-0.5,11.66-0.336,17.477-0.043c3.798,0.191,5.111-0.76,5.063-4.871c-0.23-19.984-0.038-39.975-0.173-59.961
		c-0.021-3.176,0.709-4.396,4.084-4.189c4.812,0.293,9.658,0.151,14.486,0.059c11.299-0.217,22.652,0.849,33.856-1.563
		C1402.216,260.484,1421.99,228.05,1411.826,195.871L1411.826,195.871z M1356.438,243.9c-12.491,0.28-24.995-0.025-37.489,0.176
		c-3.124,0.049-3.438-1.209-3.399-3.795c0.132-9.162,0.052-18.328,0.052-27.494c0-9.164,0.107-18.332-0.063-27.494
		c-0.053-2.817,0.744-3.646,3.586-3.607c12.328,0.168,24.664-0.064,36.991,0.164c16.982,0.314,30.792,14.408,30.766,31.083
		C1386.854,229.314,1373.067,243.527,1356.438,243.9L1356.438,243.9z M1580.457,265.936c-0.52-20.126-10.294-34.965-29.025-42.776
		c-16.938-7.062-34.336-7.332-51.525-0.343c-9.693,3.94-17.294,10.411-22.615,19.528c-1.477,2.529-1.555,3.777,1.659,4.93
		c6.242,2.236,12.309,4.971,18.408,7.592c1.751,0.752,2.857,0.871,3.979-1.115c8.151-14.43,35.632-14.809,47.12-1.82
		c3.822,4.32,6.076,9.232,5.213,15.529c-1.123-0.496-1.872-0.832-2.626-1.156c-0.763-0.327-1.519-0.674-2.298-0.958
		c-20.479-7.479-40.396-6.286-58.826,5.505c-23.949,15.322-23.48,47.74,0.456,63.18c20.996,13.543,44.61,9.936,63.616-10.301
		c0,4.188,0.137,7.521-0.045,10.836c-0.138,2.479,0.429,3.576,3.229,3.496c6.824-0.193,13.66-0.15,20.488-0.016
		c2.423,0.047,3.095-0.771,3.083-3.146C1580.634,311.912,1581.051,288.912,1580.457,265.936z M1553.609,291.875
		c-3.784,18.988-25.811,30.973-43.643,23.598c-5.131-2.123-9.25-5.461-10.006-11.385c-0.803-6.301,1.629-11.43,6.742-15.121
		c6.9-4.98,14.889-6.131,25.476-6.164c5.28-0.11,12.429,1.645,19.315,4.867C1553.605,288.658,1554.036,289.731,1553.609,291.875
		L1553.609,291.875z M857.808,218.309c-35.72-0.063-63.098,26.909-63.034,62.104c0.062,34.871,27.418,61.658,62.948,61.641
		c35.345-0.016,62.931-27.107,62.941-61.812C920.674,245.5,893.144,218.375,857.808,218.309L857.808,218.309z M873.163,313.894
		c-12.52,6.393-24.837,5.094-36.193-3.086c-13.111-9.441-18.13-28.055-12.309-44.42c5.463-15.357,18.849-24.247,35.469-23.555
		c18.394,0.769,32.763,17.074,32.82,40.574C892.562,294.982,886.797,306.931,873.163,313.894L873.163,313.894z M720.123,218.309
		c-35.489,0.112-62.656,27.011-62.609,61.989c0.047,34.951,27.288,61.744,62.794,61.756c35.518,0.014,62.802-26.764,62.862-61.693
		C783.23,245.194,755.801,218.196,720.123,218.309L720.123,218.309z M720.58,317.791c-19.935,0.139-35.723-16.559-35.663-37.715
		c0.06-21.138,15.373-37.268,35.39-37.277c19.999-0.012,35.347,16.125,35.435,37.256
		C755.827,300.973,740.286,317.654,720.58,317.791z M1222.862,253.016c-14.616-31.556-48.818-43.679-79.038-28.082
		c-22.319,11.521-34.234,36.075-31.065,64.022c2.738,24.146,20.815,44.863,44.472,50.961c25.844,6.66,53.115-2.488,67.377-22.479
		c1.48-2.076,1.68-3.148-0.754-4.6c-4.568-2.719-9.185-5.479-13.291-8.822c-3.923-3.191-5.957-2.635-9.265,1.229
		c-16.626,19.422-46.169,16.123-57.055-6.305c1.68-0.709,3.343-1.432,5.02-2.117c22.427-9.187,44.86-18.355,67.277-27.564
		c3.671-1.508,9.603-2.516,10.312-4.967C1227.758,261.175,1224.587,256.742,1222.862,253.016L1222.862,253.016z M1187.251,258.666
		c-15.581,6.492-31.229,12.816-47.315,19.387c-2.26-23.285,21.86-41.951,43.135-33.891c1.692,0.642,3.342,1.506,4.847,2.514
		c3.049,2.041,6.898,4.418,6.671,8.053C1194.429,257.257,1189.885,257.569,1187.251,258.666z M906.18,0
		c-26.613-0.132-47.178,20.275-47.261,46.902c-0.083,26.751,20.166,47.158,46.85,47.218c26.656,0.06,47.047-20.321,47.049-47.027
		C952.817,20.774,932.373,0.129,906.18,0L906.18,0z M905.67,80.621c-18.479-0.14-32.121-14.412-32.101-33.58
		c0.021-19.309,13.536-33.262,32.243-33.288c18.714-0.026,32.258,13.87,32.346,33.186C938.245,66.316,924.312,80.763,905.67,80.621z
		"/>
</g>
</svg>
