<svg xmlns="http://www.w3.org/2000/svg" width="1707.916" height="397.909" viewBox="0 0 1707.916 397.909"><g fill-rule="evenodd" clip-rule="evenodd"><path fill="#fff" d="M623.549 176.127c-5.338 5.396-10.637 10.47-15.578 15.87-2.412 2.635-3.883 2.112-6.349.066-21.785-18.071-52.083-21.191-77.191-8.131-26.565 13.818-41.523 44.205-36.321 73.785 5.327 30.284 28.71 53.207 58.682 57.292 19.608 2.673 37.709-.985 53.682-13.3 10.991-8.475 16.877-19.798 19.453-33.204.72-3.749.214-5.051-4.064-4.99-17.992.255-35.991.002-53.985.193-3.793.04-5.287-.729-5.018-4.856.39-5.974.21-11.994.05-17.988-.071-2.651.45-3.818 3.491-3.807 27.66.111 55.321.096 82.981.016 2.538-.007 3.36.792 3.687 3.315 7.46 57.606-29.454 94.974-74.37 100.689-46.432 5.908-89.462-17.521-106.827-58.25-21.877-51.313 5.122-110.092 59.492-127.771 33.773-10.981 65.372-5.956 93.412 16.821 1.662 1.355 3.209 2.853 4.773 4.25z"/><path fill="#00EF76" d="M6.926 11.649c5.825-6.544 13.216-6.889 21.051-5.214 3.939.843 7.517 2.688 10.999 4.64 70.951 39.781 141.889 79.587 212.825 119.396.429.24.791.601 1.185.905-1.678 4.946-6.476 7.215-9.455 11.045-5.772 5.629-11.438 11.368-17.106 17.104-10.295 10.861-21.926 20.34-32.243 31.179-.913.958-1.828 1.941-3.085 2.487-.466.106-.926.083-1.376-.081-4.255-4.447-9.323-8.035-13.441-12.634-5.276-5.397-10.646-10.7-16.011-16.01-5.618-5.733-11.322-11.381-17.032-17.023-7.001-7.006-13.853-14.161-21.149-20.868-4.889-6.453-12.203-10.438-17.161-16.821-6.813-6.198-13.105-12.928-19.723-19.325-19.119-19.248-38.226-38.505-57.608-57.48-5.692-5.572-11.731-10.817-17.318-16.519-1.367-1.395-3.155-2.546-3.352-4.781z"/><path fill="#FE3A44" d="M190.268 192.848c.28.023.559.006.835-.053 2.564-.139 3.736 1.948 5.211 3.409 10.402 10.302 20.711 20.697 31.102 31.011 5.611 5.758 11.341 11.398 17.049 17.061 2.677 3.421 6.907 5.514 8.47 9.888-51.83 29.149-103.659 58.302-155.492 87.447-19.408 10.912-38.82 21.817-58.241 32.705-5.698 3.194-11.564 5.785-18.336 5.665-5.429-.097-10.083-1.753-13.795-5.797.027-2.512 2.04-3.735 3.542-5.191 37.33-36.173 73.622-73.399 110.88-109.633 21.26-20.676 42-41.862 63.268-62.521 1.622-1.577 2.855-3.793 5.507-3.991z"/><path fill="#FEFEFE" d="M1603.599 393.624c6.376-14.037 12.469-27.453 18.564-40.869 3.091-6.803 8.552-13.584 8.612-20.413.061-6.83-5.226-13.731-8.258-20.562-12.936-29.146-25.904-58.276-38.861-87.413l-1.113-2.485c9.704 0 18.911-.019 28.118.012 2.597.009 2.454 2.455 3.081 3.959 9.776 23.453 19.458 46.946 29.174 70.425.625 1.509 1.358 2.974 2.411 5.266 1.677-4.013 3.09-7.274 4.411-10.572 8.708-21.737 17.462-43.456 26.013-65.255 1.147-2.926 2.467-4.021 5.675-3.927 8.639.252 17.289.086 26.49.086-5.15 11.744-10.117 23.114-15.121 34.468-19.491 44.228-39.033 88.433-58.414 132.708-1.461 3.338-2.995 4.867-6.873 4.682-7.649-.367-15.326-.11-23.909-.11z"/><path fill="#00DFFE" d="M6.926 11.649c21.802 20.509 42.883 41.754 64.102 62.858 5.065 5.038 10.03 10.176 15.042 15.268-4.537 6.876-10.924 12.027-16.809 17.593-3.496 3.307-7.148 6.472-10.561 9.883-16.491 16.478-32.967 32.97-49.46 49.444-1.645 1.643-3.202 3.438-5.442 4.308-2.173.844-3.635.473-3.416-2.322.007-45.232-.003-90.449.019-135.665.001-1.812-.318-3.659.333-5.437.05-6.093 1.912-11.482 6.192-15.93z"/><path fill="#fff" d="M1098.838 247.326c0 28.805-.073 57.61.09 86.414.021 3.686-.771 4.902-4.608 4.667-5.972-.365-11.997-.352-17.971-.008-4.096.235-5.296-.933-5.28-5.168.163-44.289.101-88.578.101-132.868 0-13.319.118-26.642-.082-39.959-.051-3.383 1.015-4.27 4.235-4.16 6.486.22 12.991.243 19.476-.009 3.312-.129 4.131.915 4.115 4.178-.132 28.97-.076 57.942-.076 86.913z"/><path fill="#00C2FE" d="M.732 27.579c.056 23.629.118 47.256.168 70.885.051 24.129.092 48.258.137 72.388 1.24 1.512 1.395 3.331 1.396 5.165.009 10.924.192 21.85-.084 32.772.193 11.353.21 22.705-.01 34.058.214 14.253.243 28.506-.011 42.756.182 10.795.167 21.592.011 32.377-.489 10.578-.185 21.161-.233 31.889 2.629-.258 3.512-2.051 4.754-3.254 35.607-34.496 70.324-69.899 105.825-104.495 20.135-19.622 39.853-39.655 59.99-59.268 1.298-1.265 2.417-2.79 4.323-3.256 4.387 4.454 9.666 8.014 13.269 13.253-17.692 17.621-35.333 35.297-53.09 52.855-43.342 42.856-86.736 85.657-130.108 128.48-6.098-6.441-6.931-14.513-6.938-22.785-.035-47.657-.032-95.313-.037-142.97-.006-57.654-.016-115.309.013-172.964.001-2.631-.49-5.332.625-7.886z"/><path fill="#fff" d="M1429.627 247.531c0-28.814.091-57.629-.103-86.442-.027-4.077 1.208-5.047 5.023-4.86 6.147.302 12.324.208 18.481.025 2.848-.085 4.081.407 4.075 3.729-.105 58.295-.099 116.589-.01 174.884.004 2.973-.986 3.579-3.705 3.503-6.49-.184-12.999-.276-19.48.026-3.569.167-4.379-.973-4.361-4.423.141-28.814.08-57.629.08-86.442zM1022.701 66.286v-23.936c0-12.164.083-24.33-.062-36.492-.034-2.891.482-4.008 3.752-4.004 10.51.012 10.51-.151 10.51 10.153 0 24.995-.093 49.99.096 74.984.029 3.958-.735 5.004-4.984 5.36-7.112.596-10.859-2.073-14.475-8.094-11.887-19.797-24.509-39.151-36.977-58.879-1.294 1.414-.661 2.942-.661 4.278-.004 19.496-.034 38.993.175 58.486.036 3.363-.992 4.086-4.165 4.058-10.062-.089-10.062.045-10.062-10.052 0-25.161.105-50.324-.106-75.483-.034-4.059 1.311-4.428 4.932-4.903 8.37-1.101 13.067 2.065 17.316 9.346 10.05 17.226 21.152 33.838 31.832 50.696.754 1.193 1.524 2.373 2.879 4.482zM530.323 42.692c5.828 0 11.707.474 17.47-.141 5.222-.557 5.609 2.349 5.892 6.029 1.526 19.864-10.506 37.499-29.656 43.425-27.437 8.489-55.285-7.022-61.564-34.293-4.427-19.222 3.227-38.664 19.592-49.766 15.65-10.618 37.51-10.584 53.157.082 8.182 5.576 7.697 11.078-1.274 15.678-1.885.967-2.342-.565-3.199-1.356-10.189-9.405-25.166-11.383-37.478-4.905-12.475 6.563-19.056 19.699-17.188 34.306 1.775 13.886 11.654 24.998 24.865 27.971 16.89 3.8 33.342-4.751 37.393-19.256.923-3.306.787-4.74-3.274-4.599-8.149.283-16.317.003-24.476.132-2.505.04-3.404-.572-3.48-3.291-.28-10.02-.399-10.016 9.732-10.016h13.488zM566.986 47.064c0-13.655.091-27.312-.068-40.967-.036-3.149.651-4.272 4.061-4.23 15.652.189 31.31.177 46.962.006 3.186-.035 3.842.978 3.844 3.963.004 9.895.129 9.895-9.854 9.895-8.993 0-17.988.11-26.978-.064-2.851-.055-3.694.795-3.589 3.622.213 5.654.242 11.33-.006 16.981-.144 3.261.807 4.322 4.166 4.238 9.153-.226 18.32.07 27.475-.152 3.497-.085 4.978.505 4.854 4.527-.274 8.97-.029 8.978-9.22 8.978-7.828 0-15.66.168-23.479-.082-3.17-.101-3.924.895-3.796 3.9.24 5.651.292 11.333-.013 16.979-.188 3.488 1.149 4.142 4.287 4.091 10.489-.17 20.987.107 31.473-.157 3.709-.094 4.821.813 4.707 4.64-.267 8.924-.046 8.93-8.835 8.93-13.989 0-27.979-.114-41.967.083-3.38.047-4.133-1.018-4.094-4.212.166-13.656.07-27.313.07-40.969zM669.657 53.926c0 11.33-.087 22.661.059 33.989.039 3.039-.463 4.362-4.01 4.348-10.552-.044-10.553.138-10.553-10.259 0-20.66-.089-41.321.086-61.979.03-3.494-.835-4.57-4.365-4.377-5.647.311-11.326.007-16.989.121-2.206.045-3.168-.396-3.317-2.943-.637-10.883-.738-10.877 10.308-10.877 16.328 0 32.657.104 48.983-.082 3.469-.039 4.484.849 4.425 4.378-.157 9.483.02 9.486-9.276 9.486-3.665 0-7.351.235-10.991-.068-3.415-.284-4.536.645-4.453 4.277.258 11.323.093 22.657.093 33.986z"/><path fill="#FEC700" d="M252.934 254.164c-3.014-3.11-6.028-6.221-9.042-9.33-.779-2.079-.635-4.246-.633-6.404.025-29.062.005-58.124.014-87.187.001-3.157-.108-6.307-.59-9.433l10.303-10.435c3.006 1.693 6.011 3.388 9.017 5.082 1.451 2.927 1.493 6.065 1.494 9.242.012 34.055-.081 68.11.044 102.165-3.128 2.789-6.993 4.333-10.607 6.3z"/><path fill="#fff" d="M785.799 54.059c0-11.496-.11-22.993.073-34.485.049-3.029-.654-4.06-3.82-3.92-5.986.264-11.994-.011-17.989.12-2.319.05-3.084-.604-3.203-3.049-.525-10.779-.618-10.775 9.903-10.775 16.66 0 33.321.089 49.979-.075 3.258-.032 4.183.83 4.151 4.122-.094 9.732.061 9.701-9.487 9.747-4.974.023-11.692-1.734-14.458.785-3.179 2.896-.94 9.709-.969 14.811-.105 18.825-.13 37.652.039 56.477.031 3.394-.664 4.517-4.289 4.444-9.927-.197-9.931-.007-9.931-9.713.001-9.497.001-18.993.001-28.489z"/><path fill="#FED000" d="M298.959 228.124c-6.138 3.996-12.521 7.56-19.12 10.734-2.253-.133-2.368-2.062-2.858-3.557-.68-2.074-.702-4.264-.705-6.433-.028-23.983-.026-47.966 0-71.949.003-2.503.046-5.022.951-7.394.505-1.324.785-3.053 2.896-2.773 7.37 3.618 14.606 7.475 21.392 12.127-1.219 3.007-1.042 6.18-1.047 9.315-.024 17.241-.018 34.481-.003 51.723.002 2.841-.068 5.642-1.506 8.207z"/><path fill="#FECB00" d="M280.122 146.752c-2.056 2.622-2.256 5.715-2.256 8.863.003 24.911.005 49.822-.002 74.732-.001 2.996.416 5.882 1.975 8.51-5.148 3.518-10.602 6.484-16.299 9.007-2.1-.502-1.66-2.209-1.659-3.634.029-35.924.077-71.849.121-107.773 6.068 3.381 12.431 6.247 18.12 10.295z"/><path fill="#fff" d="M735.207 46.865c0-13.475.097-26.951-.069-40.424-.04-3.271.496-4.651 4.249-4.596 10.293.153 10.296-.04 10.296 10.435 0 24.954-.062 49.908.069 74.861.02 3.596-.415 5.283-4.726 5.146-9.811-.313-9.819-.05-9.819-9.987v-35.435z"/><path fill="#FED500" d="M298.959 228.124c-.03-21.69-.066-43.381-.08-65.072-.001-1.899-.584-4.263 2.635-4.172 5.921 3.061 12.004 5.829 17.508 9.648.868 12.312.152 24.64.366 36.957.061 3.501-.02 7.005 1.128 10.383-6.651 5.024-14.439 8.05-21.557 12.256z"/><path fill="#FED900" d="M320.516 215.868c-2.081-.31-2.648-1.714-2.647-3.585.013-13.323-.019-26.647.064-39.97.009-1.264.71-2.523 1.089-3.785 2.443 2.193 5.718 2.91 8.385 4.642 7.537 4.892 13.935 11.046 13.023 20.805-1.022 10.954-8.939 16.822-18.226 21.095-.565.259-1.126.531-1.688.798z"/><path fill="#00D3FE" d="M1.022 285.845l.009-42.994c3.7-5.025 9.048-8.311 13.387-12.672 17.613-17.701 35.424-35.208 52.917-53.026 16.326-16.63 33.789-32.087 49.992-48.839 1.354-1.4 2.566-3.782 5.312-2.43 7.577 6.501 14.534 13.632 21.302 20.956-.362 1.964-1.938 3.054-3.208 4.327-12.216 12.256-24.141 24.823-36.76 36.65-28.658 26.858-55.624 55.41-83.737 82.808-4.875 4.751-10.208 9.026-14.971 13.919-1.062 1.091-2.286 2.668-4.243 1.301z"/><path fill="#00C8FE" d="M176.997 179.596c-1.291 1.508-2.49 3.106-3.888 4.508-15.886 15.931-31.464 32.187-47.784 47.661-29.742 28.202-57.884 58.012-87.462 86.356-11.057 10.597-21.784 21.516-32.853 32.091-.931.89-1.736 2.521-3.134 2.126-1.652-.467-.967-2.271-.968-3.498-.007-9.663.063-19.327.109-28.991 5.824-6.165 11.549-12.428 18.204-17.746 2.605-2.082 4.836-4.573 7.168-6.946 42.582-43.32 86.586-85.207 129.384-128.311 1.423-1.432 2.554-3.693 5.258-3.064 5.323 5.271 10.645 10.543 15.966 15.814z"/><path fill="#00CCFE" d="M161.031 163.782c-4.368 3.122-7.764 7.272-11.539 11.012-12.313 12.196-24.273 24.759-36.837 36.688-30.807 29.252-60.226 59.898-90.632 89.545-5.94 5.791-12.104 11.386-18.024 17.22-.845.832-1.692 1.621-2.982 1.603l.005-34.003c1.93-.005 2.847-1.558 4.035-2.669 30.261-28.327 58.632-58.575 88.514-87.274 16.201-15.562 31.946-31.565 48.028-47.236.705-.687 1.558-1.221 2.342-1.826 6.022 5.317 11.674 11.009 17.09 16.94z"/><path fill="#00D7FE" d="M122.638 125.884c-2.094.123-3.069 1.858-4.354 3.095-35.495 34.162-70.084 69.239-105.104 103.881-3.674 3.635-7.251 7.706-12.149 9.992.002-11.33.003-22.66.004-33.989 3.125-2.488 5.945-5.302 8.787-8.102 30.077-29.626 60.402-59 90.085-89.025 1.47-1.487 2.67-4.122 5.659-2.848 5.034 6.325 12.404 10.303 17.072 16.996z"/><path fill="#00DAFE" d="M105.565 108.888c-2.079.169-3.059 1.896-4.328 3.147-5.69 5.617-11.294 11.321-16.982 16.941-26.051 25.74-52.122 51.462-78.18 77.195-1.421 1.403-2.698 3.037-5.042 2.69l.002-38.011c2.881-.329 4.685-2.321 6.573-4.212 16.016-16.029 31.947-32.144 48.098-48.035 9.945-9.787 20.229-19.23 30.361-28.829l19.498 19.114z"/><path fill="#FEC400" d="M242.683 141.81c2.4.278 2.183 2.083 2.184 3.754.001 31.651-.005 63.302.02 94.952.001 1.545-.267 2.969-.994 4.317-6.079-5.232-11.682-10.945-17.052-16.893-.992-1.692-.672-3.534-.651-5.357.214-18.96.082-37.921.067-56.882-.001-2.33-.367-4.639-.662-6.947 5.384-5.962 11.103-11.587 17.088-16.944z"/><path fill="#FEBF00" d="M225.594 158.754c2.38.93 2.283 2.964 2.282 5.002-.014 19.449.021 38.898-.053 58.347-.008 1.947-.641 3.892-.983 5.838-11.913-11.715-23.826-23.429-35.738-35.145 11.11-11.741 22.715-22.978 34.492-34.042z"/><path fill="#fff" d="M1052.101 238.017c-.018-5.249 2.334-12.281-1.044-15.242-2.955-2.592-9.822-.786-14.962-.811-9.716-.048-9.717-.014-10.317 10.362-13.136-12.804-28.322-16.484-45.105-12.67-32.63 7.414-53.146 38.477-47.689 71.475 4.235 25.618 26.16 47.178 51.921 50.516 15.442 2.001 29.299-1.805 40.873-13.952 0 5.779.37 10.734-.065 15.618-1.738 19.495-15.189 30.997-34.695 29.934-13.021-.71-22.066-7.564-28.182-18.63-1.381-2.499-2.398-3.378-5.281-2-5.383 2.574-10.892 4.988-16.553 6.846-4.003 1.313-3.509 3.02-1.979 5.958 11.294 21.707 35.02 34.63 59.625 32.195 24.393-2.413 41.937-13.973 49.852-37.998 3.055-9.272 3.69-18.894 3.674-28.604-.06-30.999.027-61.998-.073-92.997zm-26.532 56.966c-5.053 14.523-18.326 23.58-32.796 22.763-15.157-.856-28.173-11.958-31.857-27.163-.826-3.41-1.292-6.857-1.156-9.562.074-22.763 15.775-39.006 36.61-38.122 13.682.581 22.838 8.313 28.213 20.459 4.554 10.29 4.672 21.031.986 31.625zM1411.826 195.871c-6.872-21.756-28.673-38.261-53.367-39.111-21.961-.758-43.964-.252-65.945-.539-3.795-.05-4.663 1.013-4.642 4.727.166 28.815.092 57.631.092 86.447 0 28.482.081 56.965-.091 85.447-.024 4.113.547 5.997 5.292 5.587 5.787-.499 11.66-.335 17.476-.042 3.798.191 5.112-.761 5.064-4.872-.231-19.984-.038-39.975-.173-59.961-.021-3.176.709-4.396 4.084-4.189 4.812.293 9.658.151 14.486.059 11.299-.218 22.653.848 33.857-1.564 34.257-7.376 54.031-39.81 43.867-71.989zm-55.388 48.029c-12.492.28-24.996-.026-37.49.175-3.124.05-3.437-1.209-3.399-3.794.132-9.163.052-18.329.052-27.494s.107-18.332-.064-27.494c-.053-2.817.744-3.646 3.586-3.607 12.328.168 24.664-.064 36.991.164 16.983.314 30.792 14.408 30.766 31.083-.027 16.381-13.813 30.594-30.442 30.967zM1580.457 265.936c-.52-20.126-10.294-34.965-29.025-42.776-16.938-7.062-34.336-7.333-51.526-.343-9.693 3.941-17.294 10.411-22.615 19.528-1.477 2.529-1.555 3.778 1.659 4.93 6.242 2.236 12.309 4.971 18.408 7.591 1.751.753 2.858.872 3.98-1.115 8.151-14.429 35.632-14.808 47.12-1.82 3.822 4.321 6.076 9.233 5.213 15.529-1.123-.496-1.872-.832-2.626-1.156-.763-.327-1.519-.674-2.298-.958-20.48-7.48-40.396-6.286-58.826 5.505-23.949 15.323-23.481 47.741.456 63.18 20.996 13.543 44.61 9.936 63.616-10.301 0 4.187.137 7.521-.045 10.836-.137 2.479.429 3.576 3.23 3.496 6.824-.194 13.66-.151 20.488-.016 2.423.048 3.095-.771 3.083-3.146-.115-22.988.302-45.988-.292-68.964zm-26.848 25.938c-3.784 18.988-25.81 30.973-43.642 23.598-5.131-2.122-9.25-5.461-10.006-11.384-.803-6.301 1.629-11.431 6.742-15.122 6.9-4.98 14.889-6.131 25.476-6.163 5.28-.111 12.429 1.644 19.315 4.867 2.112.987 2.542 2.061 2.115 4.204zM857.808 218.309c-35.72-.064-63.098 26.91-63.035 62.104.062 34.872 27.418 61.659 62.949 61.642 35.344-.017 62.93-27.109 62.941-61.814.011-34.742-27.519-61.867-62.855-61.932zm15.355 95.585c-12.519 6.393-24.837 5.094-36.193-3.085-13.112-9.442-18.13-28.056-12.309-44.421 5.463-15.358 18.849-24.247 35.469-23.554 18.394.768 32.763 17.073 32.82 40.573-.387 11.575-6.153 23.524-19.787 30.487zM720.123 218.309c-35.489.113-62.656 27.011-62.609 61.989.047 34.952 27.288 61.744 62.794 61.757 35.517.013 62.801-26.765 62.862-61.694.061-35.167-27.369-62.165-63.047-62.052zm.457 99.482c-19.934.139-35.723-16.559-35.663-37.716.06-21.137 15.373-37.267 35.39-37.277 19.999-.011 35.346 16.125 35.434 37.256.086 20.919-15.455 37.6-35.161 37.737zM1222.862 253.016c-14.616-31.555-48.818-43.679-79.038-28.082-22.319 11.52-34.234 36.075-31.065 64.022 2.738 24.147 20.815 44.863 44.471 50.961 25.844 6.661 53.116-2.487 67.377-22.478 1.481-2.076 1.68-3.149-.754-4.599-4.568-2.72-9.184-5.479-13.291-8.823-3.922-3.191-5.957-2.634-9.264 1.229-16.626 19.422-46.169 16.123-57.055-6.305 1.68-.709 3.343-1.431 5.02-2.117 22.427-9.187 44.86-18.355 67.277-27.565 3.671-1.508 9.603-2.516 10.313-4.967.905-3.116-2.266-7.551-3.991-11.276zm-35.611 5.65c-15.581 6.491-31.23 12.816-47.316 19.386-2.259-23.285 21.861-41.951 43.135-33.891 1.693.642 3.342 1.506 4.847 2.514 3.049 2.042 6.898 4.418 6.671 8.053-.159 2.53-4.703 2.841-7.337 3.938zM906.18 0c-26.614-.132-47.178 20.275-47.261 46.902-.083 26.751 20.166 47.158 46.85 47.218 26.656.06 47.046-20.321 47.048-47.027 0-26.319-20.444-46.964-46.637-47.093zm-.51 80.621c-18.479-.14-32.121-14.412-32.101-33.58.021-19.309 13.536-33.262 32.244-33.288 18.713-.026 32.257 13.87 32.345 33.186.087 19.377-13.846 33.824-32.488 33.682z"/></g></svg>