<svg xmlns="http://www.w3.org/2000/svg" width="699.912" height="806.899" viewBox="0 0 699.912 806.899"><path fill="#fff" d="M700.012 362.658c-4.683-43.51-17.777-84.579-38.425-123.286-20.312-38.075-46.505-71.418-79.045-99.669-66.372-57.624-143.873-86.168-231.538-87.259-14.779-.184-29.599 1.085-44.311 2.974-42.427 5.443-82.643 17.913-120.156 38.536-6.482 3.563-11.003 3.169-16.988-1.173-38.84-28.187-78.596-55.056-118.983-80.979-6.262-4.019-12.231-8.686-19.57-10.802h-2c-1.138 3.579 1.698 5.546 3.396 7.809 30.013 39.98 61.76 78.564 94.164 116.617 3.969 4.66 4.043 4.948-.77 9.065-13.685 11.702-26.794 23.98-38.572 37.637-22.433 26.01-41.234 54.341-55.471 85.68-19.538 43.005-31.299 87.702-30.271 135.292.035 1.606.539 3.321-.472 4.85v12.998c.766.846.508 1.89.491 2.854-.219 12.151-.18 24.353 1.295 36.381 4.375 35.659 14.399 69.797 29.682 102.303 20.828 44.299 49.58 82.71 86.28 115.186 31.422 27.805 66.793 49.139 105.809 64.28 47.574 18.462 96.894 26.049 147.933 22.776 24.892-1.596 49.305-5.502 73.297-12.177 25.79-7.177 50.428-17.223 73.836-30.212 3.676-2.039 6.541-1.993 10.001.563 11.655 8.615 23.651 16.758 35.545 25.043 33.225 23.144 66.748 45.834 101.218 67.099 1.99 1.227 3.992 2.389 6.273 3.021 2.262.627 2.832-.338 2.143-2.285-.847-2.393-2.582-4.261-4.074-6.256-30.15-40.315-62.36-78.969-94.768-117.462-3.566-4.233-3.583-4.929.543-8.438 16.917-14.387 32.625-29.986 46.666-47.196 34.595-42.406 58.291-90.215 70.571-143.591 4.489-19.518 7.019-39.234 7.39-59.35.375-20.315 1.049-40.692-1.119-60.829zm-593.919-15.79c5.658-22.654 13.74-44.363 25.145-64.841 11.639-20.899 26.193-39.56 42.906-56.498 6.719-6.81 13.913-13.279 21.695-18.983 1.389-1.019 2.098-1.557 3.592.105 13.756 15.298 27.619 30.501 41.489 45.696 7.945 8.703 15.83 17.467 23.971 25.985 18.033 18.868 36.096 37.709 54.395 56.318 5.801 5.9 12.414 11.001 18.824 18.306h-5.99c-73.6 0-147.201.001-220.801-.001-6.386.001-6.723-.092-5.226-6.087zm327.289 294.167c-.317 1.258-1.679 1.482-2.766 1.834-13.287 4.292-26.81 7.792-40.591 9.871-12.766 1.926-25.633 3.508-38.628 3.206-36.317-.449-71.095-7.792-104.234-22.887-22.858-10.412-43.487-24.042-62.324-40.654-31.959-28.187-55.174-62.219-69.921-102.141-7.34-19.869-12.002-40.276-14.095-61.393-2.354-23.756-1.427-47.249 3.012-70.68.771-4.07 1.879-2.917 3.848-1.06 10.884 10.259 21.775 20.509 32.708 30.715 19.553 18.254 39.112 36.5 58.72 54.694 12.295 11.409 24.612 22.795 37.049 34.049 15.75 14.252 31.792 28.185 47.416 42.572 18.682 17.206 38.2 33.427 57.808 49.528 15.374 12.625 31.236 24.658 46.958 36.854 14.283 11.08 28.668 22.027 43.014 33.029.878.678 2.402.968 2.026 2.463zm162.548-179.094c-8.764 36.962-25.108 70.151-49.044 99.69-11.879 14.659-25.361 27.602-39.759 39.7-2.271 1.907-3.488 1.018-4.908-.656-13.1-15.452-27.134-30.051-40.846-44.946-12.144-13.192-24.304-26.365-36.479-39.526-18.323-19.809-37.999-38.252-56.759-57.611-.869-.897-2.229-1.52-2.231-3.161 1.53-.966 3.219-.462 4.8-.462 73.278-.031 146.558-.027 219.835-.025 7.064-.001 7.049.005 5.391 6.997zm2.996-13.322c-.156.999-.111 2.169-1.2 2.532-1.111.37-1.742-.708-2.45-1.363-13.411-12.403-26.748-24.888-40.243-37.2-17.163-15.659-34.482-31.148-51.677-46.773-8.972-8.153-17.777-16.488-26.735-24.657-18.028-16.44-36.276-32.644-54.113-49.287-13.72-12.8-28.017-24.923-42.321-37.027-14.042-11.882-28.441-23.358-42.955-34.665-21.841-17.015-43.912-33.736-65.902-50.56-2.434-1.862-2.741-3.04.622-4.171 17.197-5.786 34.723-10.012 52.848-11.467 9.08-.728 18.188-2.094 27.252-1.869 36.896.918 72.305 8.415 105.906 24.264 30.19 14.239 56.466 33.692 78.889 58.182 21.959 23.985 38.85 51.233 50.17 81.905 7.459 20.208 12.324 40.989 14.656 62.3.915 8.357 2.18 16.839 1.227 24.043.291 16.287-1.67 31.065-3.974 45.813z"/></svg>