<svg xmlns="http://www.w3.org/2000/svg" width="1024.233" height="512.116" viewBox="0 0 1024.233 512.116"><g fill-rule="evenodd" clip-rule="evenodd"><path fill="#FE6B5E" d="M147.706 309.207c-13.73.059-17.971-3.702-19.78-17.492-.259-1.978-.573-3.952-.988-5.902-1.153-5.42-3.85-7.322-9.308-6.309-8.873 1.647-17.606.812-26.165-1.604-14.081-3.976-19.731-25.654-9.551-36.827 3.684-4.044 7.854-7.693 12.096-11.164 4.491-3.676 9.713-4.996 15.437-3.071 3.05 1.026 6.17 1.091 9.356 1.059 12.891-.132 21.553 6.346 24.659 18.851 2.322 9.346 6.021 17.559 14.593 22.881 2.498 1.55 3.539 4.302 4.255 7.12 1.374 5.4 3.768 10.29 7.527 14.455 3.166 3.509 2.691 6.904-.322 10.199-5.89 6.441-13.555 7.956-21.809 7.804zM714.174 96.48c-.17-3.342.567-7.629 2.166-11.663 3.062-7.721 6.525-15.285 9.582-23.008 2.799-7.074 8.484-11.395 14.32-15.544 3.188-2.267 6.594-2.042 9.574.73 2.978 2.771 3.608 6.261 1.389 9.467-3.732 5.394-4.135 10.617-1.018 16.346 1.511 2.776.63 5.634-1.052 8.014-5.053 7.149-6.382 15.624-8.704 23.741-.924 3.227-.035 5.873 3.153 7.547 5.738 3.015 11.381 6.039 17.974 7.113 8.563 1.396 14.828 5.649 16.069 15.151.48 3.674 3.249 5.024 6.624 5.765 12.044 2.646 15.199 9.293 9.596 20.536-3.535 7.097-8.928 12.033-17.325 12.437-5.871.283-9.385-2.108-11.533-7.581-.542-1.38-1.091-2.853-1.163-4.307-.401-8.169-4.108-12.744-12.721-13.431-4.251-.34-6.354-3.912-6.933-8.083-.628-4.531-2.286-8.615-4.789-12.45-3.149-4.823-7.119-7.761-13.213-7.163-5.371.526-8.492-2.469-9.856-7.295-1.402-4.966-2.108-10.085-2.14-16.322zM740.521 440.238c-3.75.24-6.507-1.588-8.787-4.143-3.305-3.703-6.759-5.092-11.336-2.026-2.432 1.629-5.422 1.562-8.25 1.112-2.505-.397-4.599-1.83-4.502-4.512.091-2.521 1.861-4.277 4.525-4.549 2.147-.218 4.323-.152 6.487-.212 7.186-.2 10.349-5.475 6.468-11.502-3.373-5.241-8.611-8.771-13.795-12.052-2.429-1.537-5.101.025-7.511 1.329-7.036 3.806-8.447 3.438-13.607-2.396-2.973-3.363-6.272-6.434-9.354-9.704-4.784-5.074-5.129-9.153-.998-14.674 3.231-4.319 5.91-8.839 6.986-14.191.822-4.079 3.503-6.012 7.503-5.821 8.93.427 15.657 5.03 21.024 11.807 1.845 2.326 1.081 5.016.203 7.627-4.532 13.483-3.546 15.248 10.179 18.146 2.102.443 4.274.604 6.423.755 5.671.398 10.744 2.175 14.822 6.279 4.691 4.723 9.399 9.431 14.008 14.234 4.202 4.378 4.347 8.219.31 12.738-5.589 6.253-12.425 10.426-20.798 11.755zM744.838 321.41c2.446 0 3.951.078 5.444-.015 4.854-.302 6.107-2.049 4.906-6.812-1.057-4.192-2.064-8.4-3.266-12.552-1.619-5.59-4.434-10.409-9.553-13.562-3.48-2.144-5.355-5.09-4.127-9.223 1.231-4.14 4.493-6.126 8.519-6.737 3.99-.605 6.484 1.441 8.27 4.971 3.054 6.04 7.936 10.677 12.707 15.316 5.107 4.965 8.933 10.654 11.562 17.285 4.186 10.557 1.113 19.408-9.429 23.76-8.579 3.54-16.186 8.434-23.668 13.748-3.262 2.316-5.625 4.961-6.892 8.804-1.675 5.078-5.021 8.648-10.544 9.498-3.354.516-6.462-.485-6.466-4.347-.011-10.521.658-20.972 6.108-30.463 3.888-6.765 8.88-11.299 16.429-9.671zM730.83 488.405c-8.875-.109-16.896-3.291-24.859-6.783-8.26-3.621-9.36-3.264-13.927 4.481-1.76 2.983-3.64 5.337-7.514 3.677-3.603-1.546-3.942-4.6-3.453-7.964.071-.492.167-.992.335-1.457 1.21-3.338 4.65-5.985 3.315-10.1-1.275-3.93-5.45-4.657-8.139-7.039-2.563-2.272-3.917-4.979-3.146-8.421.726-3.239 2.832-5.241 6.064-5.921 4.716-.99 9.426-2.069 14.189-2.753 3.934-.564 7.709.442 10.705 3.149 3.994 3.609 8.324 3.826 12.97 1.762 5.873-2.613 11.563-2.322 17.336.437 4.835 2.31 7.207 5.937 6.308 11.207-.852 4.996-.738 9.869-.041 14.881 1.209 8.676-1.299 11.164-10.143 10.844zM152.541 185.058c-4.048.072-8.231.347-10.238-4.296-1.694-3.917.054-8.364 4.117-10.629 3.949-2.201 8.336-1.714 10.037 2.122 3.876 8.743 11.069 9.879 19.146 10.659 7.263.701 14.48 2.056 21.653 3.46 11.605 2.272 16.177 13.235 9.705 23.263-3.426 5.309-7.115 10.393-9.429 16.385-1.816 4.702-6.089 5.216-10.067 3.54-7.411-3.122-15.028-3.975-22.938-3.803-4.153.09-7.919-1.187-10.251-5.036-2.541-4.193-1.654-9.082 2.466-11.86 2.317-1.562 4.963-2.7 7.573-3.751 4.127-1.662 4.704-4.252 2.517-7.856-1.208-1.991-2.392-3.999-3.522-6.036-3.457-6.228-3.445-6.235-10.769-6.162zM635.442 24.127c.054 11.695-9.019 21.889-19.43 21.832-13.104-.071-23.48-9.902-23.416-22.188.058-11.006 10.028-20.703 21.355-20.767 12.639-.07 21.433 8.573 21.491 21.123zM90.551 170.781c8.918 1.792 18.314 3.176 27.083 6.828 3.994 1.664 5.683 5.296 5.564 9.765-.118 4.401-2.36 7.104-6.22 8.731-3.097 1.306-6.242 2.15-9.686 1.559-9.597-1.645-19.142-1.43-28.683.69-7.287 1.621-12.625-.912-14.863-6.632-2.298-5.875.209-12.708 6.125-16.319 6.233-3.803 13.496-3.024 20.68-4.622zM253.025 384.448c.032 12.458-5.112 17.122-17.087 15.677-7.31-.882-13.729-3.917-19.115-8.934-5.189-4.831-6.301-10.884-3.378-17.268.414-.904.895-1.787 1.417-2.635 4.205-6.823 9.511-12.665 18.205-11.754 9.709 1.019 15.784 7.271 18.693 16.465.896 2.838 1.505 5.81 1.265 8.449zM941.251 330.163c.396-5.818 2.11-11.199 4.122-16.49.798-2.099 2.529-3.345 4.749-2.681 9.301 2.786 18.527 5.813 24.12 14.685 5.134 8.143 4.098 13.168-3.771 18.505-5.168 3.507-10.949 5.562-17.008 6.869-4.631.999-7.757-.536-9.024-5.385-1.343-5.146-2.85-10.248-3.188-15.503zM410.886 87.29c1.262-8.766 1.34-17.484-.487-26.247-1.076-5.156 2.253-9.957 7.277-11.603 5.924-1.941 13.281 1.014 16.306 6.549 2.455 4.492 1.693 9.802-2.604 12.948-6.508 4.765-8.069 10.854-6.547 18.41.947 4.7 2.277 9.383 2.136 14.25-.067 2.335-.138 4.904-2.501 6.138-2.721 1.42-4.217-1.009-5.9-2.497-5.385-4.759-8.882-10.342-7.68-17.948zM704.076 262.091c-2.816-.794-5.639-1.299-8.22-2.38-5.769-2.412-6.317-7.115-1.471-11.147 2.406-2.004 5.331-2.825 8.326-3.037 5.616-.397 10.606-2.24 15.489-5.036 6.377-3.652 13.845-.343 15.447 6.361.898 3.757-.324 6.889-3.604 8.481-8.174 3.963-17.168 5-25.967 6.758zM488.667 416.282c5.654.275 11.314.603 16.818 2.038 5.117 1.336 8.426 5.504 8.493 10.434.074 5.542-3.686 10.707-8.774 12.053-4.318 1.143-8.062-.489-9.987-5.301-2.241-5.602-5.374-9.382-11.873-9.68-2.592-.119-4.253-1.996-4.035-4.787.205-2.608 1.73-4.35 4.368-4.715 1.634-.226 3.325-.042 4.99-.042zM193.548 301.101c.852.236 2.222.385 3.368.972 7.241 3.703 14.075 8.101 20.802 12.647 2.3 1.554 3.031 3.874 1.743 6.558-1.507 3.141-3.969 5.192-7.477 4.631-8.955-1.435-17.333-4.495-24.472-10.284-2.815-2.281-3.919-5.247-2.52-8.868 1.44-3.727 4.357-5.217 8.556-5.656zM329.233 340.898c5.389-.04 10.127 1.512 13.906 5.549 2.436 2.602 2.853 5.642 1.708 8.805-2.907 8.028-15.067 12.067-22.305 7.519-4.814-3.024-6.999-8.439-5.544-13.748 1.435-5.244 5.733-8.097 12.235-8.125zM555.229 432.67c.097 2.602-.624 5.011-1.977 7.141-4.381 6.905-5.771 14.414-4.987 22.463.294 3.028.016 6.012-2.224 8.429-2.063 2.228-4.416 2.925-7.14 1.287-2.634-1.586-2.845-3.931-1.74-6.503.652-1.521 1.481-2.977 2.315-4.411 3.418-5.884 3.99-11.829.836-18.065-2.651-5.241-3.195-10.526.855-15.435 2.47-2.993 5.393-5.105 9.538-3.522 3.988 1.523 4.417 5.016 4.524 8.616zM281.814 416.007c-6.828-.023-10.357-5.118-8.265-10.937 2.039-5.669 10.638-11.309 16.686-10.729 3.468.332 6.345 1.858 7.931 5.227 1.592 3.382.99 6.507-1.191 9.346-3.99 5.19-9.763 6.521-15.161 7.093zM303.579 287.156c-6.976.013-12.456-4.545-12.426-10.335.028-5.514 5.228-9.916 11.636-9.854 7.158.069 12.36 4.742 12.293 11.042-.057 5.487-4.645 9.135-11.503 9.147zM741.28 158.979c.226 2.703-1.452 4.857-4.444 5.775-2.354.723-4.864.97-7.321 1.318-1.828.258-3.938.268-4.752 2.161-3.267 7.602-11.443 9.246-16.938 14.134-1.589 1.414-3.909 1.289-5.137-.926-1.2-2.167.789-2.766 2.152-3.67 1.37-.91 3.188-1.71 3.843-3.037 2.764-5.617 6.418-9.741 12.94-11.157 2.435-.528 3.053-3.749 4.154-5.956 2.059-4.124 5.004-6.445 9.922-5.671 3.783.595 5.489 2.724 5.581 7.029zM800.455 20.492c-.054 6.739-5.729 12.462-12.396 12.5-5.681.031-8.975-3.261-9.001-8.999-.03-6.692 6.086-12.622 12.962-12.563 5.216.042 8.48 3.549 8.435 9.062zM857.059 392.725c-5.294-.08-10.014-4.771-9.918-9.86.098-5.226 3.772-9.025 8.689-8.986 5.312.042 10.301 4.973 10.314 10.193.013 4.819-4.091 8.728-9.085 8.653zM508.487 67.463c-5.053-.013-8.36-3.358-8.418-8.516-.057-5.128 4.394-9.921 9.225-9.936 4.439-.013 9.44 4.908 9.506 9.354.063 4.303-5.388 9.112-10.313 9.098z"/><path fill="#FE6C5F" d="M844.667 137.001c-.993-.066-2.002-.032-2.972-.21-2.42-.442-5.132-.562-5.922-3.601-.802-3.082 1.435-4.512 3.537-5.848 4.27-2.714 8.253-6.362 14.031-4.502 2.686.864 5.021 2.226 5.421 5.169.427 3.131-1.494 5.37-4.03 6.856-3.073 1.803-6.546 2.189-10.065 2.136z"/><path fill="#FE6B5E" d="M699.756 157.335c-5.758-.151-8.323-2.115-8.324-6.369-.002-4.915 5.145-9.875 10.173-9.805 5.119.071 9.054 4.049 8.79 8.886-.258 4.704-4.275 7.455-10.639 7.288zM658.995 439.683c.022-5.363 3.001-8.441 8.195-8.468 5.434-.028 8.571 2.771 8.42 7.511-.16 5.032-4.324 8.803-9.577 8.67-4.627-.117-7.058-2.782-7.038-7.713z"/><path fill="#FE6C5F" d="M160.983 380.626c-.106 4.572-3.319 7.571-8.056 7.52-5.095-.057-8.912-3.902-8.73-8.795.165-4.413 3.475-7.205 8.443-7.121 5.252.088 8.462 3.319 8.343 8.396zM235.196 326.146c-4.884-.152-10.324-4.018-10.054-7.144.301-3.489 4.89-6.891 9.23-6.842 4.877.055 7.938 3.026 7.864 7.64-.07 4.322-2.472 6.488-7.04 6.346zM1008.631 349.604c4.184.001 6.654 2.413 6.585 6.427-.071 4.1-4.12 7.984-8.166 7.834-3.691-.136-6.645-3.132-6.672-6.771-.032-4.359 3.418-7.491 8.253-7.49zM569.059 28.721c-.273 1.164-.504 2.819-1.061 4.355-.751 2.071-2.272 3.334-4.604 2.777-2.401-.574-3.023-2.326-2.508-4.581 1.291-5.653 2.053-11.371 2.204-17.17.036-1.389.36-2.787 2.059-2.862 1.76-.078 2.069 1.394 2.23 2.727.574 4.753 1.089 9.513 1.68 14.754z"/><path fill="#FE6C60" d="M822.318 398.832c.153 3.579-1.661 5.227-5.142 5.15-4.536-.099-7.863-3.161-7.894-7.348-.029-3.951 2.219-5.73 5.979-5.747 4.293-.017 7.074 3.168 7.057 7.945z"/><path fill="#FE6D60" d="M822.003 321.348c-4.671.079-7.631-2.243-7.436-6.143.195-3.915 2.887-5.45 6.409-5.546 4.065-.111 7.191 2.975 7.16 6.749-.027 3.234-2.059 4.87-6.133 4.94zM401.86 451.056c-3.971-.332-6.11-2.577-6.2-6.453-.085-3.709 2.237-5.353 5.737-5.447 3.609-.098 6.824 2.719 6.639 6.02-.21 3.741-2.486 5.611-6.176 5.88z"/><path fill="#FE6C5F" d="M237.294 230.625c.042 4.192-2.461 6.032-6.224 6.05-3.322.016-5.739-1.578-5.685-5.371.056-3.918 2.755-6.444 6.684-6.379 3.543.058 5.256 1.927 5.225 5.7z"/><path fill="#FE6D60" d="M895.869 314.408c3.786.398 6.248 2.059 6.394 6.154.122 3.449-1.646 5.48-4.941 5.421-3.708-.067-6.144-2.058-6.309-6.116-.141-3.447 1.558-5.186 4.856-5.459z"/><path fill="#FE6D61" d="M812.299 266.572c-.005 4.242-2.517 6.079-5.923 6.137-3.051.052-5.235-1.717-5.266-5.251-.033-3.851 2.074-5.962 5.639-6.132 3.498-.166 5.377 1.998 5.55 5.246z"/><path fill="#FE6C5F" d="M313.419 132.066c-4.158-.123-6.631-2.944-6.462-6.56.146-3.135 2.17-3.775 4.725-3.708 3.789.1 6.493 1.723 6.5 5.821.004 3.309-2.337 4.44-4.763 4.447z"/><path fill="#FE7164" d="M357.111 506.248c-.212 2.339-1.632 3.861-4.428 3.853-2.89-.009-4.31-1.826-4.256-4.415.054-2.623 1.805-4.438 4.467-4.314 2.51.115 4.342 1.55 4.217 4.876z"/><path fill="#FE7265" d="M14.256 225.962c2.474.021 3.882.918 3.991 3.197.107 2.245-1.187 3.488-3.278 3.596-2.3.118-3.867-1.049-3.923-3.518-.054-2.324 1.466-3.154 3.21-3.275z"/><path fill="#FE7C71" d="M725.956 314.845c-2.095-.413-3.42-1.604-3.43-3.689-.008-1.752 1.265-2.76 2.937-2.699 2.124.076 3.38 1.444 3.331 3.55-.038 1.68-1.208 2.625-2.838 2.838z"/><path fill="#FE7B6F" d="M828.889 133.667c-.204 2.029-1.647 2.791-3.331 3.084-1.646.286-3.111-.358-3.204-2.161-.104-2.01 1.515-2.785 3.23-3.059 1.659-.266 2.868.413 3.305 2.136z"/><path fill="#FE6E61" d="M695.307 495.931c2.23.326 3.594 1.77 3.933 4.13.187 1.301-.315 2.314-1.839 2.244-2.604-.12-3.616-1.966-4.124-4.15-.32-1.377.365-2.18 2.03-2.224z"/><path fill="#FE776B" d="M872.979 235.733c-.182 1.305-.654 2.147-1.809 2.121-1.391-.032-1.904-1.029-1.907-2.278-.002-.911.561-1.508 1.456-1.586 1.391-.119 1.932.82 2.26 1.743z"/><path fill="#FE6B5E" d="M703.634 213.158c-2.596-7.362-8.3-11.67-16.076-12.145-8.535-.521-9.513-1.504-9.358-10.264.068-3.95-1.286-7.03-4.192-9.701-6.959-6.392-7.437-9.013-3.654-17.472 3.312-7.41.106-13.443-7.968-14.396-8.089-.955-15.453.49-21.562 6.692-5.43 5.511-10.789 5.371-16.888.503-5.781-4.614-8.096-10.43-7.934-17.908.153-7.045-2.137-13.812-8.845-17.358-6.48-3.426-11.339 1.118-16.137 4.753-1.059.802-2.136 1.588-3.26 2.295-1.582.993-3.424 1.775-5.202 1.509-17.797-2.667-32.424-11.583-29.925-34.631 1.632-15.033 6.064-29.731 5.354-44.497 0-3.711.093-6.882-.028-10.043-.101-2.625-.908-4.822-3.841-5.757-2.885-.919-5.241-.303-7.302 1.763-1.82 1.827-2.691 4.208-3.469 6.572-2.525 7.669-3.389 15.576-3.282 23.629.124 9.311-3.319 17.181-9.814 23.805-8.727 8.902-14.306 9.192-23.352.769-3.865-3.599-8.097-4.319-12.904-2.75-2.212.722-4.387 1.577-6.536 2.473-4.393 1.833-7.79.969-9.982-3.473-1.222-2.476-2.954-4.997-5.659-5.264-9.354-.925-18.229-3.562-27.155-6.287-4.284-1.307-6.542.914-6.751 5.523-.356 7.865 1.496 15.417 7.703 20.288 6.782 5.321 8.631 12.121 9.479 19.918 1.261 11.577-5.505 18.08-17.09 16.067-3.65-.634-7.066-1.952-9.963-4.353-6.03-4.994-12.027-10.027-18.06-15.017-9.954-8.236-17.687-17.81-21.182-30.698-2.203-8.12-8.971-11.772-17.062-12.402-6.795-.53-11.932-3.644-16.266-8.64-4.503-5.193-9.73-9.584-15.579-13.201-2.843-1.757-5.962-2.54-8.941-.576-3.272 2.157-4.087 5.633-3.526 9.266.294 1.912 1.126 3.885 2.209 5.5 2.629 3.922 2.343 7.076-1.682 9.784-3.558 2.395-4.536 5.836-4.19 10.006.674 8.127 4.882 13.979 11.34 18.492 6.693 4.678 13.402 9.342 19.368 14.952 5.668 5.33 11.902 9.56 19.623 11.404 3.147.753 6.152 2.326 6.865 5.853 1.501 7.429 6.24 12.241 12.14 16.402 6.406 4.517 7.525 7.108 3.469 13.772-5.679 9.33-5.441 16.94 3.366 23.943 2.78 2.21 3.023 5.515 1.708 8.699-1.315 3.185-4.071 4.086-7.333 4.116-3.321.029-6.682.014-9.948.52-3.77.583-6.32 2.991-7.13 6.799-.777 3.658 1.487 5.863 4.113 7.894 4.184 3.234 9.182 4.606 14 6.429 9.56 3.617 11.549 8.945 6.754 17.866-7.409 13.785-6.233 26.886 3.339 39.18 5.011 6.437 9.471 13.282 14.92 19.404 3.214 3.609 2.718 8.205-.654 9.964-4.407 2.297-6.206-1.211-7.472-4.173-2.994-7.003-8.472-10.398-15.532-11.958-4.905-1.083-9.924-2.23-13.334-6.244-6.859-8.074-15.8-8.038-24.784-6.062-9.094 2.002-14.636 13.426-11.582 22.242 4.078 11.771 16.044 16.753 28.136 11.592 3.202-1.366 6.166-3.287 9.357-4.683 3.582-1.565 6.685-.269 7.482 3.369 1.94 8.85 3.294 17.878-2.645 25.951-5.465 7.43-6.807 15.638-5.643 24.613.897 6.916 2.375 13.855 1.386 20.88-1.145 8.142-2.243 17.065-9.545 21.761-12.158 7.817-24.939 14.909-40.243 14.615-4.636-.089-8.617 1.888-10.936 5.9-3.745 6.48-7.294 13.101-10.475 19.873-2.759 5.87.242 10.903 6.805 12.162 2.284.438 4.617.625 6.933.883 12.791 1.429 24.136-.657 32.413-11.95 3.221-4.393 7.348-8.202 11.44-11.854 5.441-4.855 9.094-10.585 10.282-17.777.816-4.938 3.606-8.426 7.468-11.361 6.918-5.26 14.593-5.949 22.771-4.148 9.718 2.141 9.974 2.387 8.894 12.272-.351 3.212-.287 6.32.851 9.332 2.527 6.696 9.17 10.629 16.726 9.99 6.458-.546 11.809-4.863 12.646-10.202.992-6.337-3.055-13.176-9.949-16.336-2.55-1.169-5.333-1.844-8.034-2.667-4.854-1.481-6.057-3.894-4.268-8.624 1.319-3.485 3.489-6.122 7.297-6.848 7.871-1.497 15.78-2.687 23.789-1.043 5.057 1.038 9.901.273 13.562-3.261 7.213-6.965 14.475-7.803 22.861-2.118 4.548 3.084 9.361 2.67 13.896-.859 6.169-4.801 12.865-8.886 18.538-14.381 4.608-4.465 8.507-3.634 11.445 2.244 1.628 3.254 2.48 6.889 4.029 10.188 3.506 7.468 9.461 9.951 17.284 7.422 1.423-.46 2.773-1.134 4.178-1.654 4.047-1.501 7.614-.521 10.48 2.516 2.667 2.828.095 5.201-1.079 7.647-3.419 7.124-1.315 11.735 6.183 12.535 8.259.882 13.896 5.102 17.525 12.306 2.814 5.587 6.688 10.31 11.213 14.576 3.291 3.104 6.89 4.778 11.303 2.691 5.367-2.537 11.312-4.404 11.913-11.938 1.08-13.531-1.462-25.465-12.999-34.269-4.189-3.197-4.427-6.906-1.56-11.467 1.471-2.34 2.393-4.729 2.257-7.503-.26-5.287 2.518-8.311 7.515-8.789 6.747-.647 9.886-4.254 11.095-10.703 1.374-7.333 2.578-7.683 9.299-4.018 3.432 1.872 6.943 3.812 10.71 1.146 3.712-2.627 4.059-6.699 3.687-10.803-.163-1.796-.673-3.598-1.273-5.31-1.48-4.215-1.21-8.182 1.319-11.915 2.147-3.169 2.917-6.507 2.31-10.401-.722-4.618 1.601-6.903 6.293-6.632 3.642.21 7.194 1.269 10.913.951 7.036-.601 8.884-2.073 10.601-8.968 1.125-4.517 2.109-9.063 3.985-13.368 1.424-3.27 1.704-6.561-1.522-9.032-3.246-2.486-6.534-1.836-9.724.288-2.208 1.471-4.331 3.122-6.688 4.305-2.29 1.149-4.974 1.759-6.762-.85-1.896-2.769-.337-4.949 1.694-6.997 3.394-3.423 7.703-5.881 10.439-9.994 3.367-5.062 3.045-9.694-1.249-13.986-1.639-1.636-3.63-2.915-5.437-4.386-3.966-3.229-6.148-7.299-6.174-12.526-.035-7.142 1.282-8.304 8.276-6.623 6.737 1.619 13.227 1.537 19.173-2.505 4.888-3.317 6.159-7.451 4.189-13.035zm-270.287 142.078c-4.234.131-6.38-2.2-6.417-6.967-.047-5.982 3.403-10.849 7.837-11.056 4.199-.196 7.307 3.052 7.326 7.654.02 5.349-4.093 10.226-8.746 10.369zm163.771 35.332c-2.806 2.968-6.23 4.891-10.5 4.827-1.637-.114-3.502.064-4.307-1.773-.814-1.858.598-3.1 1.686-4.325 2.995-3.378 6.451-5.789 11.264-4.549 3.411.881 4.221 3.316 1.857 5.82zM348.731 205.071c-6.644-7.065-12.565-13.918-12.663-24.886-.085-9.565-8.093-15.466-17.805-16.193-7.431-.558-13.542 2.545-19.653 6.131-5.455 3.201-7.564 2.259-9.625-3.693-3.004-8.677-3.459-9.016-12.465-8.485-2.821.166-5.637.482-8.444.824-3.714.453-7.282.253-10.685-1.551-7.263-3.852-15.195-4.66-23.222-4.981-5.929.128-11.803.42-15.646 5.94-5.042 7.241-2.875 15.567 6.113 21.125 5.342 3.304 7.063 6.996 5.498 13.242-2.346 9.359 1.215 16.543 9.706 21.329 6.289 3.544 12.031 7.699 16.971 13.007 4.918 5.286 11.958 6.397 18.816 3.54 6.573-2.737 7.223-8.053 6.57-14.071-.436-4.015.143-7.917 3.538-10.391 5.666-4.131 8.819-8.938 6.411-16.184-.417-1.252-.244-2.732 1.227-3.469 1.388-.695 2.714-.277 3.586.85 2.583 3.341 6.204 5.522 9.161 8.426 3.542 3.478 5.233 8.01 4.507 12.753-1.619 10.595 2.648 18.71 9.457 26.185 4.215 4.628 9.269 5.606 14.984 4.355 3.581-.783 6.997-2.127 10.081-4.213 11.024-7.454 12.59-20.011 3.582-29.59zm-76.084-14.151c-1.974 1.946-4.404 2.773-6.711.877-3.459-2.844-6.701-5.962-9.936-9.067-1.47-1.412-1.6-3.291-.753-5.087 1.068-2.267 3.127-2.795 6.591-2.649 4.732.871 9.441 3.676 12.545 8.834 1.7 2.826.266 5.12-1.736 7.092z"/></g></svg>