<?xml version="1.0" encoding="utf-8"?>
<!-- Generator: Adobe Illustrator 16.0.4, SVG Export Plug-In . SVG Version: 6.00 Build 0)  -->
<!DOCTYPE svg PUBLIC "-//W3C//DTD SVG 1.1//EN" "http://www.w3.org/Graphics/SVG/1.1/DTD/svg11.dtd">
<svg version="1.1" id="Layer_1" xmlns="http://www.w3.org/2000/svg" xmlns:xlink="http://www.w3.org/1999/xlink" x="0px" y="0px"
	 width="1080.23px" height="512.117px" viewBox="-27.998 0 1080.23 512.117" enable-background="new -27.998 0 1080.23 512.117"
	 xml:space="preserve">
<g>
	<path fill="#FE6B5E" d="M113.183,308.712c-13.73,0.059-17.971-3.701-19.78-17.492c-0.259-1.978-0.573-3.951-0.988-5.901
		c-1.153-5.42-3.85-7.321-9.308-6.31c-8.873,1.647-17.606,0.812-26.165-1.604c-14.081-3.977-19.731-25.654-9.551-36.827
		c3.684-4.044,7.854-7.693,12.096-11.164c4.491-3.676,9.713-4.996,15.437-3.071c3.05,1.026,6.17,1.091,9.356,1.059
		c12.891-0.132,21.553,6.346,24.659,18.851c2.322,9.346,6.021,17.559,14.593,22.88c2.498,1.551,3.539,4.303,4.255,7.121
		c1.374,5.399,3.768,10.289,7.527,14.455c3.166,3.508,2.691,6.903-0.322,10.198C129.102,307.349,121.437,308.865,113.183,308.712
		L113.183,308.712z M679.65,95.986c-0.17-3.342,0.568-7.629,2.166-11.663c3.062-7.721,6.525-15.285,9.582-23.008
		c2.799-7.074,8.484-11.395,14.32-15.544c3.188-2.267,6.594-2.042,9.574,0.73c2.979,2.771,3.607,6.261,1.389,9.467
		c-3.732,5.394-4.135,10.617-1.018,16.346c1.512,2.776,0.631,5.634-1.053,8.014c-5.053,7.149-6.381,15.624-8.703,23.741
		c-0.924,3.227-0.035,5.873,3.152,7.547c5.738,3.015,11.381,6.039,17.975,7.113c8.562,1.396,14.828,5.649,16.068,15.151
		c0.48,3.674,3.25,5.024,6.625,5.765c12.043,2.646,15.199,9.293,9.596,20.536c-3.535,7.097-8.928,12.033-17.326,12.437
		c-5.869,0.283-9.385-2.108-11.531-7.581c-0.543-1.38-1.092-2.854-1.164-4.307c-0.4-8.169-4.107-12.744-12.721-13.431
		c-4.252-0.34-6.354-3.912-6.934-8.083c-0.627-4.531-2.285-8.615-4.789-12.45c-3.148-4.823-7.119-7.761-13.213-7.163
		c-5.371,0.526-8.492-2.469-9.855-7.295C680.388,107.342,679.683,102.223,679.65,95.986L679.65,95.986z M705.998,439.744
		c-3.75,0.24-6.508-1.588-8.787-4.143c-3.305-3.703-6.76-5.092-11.336-2.025c-2.432,1.629-5.422,1.561-8.25,1.111
		c-2.506-0.396-4.6-1.83-4.502-4.512c0.092-2.521,1.861-4.277,4.525-4.549c2.146-0.219,4.322-0.152,6.486-0.213
		c7.186-0.199,10.35-5.475,6.469-11.502c-3.373-5.24-8.611-8.771-13.795-12.053c-2.43-1.535-5.102,0.025-7.512,1.33
		c-7.035,3.807-8.447,3.438-13.607-2.396c-2.973-3.363-6.271-6.434-9.354-9.703c-4.783-5.074-5.129-9.154-0.998-14.674
		c3.23-4.32,5.91-8.84,6.986-14.191c0.822-4.08,3.502-6.012,7.502-5.822c8.932,0.428,15.658,5.031,21.025,11.809
		c1.844,2.326,1.08,5.016,0.203,7.627c-4.533,13.482-3.547,15.248,10.178,18.145c2.104,0.443,4.275,0.605,6.424,0.756
		c5.67,0.398,10.744,2.176,14.822,6.279c4.691,4.723,9.398,9.432,14.008,14.234c4.201,4.377,4.348,8.219,0.311,12.738
		C721.207,434.242,714.371,438.416,705.998,439.744L705.998,439.744z M710.314,320.916c2.447,0,3.951,0.078,5.445-0.016
		c4.854-0.301,6.105-2.049,4.904-6.811c-1.057-4.193-2.062-8.4-3.266-12.553c-1.619-5.59-4.434-10.408-9.553-13.562
		c-3.48-2.143-5.355-5.09-4.127-9.223c1.23-4.14,4.494-6.125,8.52-6.736c3.99-0.605,6.484,1.441,8.27,4.971
		c3.055,6.04,7.936,10.678,12.707,15.316c5.107,4.965,8.934,10.654,11.562,17.285c4.186,10.557,1.113,19.408-9.43,23.76
		c-8.578,3.539-16.186,8.434-23.668,13.748c-3.262,2.316-5.625,4.961-6.893,8.803c-1.674,5.078-5.02,8.648-10.543,9.498
		c-3.354,0.518-6.463-0.484-6.467-4.346c-0.01-10.521,0.658-20.973,6.109-30.463C697.773,323.822,702.765,319.289,710.314,320.916
		L710.314,320.916z M696.306,487.912c-8.875-0.109-16.896-3.291-24.859-6.783c-8.26-3.621-9.359-3.264-13.926,4.48
		c-1.76,2.982-3.641,5.338-7.514,3.678c-3.604-1.547-3.943-4.602-3.453-7.965c0.07-0.492,0.166-0.992,0.334-1.457
		c1.211-3.338,4.65-5.984,3.314-10.1c-1.273-3.93-5.449-4.658-8.139-7.039c-2.562-2.271-3.916-4.979-3.145-8.422
		c0.725-3.238,2.832-5.24,6.062-5.92c4.717-0.99,9.426-2.07,14.189-2.754c3.934-0.564,7.709,0.443,10.705,3.15
		c3.994,3.607,8.324,3.824,12.971,1.762c5.873-2.613,11.562-2.322,17.336,0.436c4.834,2.311,7.207,5.938,6.307,11.207
		c-0.852,4.996-0.736,9.869-0.041,14.881C707.658,485.744,705.15,488.23,696.306,487.912L696.306,487.912z M118.018,184.564
		c-4.048,0.072-8.231,0.347-10.238-4.296c-1.694-3.917,0.054-8.364,4.117-10.629c3.949-2.201,8.336-1.714,10.037,2.122
		c3.876,8.743,11.069,9.879,19.146,10.659c7.263,0.701,14.48,2.056,21.653,3.46c11.605,2.272,16.177,13.235,9.705,23.263
		c-3.426,5.309-7.115,10.393-9.429,16.385c-1.816,4.702-6.089,5.216-10.067,3.54c-7.411-3.122-15.028-3.975-22.938-3.803
		c-4.153,0.09-7.919-1.187-10.251-5.036c-2.541-4.193-1.654-9.082,2.466-11.86c2.317-1.562,4.963-2.7,7.573-3.751
		c4.127-1.662,4.704-4.252,2.517-7.856c-1.208-1.991-2.392-3.999-3.522-6.036C125.33,184.498,125.341,184.491,118.018,184.564
		L118.018,184.564z M600.919,23.633c0.053,11.695-9.02,21.889-19.432,21.832c-13.104-0.071-23.479-9.902-23.416-22.188
		c0.059-11.006,10.029-20.703,21.355-20.767C592.066,2.44,600.861,11.083,600.919,23.633z M56.027,170.287
		c8.918,1.792,18.314,3.176,27.083,6.828c3.994,1.664,5.683,5.296,5.564,9.765c-0.118,4.401-2.36,7.104-6.22,8.731
		c-3.097,1.306-6.242,2.15-9.686,1.559c-9.597-1.645-19.142-1.43-28.683,0.69c-7.287,1.621-12.625-0.912-14.863-6.632
		c-2.298-5.875,0.209-12.708,6.125-16.319C41.581,171.106,48.844,171.885,56.027,170.287z M218.501,383.955
		c0.032,12.457-5.112,17.121-17.087,15.676c-7.31-0.881-13.729-3.916-19.115-8.934c-5.189-4.83-6.301-10.885-3.378-17.268
		c0.414-0.904,0.895-1.787,1.417-2.635c4.205-6.824,9.511-12.666,18.205-11.754c9.709,1.018,15.784,7.27,18.693,16.465
		C218.132,378.343,218.742,381.314,218.501,383.955L218.501,383.955z M906.728,329.669c0.395-5.818,2.109-11.199,4.121-16.49
		c0.799-2.1,2.529-3.346,4.75-2.682c9.301,2.787,18.527,5.812,24.119,14.686c5.135,8.143,4.098,13.168-3.771,18.504
		c-5.168,3.508-10.947,5.562-17.008,6.869c-4.631,1-7.756-0.535-9.023-5.385C908.572,340.025,907.066,334.923,906.728,329.669
		L906.728,329.669z M376.362,86.796c1.263-8.766,1.34-17.484-0.486-26.247c-1.076-5.156,2.253-9.957,7.276-11.603
		c5.924-1.941,13.281,1.014,16.307,6.549c2.454,4.492,1.692,9.802-2.604,12.948c-6.508,4.765-8.069,10.854-6.547,18.41
		c0.947,4.7,2.277,9.383,2.136,14.25c-0.066,2.335-0.138,4.904-2.501,6.138c-2.721,1.42-4.217-1.009-5.899-2.497
		C378.657,99.985,375.16,94.402,376.362,86.796z M669.552,261.597c-2.816-0.795-5.639-1.299-8.219-2.381
		c-5.77-2.412-6.318-7.114-1.473-11.146c2.406-2.004,5.332-2.825,8.326-3.037c5.617-0.397,10.607-2.24,15.49-5.036
		c6.377-3.652,13.844-0.343,15.447,6.361c0.896,3.757-0.324,6.889-3.605,8.481C687.345,258.802,678.351,259.839,669.552,261.597
		L669.552,261.597z M454.144,415.789c5.654,0.273,11.314,0.602,16.818,2.037c5.116,1.336,8.426,5.504,8.493,10.434
		c0.074,5.543-3.686,10.707-8.774,12.053c-4.318,1.145-8.062-0.488-9.987-5.301c-2.241-5.602-5.374-9.381-11.873-9.68
		c-2.592-0.119-4.253-1.996-4.035-4.787c0.205-2.607,1.73-4.35,4.368-4.715C450.787,415.603,452.479,415.789,454.144,415.789
		L454.144,415.789z M159.024,300.607c0.852,0.236,2.222,0.385,3.368,0.973c7.241,3.702,14.075,8.1,20.802,12.646
		c2.3,1.555,3.031,3.873,1.743,6.559c-1.507,3.141-3.969,5.191-7.477,4.631c-8.955-1.436-17.333-4.496-24.472-10.285
		c-2.815-2.281-3.919-5.246-2.52-8.867C151.909,302.537,154.826,301.046,159.024,300.607L159.024,300.607z M294.709,340.404
		c5.389-0.039,10.127,1.512,13.906,5.549c2.436,2.602,2.853,5.643,1.708,8.805c-2.907,8.029-15.067,12.068-22.305,7.52
		c-4.814-3.023-6.999-8.439-5.544-13.748C283.91,343.285,288.208,340.431,294.709,340.404L294.709,340.404z M520.705,432.175
		c0.098,2.604-0.623,5.012-1.977,7.141c-4.381,6.906-5.77,14.414-4.986,22.465c0.293,3.027,0.016,6.012-2.225,8.428
		c-2.062,2.229-4.416,2.926-7.139,1.287c-2.635-1.586-2.846-3.932-1.74-6.502c0.65-1.521,1.48-2.979,2.314-4.412
		c3.418-5.883,3.99-11.828,0.836-18.064c-2.65-5.242-3.195-10.525,0.855-15.436c2.469-2.992,5.393-5.105,9.537-3.521
		C520.169,425.083,520.599,428.576,520.705,432.175L520.705,432.175z M247.291,415.513c-6.828-0.023-10.357-5.119-8.265-10.938
		c2.039-5.668,10.638-11.309,16.686-10.729c3.468,0.332,6.345,1.857,7.931,5.227c1.592,3.383,0.99,6.508-1.191,9.346
		C258.461,413.609,252.688,414.941,247.291,415.513L247.291,415.513z M269.056,286.662c-6.976,0.014-12.456-4.545-12.426-10.335
		c0.028-5.514,5.228-9.915,11.636-9.854c7.158,0.07,12.36,4.742,12.293,11.043C280.501,283.001,275.914,286.65,269.056,286.662z
		 M706.757,158.485c0.225,2.703-1.453,4.857-4.445,5.775c-2.354,0.723-4.863,0.97-7.32,1.318c-1.828,0.258-3.938,0.268-4.752,2.161
		c-3.268,7.602-11.443,9.246-16.938,14.134c-1.59,1.414-3.91,1.289-5.137-0.926c-1.201-2.167,0.787-2.766,2.15-3.67
		c1.371-0.91,3.189-1.71,3.844-3.037c2.764-5.617,6.418-9.741,12.939-11.157c2.436-0.528,3.053-3.749,4.154-5.956
		c2.059-4.124,5.004-6.445,9.922-5.671C704.958,152.051,706.666,154.18,706.757,158.485z M765.931,19.998
		c-0.053,6.739-5.729,12.462-12.396,12.5c-5.68,0.031-8.975-3.261-9-8.999c-0.029-6.692,6.086-12.622,12.961-12.563
		C762.712,10.978,765.976,14.485,765.931,19.998z M822.535,392.23c-5.293-0.08-10.014-4.77-9.918-9.859
		c0.1-5.227,3.773-9.025,8.689-8.986c5.312,0.043,10.301,4.973,10.314,10.193C831.634,388.396,827.529,392.306,822.535,392.23
		L822.535,392.23z M473.964,66.969c-5.054-0.013-8.36-3.358-8.418-8.516c-0.058-5.128,4.394-9.921,9.225-9.936
		c4.44-0.013,9.44,4.908,9.506,9.354C484.339,62.174,478.888,66.983,473.964,66.969z"/>
	<path fill="#FE6C5F" d="M810.144,136.507c-0.994-0.066-2.002-0.032-2.973-0.21c-2.42-0.442-5.133-0.562-5.922-3.601
		c-0.803-3.082,1.436-4.512,3.537-5.848c4.27-2.714,8.252-6.362,14.031-4.502c2.686,0.864,5.021,2.226,5.42,5.169
		c0.428,3.131-1.494,5.37-4.029,6.856C817.136,136.174,813.662,136.56,810.144,136.507z"/>
	<path fill="#FE6B5E" d="M665.232,156.841c-5.758-0.151-8.322-2.115-8.324-6.369c-0.002-4.915,5.146-9.875,10.174-9.805
		c5.119,0.071,9.055,4.049,8.789,8.886C675.613,154.257,671.597,157.008,665.232,156.841z M624.472,439.189
		c0.021-5.363,3-8.441,8.195-8.469c5.434-0.027,8.57,2.771,8.42,7.512c-0.16,5.031-4.324,8.803-9.578,8.67
		C626.882,446.785,624.451,444.121,624.472,439.189L624.472,439.189z"/>
	<path fill="#FE6C5F" d="M126.459,380.132c-0.106,4.572-3.319,7.57-8.056,7.52c-5.095-0.057-8.912-3.902-8.73-8.795
		c0.165-4.414,3.475-7.205,8.443-7.121C123.369,371.824,126.579,375.054,126.459,380.132L126.459,380.132z M200.672,325.652
		c-4.884-0.152-10.324-4.018-10.054-7.145c0.301-3.488,4.89-6.891,9.23-6.842c4.877,0.055,7.938,3.025,7.864,7.641
		C207.643,323.628,205.241,325.794,200.672,325.652z M974.107,349.109c4.186,0.002,6.654,2.414,6.586,6.428
		c-0.072,4.1-4.121,7.984-8.166,7.834c-3.691-0.135-6.645-3.131-6.672-6.771c-0.033-4.357,3.418-7.49,8.252-7.488V349.109z
		 M534.535,28.227c-0.271,1.164-0.504,2.819-1.061,4.355c-0.75,2.071-2.271,3.334-4.604,2.777c-2.4-0.574-3.023-2.326-2.508-4.581
		c1.291-5.653,2.053-11.371,2.203-17.17c0.037-1.389,0.361-2.787,2.061-2.862c1.76-0.078,2.068,1.394,2.229,2.727
		C533.429,18.226,533.945,22.986,534.535,28.227z"/>
	<path fill="#FE6C60" d="M787.794,398.337c0.152,3.58-1.66,5.227-5.143,5.15c-4.535-0.1-7.863-3.16-7.893-7.348
		c-0.029-3.951,2.219-5.73,5.979-5.748C785.031,390.376,787.812,393.56,787.794,398.337z"/>
	<path fill="#FE6D60" d="M787.48,320.853c-4.672,0.08-7.631-2.242-7.436-6.143c0.193-3.914,2.887-5.449,6.408-5.545
		c4.064-0.111,7.191,2.975,7.16,6.748C793.585,319.148,791.554,320.785,787.48,320.853z M367.337,450.562
		c-3.972-0.332-6.11-2.578-6.2-6.453c-0.085-3.709,2.236-5.354,5.736-5.447c3.609-0.098,6.824,2.719,6.64,6.02
		C373.303,448.423,371.026,450.292,367.337,450.562z"/>
	<path fill="#FE6C5F" d="M202.771,230.131c0.042,4.192-2.461,6.032-6.224,6.05c-3.322,0.016-5.739-1.578-5.685-5.371
		c0.056-3.918,2.755-6.444,6.684-6.379C201.088,224.489,202.802,226.358,202.771,230.131L202.771,230.131z"/>
	<path fill="#FE6D60" d="M861.345,313.914c3.787,0.398,6.248,2.059,6.395,6.154c0.121,3.449-1.646,5.48-4.941,5.422
		c-3.707-0.068-6.145-2.059-6.309-6.117C856.349,315.925,858.048,314.187,861.345,313.914L861.345,313.914z"/>
	<path fill="#FE6D61" d="M777.775,266.078c-0.004,4.242-2.516,6.079-5.922,6.137c-3.051,0.053-5.236-1.717-5.266-5.25
		c-0.033-3.852,2.072-5.963,5.639-6.133C775.724,260.666,777.603,262.83,777.775,266.078z"/>
	<path fill="#FE6C5F" d="M278.896,131.572c-4.158-0.123-6.631-2.944-6.462-6.56c0.146-3.135,2.17-3.775,4.725-3.708
		c3.789,0.1,6.493,1.723,6.5,5.821C283.663,130.434,281.322,131.565,278.896,131.572z"/>
	<path fill="#FE7164" d="M322.587,505.753c-0.212,2.34-1.632,3.861-4.428,3.854c-2.89-0.01-4.31-1.826-4.256-4.416
		c0.054-2.623,1.805-4.438,4.467-4.312C320.88,500.994,322.712,502.427,322.587,505.753z"/>
	<path fill="#FE7265" d="M-20.268,225.468c2.474,0.021,3.882,0.918,3.991,3.197c0.107,2.245-1.187,3.488-3.278,3.596
		c-2.3,0.118-3.867-1.049-3.923-3.518C-23.531,226.419-22.011,225.589-20.268,225.468z"/>
	<path fill="#FE7C71" d="M691.433,314.351c-2.096-0.414-3.42-1.604-3.43-3.689c-0.01-1.752,1.264-2.76,2.936-2.699
		c2.125,0.076,3.381,1.445,3.332,3.551C694.232,313.193,693.062,314.138,691.433,314.351z"/>
	<path fill="#FE7B6F" d="M794.365,133.173c-0.203,2.029-1.646,2.791-3.33,3.084c-1.646,0.286-3.111-0.358-3.205-2.161
		c-0.104-2.01,1.516-2.785,3.23-3.059C792.72,130.771,793.929,131.45,794.365,133.173z"/>
	<path fill="#FE6E61" d="M660.783,495.437c2.23,0.326,3.596,1.77,3.934,4.129c0.188,1.303-0.314,2.314-1.838,2.244
		c-2.605-0.119-3.617-1.965-4.125-4.148C658.433,496.285,659.119,495.48,660.783,495.437z"/>
	<path fill="#FE776B" d="M838.455,235.239c-0.182,1.305-0.652,2.147-1.809,2.121c-1.391-0.032-1.904-1.029-1.906-2.278
		c-0.002-0.911,0.561-1.508,1.455-1.586C837.587,233.377,838.128,234.316,838.455,235.239z"/>
	<path fill="#FE6B5E" d="M669.111,212.664c-2.596-7.362-8.301-11.67-16.076-12.145c-8.535-0.521-9.514-1.504-9.357-10.264
		c0.066-3.95-1.287-7.03-4.193-9.701c-6.959-6.392-7.436-9.013-3.654-17.472c3.312-7.41,0.107-13.443-7.967-14.396
		c-8.09-0.955-15.453,0.49-21.562,6.692c-5.43,5.511-10.789,5.371-16.889,0.503c-5.779-4.614-8.096-10.43-7.934-17.908
		c0.154-7.045-2.137-13.812-8.844-17.358c-6.48-3.426-11.34,1.118-16.139,4.753c-1.059,0.802-2.135,1.588-3.26,2.295
		c-1.582,0.993-3.424,1.775-5.201,1.509c-17.797-2.667-32.424-11.583-29.926-34.631c1.633-15.033,6.064-29.731,5.355-44.497
		c0-3.711,0.092-6.882-0.029-10.043c-0.102-2.625-0.908-4.822-3.84-5.757c-2.887-0.919-5.242-0.303-7.303,1.763
		c-1.82,1.827-2.691,4.208-3.469,6.572c-2.525,7.669-3.389,15.576-3.283,23.629c0.125,9.311-3.318,17.181-9.812,23.805
		c-8.729,8.902-14.307,9.192-23.353,0.769c-3.864-3.599-8.097-4.319-12.903-2.75c-2.212,0.722-4.387,1.577-6.536,2.473
		c-4.393,1.833-7.79,0.969-9.982-3.473c-1.222-2.476-2.954-4.997-5.658-5.264c-9.354-0.925-18.229-3.562-27.155-6.287
		c-4.284-1.307-6.542,0.914-6.751,5.523c-0.356,7.865,1.496,15.417,7.703,20.288c6.781,5.321,8.631,12.121,9.479,19.918
		c1.261,11.577-5.505,18.08-17.09,16.067c-3.65-0.634-7.066-1.952-9.963-4.353c-6.03-4.994-12.027-10.027-18.061-15.017
		c-9.953-8.236-17.687-17.81-21.182-30.698c-2.203-8.12-8.971-11.772-17.062-12.402c-6.795-0.53-11.932-3.644-16.266-8.64
		c-4.503-5.193-9.73-9.584-15.579-13.201c-2.843-1.757-5.962-2.54-8.941-0.576c-3.272,2.157-4.087,5.633-3.526,9.266
		c0.294,1.912,1.126,3.885,2.209,5.5c2.629,3.922,2.343,7.076-1.682,9.784c-3.558,2.395-4.536,5.836-4.19,10.006
		c0.674,8.127,4.882,13.979,11.34,18.492c6.693,4.678,13.402,9.342,19.368,14.952c5.668,5.33,11.902,9.56,19.623,11.404
		c3.147,0.753,6.152,2.326,6.865,5.853c1.501,7.429,6.24,12.241,12.14,16.402c6.406,4.517,7.525,7.108,3.469,13.772
		c-5.679,9.33-5.44,16.94,3.366,23.943c2.78,2.21,3.023,5.515,1.708,8.699c-1.314,3.185-4.07,4.086-7.333,4.116
		c-3.321,0.029-6.682,0.014-9.948,0.52c-3.77,0.583-6.32,2.991-7.13,6.799c-0.777,3.658,1.487,5.863,4.113,7.894
		c4.184,3.234,9.182,4.606,14,6.429c9.561,3.617,11.549,8.945,6.754,17.866c-7.409,13.786-6.233,26.885,3.339,39.18
		c5.012,6.438,9.472,13.281,14.92,19.404c3.215,3.609,2.719,8.205-0.653,9.963c-4.407,2.297-6.206-1.211-7.473-4.172
		c-2.993-7.004-8.472-10.398-15.531-11.959c-4.905-1.082-9.924-2.229-13.334-6.244c-6.859-8.073-15.8-8.037-24.784-6.062
		c-9.094,2.002-14.636,13.427-11.582,22.241c4.078,11.771,16.044,16.754,28.136,11.594c3.202-1.367,6.166-3.287,9.357-4.684
		c3.582-1.564,6.685-0.27,7.482,3.369c1.94,8.85,3.294,17.877-2.645,25.951c-5.465,7.43-6.807,15.637-5.643,24.613
		c0.897,6.916,2.375,13.854,1.386,20.879c-1.145,8.143-2.243,17.064-9.545,21.762c-12.158,7.816-24.939,14.908-40.243,14.615
		c-4.636-0.09-8.617,1.887-10.936,5.898c-3.745,6.48-7.294,13.102-10.475,19.873c-2.759,5.871,0.242,10.904,6.805,12.162
		c2.284,0.439,4.617,0.625,6.933,0.883c12.791,1.43,24.136-0.656,32.413-11.949c3.221-4.393,7.348-8.201,11.44-11.854
		c5.441-4.855,9.094-10.586,10.282-17.777c0.816-4.938,3.606-8.426,7.468-11.361c6.918-5.26,14.593-5.949,22.771-4.148
		c9.719,2.141,9.975,2.387,8.895,12.273c-0.352,3.211-0.287,6.318,0.851,9.332c2.527,6.695,9.17,10.629,16.727,9.988
		c6.458-0.545,11.809-4.861,12.646-10.201c0.992-6.338-3.055-13.176-9.948-16.336c-2.551-1.17-5.334-1.844-8.034-2.668
		c-4.854-1.48-6.058-3.893-4.269-8.623c1.319-3.484,3.489-6.121,7.297-6.848c7.871-1.498,15.78-2.688,23.789-1.043
		c5.058,1.037,9.901,0.273,13.562-3.262c7.213-6.965,14.475-7.803,22.86-2.117c4.549,3.084,9.361,2.67,13.896-0.859
		c6.168-4.801,12.866-8.887,18.538-14.381c4.607-4.465,8.508-3.635,11.445,2.244c1.629,3.254,2.48,6.889,4.029,10.188
		c3.506,7.469,9.461,9.951,17.283,7.422c1.424-0.459,2.773-1.135,4.178-1.654c4.047-1.5,7.615-0.521,10.48,2.516
		c2.668,2.828,0.096,5.201-1.078,7.648c-3.42,7.123-1.316,11.734,6.182,12.535c8.26,0.881,13.896,5.102,17.525,12.305
		c2.814,5.588,6.688,10.311,11.213,14.576c3.291,3.104,6.891,4.779,11.303,2.691c5.367-2.537,11.312-4.404,11.914-11.938
		c1.08-13.531-1.463-25.465-13-34.27c-4.188-3.197-4.426-6.906-1.559-11.467c1.471-2.34,2.393-4.729,2.256-7.504
		c-0.26-5.287,2.518-8.311,7.516-8.789c6.746-0.646,9.887-4.254,11.096-10.703c1.373-7.332,2.576-7.682,9.299-4.018
		c3.432,1.873,6.941,3.812,10.709,1.146c3.713-2.627,4.059-6.699,3.688-10.803c-0.164-1.797-0.674-3.598-1.273-5.311
		c-1.48-4.215-1.209-8.182,1.318-11.914c2.148-3.17,2.918-6.508,2.311-10.402c-0.721-4.617,1.602-6.902,6.293-6.631
		c3.643,0.209,7.195,1.268,10.914,0.951c7.035-0.602,8.883-2.074,10.6-8.969c1.125-4.518,2.109-9.062,3.986-13.367
		c1.424-3.271,1.703-6.562-1.523-9.033c-3.244-2.485-6.533-1.836-9.723,0.289c-2.209,1.471-4.332,3.121-6.688,4.305
		c-2.291,1.148-4.975,1.759-6.764-0.85c-1.895-2.77-0.336-4.949,1.695-6.998c3.393-3.423,7.703-5.881,10.438-9.994
		c3.367-5.062,3.045-9.693-1.248-13.985c-1.639-1.636-3.631-2.915-5.438-4.386c-3.965-3.229-6.148-7.299-6.174-12.526
		c-0.035-7.142,1.281-8.304,8.275-6.623c6.738,1.619,13.229,1.537,19.174-2.505C669.81,222.382,671.08,218.248,669.111,212.664
		L669.111,212.664z M398.823,354.742c-4.233,0.131-6.38-2.199-6.417-6.967c-0.047-5.982,3.403-10.85,7.837-11.057
		c4.199-0.195,7.308,3.053,7.326,7.654C407.59,349.722,403.477,354.599,398.823,354.742L398.823,354.742z M562.595,390.074
		c-2.807,2.969-6.23,4.891-10.5,4.826c-1.639-0.113-3.502,0.064-4.309-1.771c-0.812-1.859,0.6-3.1,1.688-4.326
		c2.994-3.377,6.451-5.789,11.264-4.549C564.148,385.134,564.958,387.57,562.595,390.074L562.595,390.074z M314.208,204.577
		c-6.644-7.065-12.565-13.918-12.663-24.886c-0.085-9.565-8.093-15.466-17.805-16.193c-7.431-0.558-13.542,2.545-19.653,6.131
		c-5.455,3.201-7.564,2.259-9.625-3.693c-3.004-8.677-3.459-9.016-12.465-8.485c-2.821,0.166-5.637,0.482-8.444,0.824
		c-3.714,0.453-7.282,0.253-10.685-1.551c-7.263-3.852-15.195-4.66-23.222-4.981c-5.929,0.128-11.803,0.42-15.646,5.94
		c-5.042,7.241-2.875,15.567,6.113,21.125c5.342,3.304,7.063,6.996,5.498,13.242c-2.346,9.359,1.215,16.543,9.706,21.329
		c6.289,3.544,12.031,7.699,16.971,13.007c4.918,5.286,11.958,6.397,18.816,3.54c6.573-2.737,7.223-8.053,6.57-14.071
		c-0.436-4.015,0.143-7.917,3.538-10.391c5.666-4.131,8.819-8.938,6.411-16.184c-0.417-1.252-0.244-2.732,1.227-3.469
		c1.388-0.695,2.714-0.277,3.586,0.85c2.583,3.341,6.204,5.521,9.161,8.426c3.542,3.478,5.233,8.01,4.507,12.753
		c-1.619,10.595,2.648,18.71,9.457,26.185c4.215,4.628,9.269,5.606,14.984,4.355c3.581-0.783,6.997-2.127,10.081-4.213
		C321.649,226.713,323.216,214.156,314.208,204.577L314.208,204.577z M238.124,190.426c-1.974,1.946-4.404,2.773-6.711,0.877
		c-3.459-2.844-6.701-5.962-9.936-9.067c-1.47-1.412-1.6-3.291-0.753-5.087c1.068-2.267,3.127-2.795,6.591-2.649
		c4.732,0.871,9.441,3.676,12.545,8.834C241.56,186.16,240.125,188.454,238.124,190.426z"/>
</g>
</svg>
