<svg xmlns="http://www.w3.org/2000/svg" width="459.942" height="459.942" viewBox="0 0 459.942 459.942"><path fill-rule="evenodd" clip-rule="evenodd" fill="#fff" d="M231.383 1.639c-126.089-.266-230.557 103.533-229.425 228.497-1.25 127.731 102.45 226.838 222.031 229.743 133.857 3.252 233.403-103.117 235.967-223.65 2.788-131.117-103.709-234.327-228.573-234.59zm110.765 165.374c-3.542 3.974-7.301 7.775-11.188 11.417-4.865 4.558-6.753 9.76-7.243 16.653-1.992 28.003-10.478 53.797-27.759 76.477-18.879 24.774-42.854 41.476-73.547 47.642-27.429 5.509-54.433 4.383-80.402-7.224-4.551-2.034-9.079-4.124-13.567-6.293-1.421-.687-3.186-1.116-3.821-3.679 22.425-.275 44-3.435 62.979-17.784-3.712-1.44-7.129-2.812-10.578-4.096-11.264-4.192-20.356-11.082-26.595-21.469-1.175-1.956-2.744-4.282-1.701-6.429 1.118-2.302 3.906-1.135 5.967-1.236 3.104-.153 6.222-.04 9.542-.57-5.423-3.773-11.421-6.425-16.518-10.547-10.193-8.245-14.666-19.378-16.729-31.826-.534-3.228.668-4.254 3.837-3.023 2.783 1.081 5.625 2.064 8.518 2.777 1.306.321 3.252.998 4.056-.642.704-1.435-1.069-2.223-1.901-3.16-6.262-7.054-11.188-14.715-12.827-24.295-1.79-10.468-.393-20.445 3.299-30.267 1.282-3.412 2.512-1.352 3.802-.152 5.72 5.319 10.975 11.088 16.991 16.149 17.991 15.132 38.551 24.458 61.599 28.51 3.091.544 6.397.295 9.322 1.265 5.04 1.673 4.831-1.606 4.1-4.309-1.558-5.756-.266-11.188.959-16.676 6.792-30.425 44.054-46.019 69.579-27.391 7.104 5.184 13.279 6.381 21.197 2.616 5.012-2.384 10.425-4.08 16.686-6.918-2.616 7.525-6.566 12.595-10.798 17.485-.979 1.132-2.117 2.134-3.015 3.323-.564.748-1.261 1.74-.535 2.713.741.995 1.752.49 2.723.189 3.641-1.128 7.291-2.229 10.955-3.28 1.541-.441 3.533-1.967 4.616-.464 1.266 1.761-.958 3.341-2.003 4.514z"/></svg>