<svg xmlns="http://www.w3.org/2000/svg" width="501.141" height="209.012" viewBox="0 0 501.141 209.012"><g fill-rule="evenodd" clip-rule="evenodd" fill="#fff"><path d="M168.009 158.658c-3.707 3.246-6.088 6.037-9.173 8.083-12.333 8.173-23.563 2.854-24.673-11.862-.325-4.306-.142-8.653-.143-12.981-.01-22.978.066-45.956-.077-68.934-.023-3.689.622-5.645 4.839-5.087 4.56.603 10.482-1.972 13.417 1.067 2.677 2.772.765 8.569.78 13.026.074 21.48.031 42.959.036 64.438.001 2.659-.369 5.67 2.765 6.85 2.852 1.074 5.041-.777 7.065-2.553 3.527-3.093 5.355-6.619 5.289-11.685-.286-22.142-.036-44.29-.208-66.435-.028-3.725.949-5.065 4.731-4.732 3.634.321 7.326.203 10.981.029 2.657-.127 3.415.916 3.41 3.475-.063 31.304-.071 62.607.011 93.911.007 2.835-.893 3.85-3.714 3.685-3.319-.193-6.696-.364-9.978.033-4.542.55-6.06-1.213-5.385-5.527.19-1.233.027-2.523.027-4.801zM0 33.94c6.634 0 12.752.037 18.869-.019 2.529-.023 2.763 1.708 3.255 3.567 3.905 14.763 7.889 29.504 11.857 44.25.159.59.405 1.156 1.578 1.873 2.141-7.862 4.302-15.719 6.418-23.587 2.025-7.53 4.147-15.039 5.925-22.627.62-2.644 1.721-3.599 4.367-3.511 4.658.153 9.339.268 13.982-.03 3.692-.236 3.619 1.17 2.726 4.004-7.592 24.076-15.062 48.191-22.624 72.276-.907 2.89-1.38 5.758-1.364 8.801.08 15.153-.051 30.309.104 45.461.035 3.345-.693 4.943-4.363 4.553-5.069-.539-11.674 2.145-14.853-1.138-2.924-3.021-.695-9.518-.823-14.481-.124-4.825-.515-9.716.056-14.477 2.766-23.049-6.235-43.744-12.638-64.957-3.972-13.164-8.186-26.257-12.472-39.958zM501.061 93.134c-.2-19.63-.415-39.298-5.16-58.496-4.59-18.579-17.369-29.931-34.744-31.631-18.227-1.783-36.533-2.16-54.811-2.721-18.31-.562-36.649-.123-54.977-.123-35.619-.394-71.223-.09-106.766 2.708-18.792 1.478-31.445 11.779-36.654 29.957-4.542 15.852-4.8 32.199-5.551 48.407-1.14 24.621-.313 49.268 1.786 73.844.767 8.968 2.563 17.729 5.764 26.195 3.968 10.497 11.212 17.458 21.786 21.124 6.028 2.09 12.304 2.819 18.564 3.469 23.035 2.393 46.196 2.088 69.302 2.68 29.127.746 58.271.599 87.41-.473 16.796-.617 33.599-1.07 50.358-2.302 15.151-1.113 27.727-6.841 34.701-21.384 3.927-8.189 5.812-16.947 6.777-25.911 2.34-21.723 2.436-43.532 2.215-65.343zm-228.977-39.286c-3.959-.268-4.146 1.739-4.134 4.799.09 21.983.048 43.965.048 65.948 0 13.322-.122 26.647.08 39.967.055 3.582-1.098 4.653-4.54 4.41-3.811-.27-7.671-.273-11.481.001-3.43.246-4.139-1.178-4.117-4.314.126-17.818.061-35.637.061-53.457 0-17.486-.139-34.973.103-52.457.057-4.106-1.283-5.157-5.088-4.887-4.142.296-8.325-.03-12.484.102-2.454.077-3.89-.562-3.527-3.312l.001-.5c.249-4.795-1.977-10.923.829-14.035 2.891-3.208 9.125-.974 13.88-1.025 14.319-.155 28.647.151 42.962-.175 4.604-.105 5.818 1.396 5.386 5.651-.335 3.296-.202 6.661-.027 9.983.139 2.647-.892 3.499-3.469 3.418-4.826-.15-9.675.209-14.483-.117zm64.319 115.092c-3.659-.121-7.342-.248-10.984.032-3.484.268-4.908-.891-4.467-4.438.224-1.798.039-3.646.039-6.513-3.003 2.791-5.226 4.97-7.567 7.011-4.191 3.65-8.979 5.57-14.663 4.924-5.578-.634-9.762-5.089-10.743-12.033-.556-3.938-.962-7.932-.977-11.902-.089-24.143.034-48.288-.13-72.431-.025-3.715.934-5.096 4.725-4.732 3.299.316 6.673.291 9.978.005 3.561-.308 4.473 1.028 4.453 4.489-.139 24.309-.089 48.62-.052 72.931.005 2.714-.941 6.042 2.619 7.33 3.312 1.199 5.764-1.001 7.967-3.014 2.89-2.638 4.536-5.687 4.493-9.999-.221-22.311-.025-44.624-.181-66.936-.025-3.606.741-5.178 4.646-4.812 3.632.34 7.324.19 10.981.035 2.552-.108 3.497.73 3.491 3.394-.072 31.137-.075 62.274.001 93.411.007 2.81-1.243 3.327-3.629 3.248zm71.415-14.568c-1.337 14.624-15.421 20.428-27.205 11.553-2.473-1.861-4.644-4.122-7.414-6.612-.493 9.598-.493 9.598-9.63 9.598-8.583 0-8.583 0-8.583-8.714 0-39.973.081-79.946-.112-119.918-.022-4.508 1.241-5.548 5.567-5.458 12.435.262 12.438.066 12.438 12.498v29.867c2.001.194 2.605-1.223 3.472-2.081 5.793-5.735 12.514-9.305 20.69-6.641 8.224 2.678 10.209 10.253 10.812 17.628 1.862 22.741 2.043 45.546-.035 68.28zm32.082-28.153c.297 5.313.086 10.657.068 15.987-.008 1.844.199 3.618.764 5.402 1.403 4.441 4.369 6.617 8.97 6.233 4.862-.406 6.787-3.739 7.221-8.117.246-2.477.352-5.016.101-7.484-.372-3.654 1.215-4.601 4.583-4.382 3.815.248 7.659.057 11.49.066 1.365.003 2.871-.022 2.804 1.923-.301 8.786.068 17.739-6.242 25.046-7.909 9.159-18.036 11.005-29.03 7.922-11.061-3.102-16.726-11.322-18.688-22.405-1.612-9.104-.616-18.274-1.016-26.93.329-10.93-.752-21.446 1.918-31.77 3.516-13.595 13.986-20.734 29.309-19.824 11.585.689 21.195 10.718 22.94 23.31 1.243 8.973.557 17.949.937 26.915.137 3.208-1.138 3.906-4.061 3.859-9.159-.148-18.325.078-27.483-.123-3.36-.074-4.79.71-4.585 4.372zM120.139 118.778c-.699-9.952.825-19.958-1.057-29.884-2.671-14.084-12.047-21.848-26.63-21.867-13.596-.017-23.682 7.915-25.298 21.915-2.289 19.839-2.059 39.858-.087 59.733 1.287 12.974 12.712 22.135 25.986 22.128 13.485-.008 23.897-9.015 26.095-22.131 1.668-9.954.31-19.939.991-29.894zm-19.25 26.367c-.065 5.1-3.92 8.703-7.995 8.624-4.241-.082-7.688-3.923-7.811-9.372-.191-8.487-.051-16.982-.056-25.474-.005-8.159-.093-16.318.033-24.476.063-4.136.928-8.159 5.614-9.521 5.427-1.577 10.084 1.624 10.192 7.775.307 17.477.246 34.964.023 52.444zM389.952 118.898c0 8.484.106 16.971-.052 25.452-.065 3.52-.698 7.044-4.436 8.832-3.632 1.74-6.781.234-9.861-1.569-1.856-1.088-2.769-2.576-2.76-4.878.072-18.465.066-36.932.022-55.397-.013-5.423 4.168-6.402 7.96-7.278 3.727-.86 6.866.377 8.253 4.512.704 2.099.918 4.195.912 6.371-.021 7.985-.009 15.97-.009 23.955h-.029zM456.973 97.899c.001 9.125.001 9.125-9.096 9.124-.993 0-2.005-.121-2.977.021-3.86.567-5.411-.879-4.99-4.888.328-3.11-.008-6.285.086-9.427.182-6.139 2.976-8.87 8.86-8.807 5.317.057 7.935 2.951 8.107 9.011.049 1.655.009 3.311.01 4.966z"/></g></svg>