
<svg class="youtube" version="1.1" id="Layer_1" xmlns="http://www.w3.org/2000/svg" xmlns:xlink="http://www.w3.org/1999/xlink" x="0px" y="0px"
	 width="71.959px" height="30.012px" viewBox="14.021 0 71.959 30.012" enable-background="new 14.021 0 71.959 30.012"
	 xml:space="preserve">
<g>
	<g id="you">
		<path fill="none" d="M31.12,12.764c-0.384-2.021-1.73-3.137-3.824-3.14c-1.952-0.002-3.4,1.137-3.633,3.146
			c-0.329,2.85-0.295,5.724-0.012,8.577c0.185,1.863,1.825,3.179,3.731,3.178c1.936-0.001,3.431-1.295,3.747-3.178
			c0.24-1.43,0.044-2.863,0.143-4.293C31.171,15.626,31.39,14.19,31.12,12.764z M28.507,20.841c-0.009,0.732-0.563,1.25-1.148,1.238
			c-0.609-0.012-1.104-0.562-1.122-1.346c-0.027-1.219-0.007-2.438-0.008-3.657c0-1.172-0.013-2.344,0.005-3.515
			c0.009-0.594,0.133-1.172,0.806-1.367c0.779-0.227,1.448,0.233,1.463,1.116C28.548,15.821,28.539,18.331,28.507,20.841z"/>
		<path fill="none" d="M23.925,5.437c0.128-0.407,0.139-0.609-0.391-0.575c-0.667,0.043-1.339,0.026-2.008,0.004
			c-0.38-0.013-0.538,0.125-0.627,0.504c-0.255,1.09-0.56,2.168-0.851,3.249c-0.304,1.13-0.614,2.259-0.921,3.388
			c-0.168-0.104-0.204-0.185-0.227-0.27c-0.57-2.117-1.142-4.233-1.703-6.354c-0.07-0.267-0.104-0.516-0.467-0.513
			c-0.878,0.009-1.757,0.003-2.709,0.003c0.616,1.968,1.221,3.848,1.791,5.737c0.919,3.047,2.212,6.018,1.814,9.327
			c-0.082,0.685-0.026,1.387-0.008,2.079c0.019,0.713-0.302,1.646,0.118,2.079c0.457,0.472,1.405,0.086,2.133,0.164
			c0.527,0.056,0.631-0.174,0.626-0.654c-0.022-2.176-0.003-4.352-0.015-6.527c-0.002-0.438,0.066-0.849,0.196-1.264
			C21.762,12.356,22.835,8.894,23.925,5.437z"/>
		<path fill="none" d="M40.879,10.246c0-0.367-0.108-0.518-0.49-0.499c-0.525,0.024-1.055,0.042-1.577-0.004
			c-0.543-0.048-0.684,0.145-0.679,0.679c0.024,3.181-0.011,6.36,0.03,9.54c0.009,0.728-0.253,1.233-0.76,1.678
			c-0.291,0.255-0.605,0.521-1.014,0.366c-0.45-0.169-0.397-0.602-0.397-0.983c-0.001-3.084,0.005-6.168-0.005-9.253
			c-0.002-0.64,0.272-1.472-0.112-1.87c-0.421-0.437-1.272-0.066-1.927-0.153c-0.605-0.08-0.698,0.201-0.695,0.73
			c0.021,3.3,0.01,6.599,0.011,9.898c0,0.621-0.026,1.245,0.021,1.864c0.159,2.112,1.772,2.876,3.542,1.703
			c0.443-0.294,0.785-0.695,1.317-1.161c0,0.327,0.023,0.513-0.004,0.689c-0.097,0.619,0.121,0.873,0.773,0.794
			c0.471-0.058,0.956-0.032,1.433-0.005c0.405,0.023,0.534-0.122,0.533-0.529C40.869,19.236,40.87,14.741,40.879,10.246z"/>
	</g>
	<g id="tube">
		<path fill="none" d="M77.904,15.37c0.139-0.021,0.284-0.003,0.427-0.003c1.306,0,1.306,0,1.306-1.311
			c0-0.237,0.006-0.475-0.001-0.713c-0.024-0.87-0.4-1.285-1.164-1.294c-0.845-0.009-1.246,0.384-1.272,1.265
			c-0.014,0.451,0.035,0.907-0.012,1.354C77.127,15.244,77.35,15.451,77.904,15.37z"/>
		<path fill="none" d="M70.02,13.633c0-0.312-0.03-0.613-0.131-0.915c-0.199-0.594-0.65-0.771-1.186-0.647
			c-0.545,0.125-1.145,0.266-1.143,1.045c0.006,2.651,0.007,5.303-0.004,7.954c-0.001,0.331,0.131,0.544,0.396,0.7
			c0.442,0.259,0.895,0.476,1.416,0.226c0.537-0.257,0.628-0.763,0.637-1.269c0.023-1.218,0.008-2.436,0.008-3.654h0.004
			C70.018,15.926,70.016,14.78,70.02,13.633z"/>
		<path fill="none" d="M85.968,13.373c-0.028-2.818-0.06-5.643-0.741-8.399c-0.658-2.668-2.494-4.298-4.988-4.542
			c-2.617-0.256-5.246-0.311-7.871-0.391c-2.629-0.081-5.262-0.018-7.894-0.018c-5.114-0.057-10.228-0.013-15.331,0.389
			c-2.698,0.212-4.515,1.691-5.263,4.302c-0.652,2.275-0.689,4.623-0.797,6.95c-0.164,3.535-0.045,7.074,0.256,10.604
			c0.11,1.288,0.368,2.546,0.828,3.762c0.57,1.507,1.61,2.507,3.128,3.033c0.865,0.3,1.767,0.404,2.666,0.498
			c3.308,0.344,6.633,0.3,9.951,0.385c4.182,0.106,8.367,0.086,12.551-0.068c2.412-0.089,4.824-0.153,7.23-0.33
			c2.176-0.16,3.982-0.982,4.983-3.071c0.563-1.176,0.835-2.433,0.974-3.72C85.986,19.637,86,16.505,85.968,13.373z M53.09,7.732
			c-0.569-0.038-0.596,0.25-0.594,0.689c0.012,3.156,0.006,6.312,0.006,9.47c0,1.913-0.018,3.826,0.012,5.738
			c0.008,0.515-0.157,0.668-0.652,0.634c-0.547-0.039-1.101-0.039-1.648,0c-0.493,0.035-0.594-0.169-0.591-0.619
			c0.018-2.559,0.009-5.117,0.009-7.677c0-2.511-0.02-5.021,0.015-7.532c0.008-0.589-0.185-0.74-0.731-0.701
			c-0.595,0.042-1.195-0.005-1.792,0.015c-0.352,0.011-0.559-0.081-0.506-0.476V7.2c0.036-0.688-0.284-1.568,0.119-2.015
			c0.415-0.461,1.311-0.141,1.993-0.147c2.057-0.022,4.113,0.021,6.169-0.025c0.661-0.015,0.835,0.201,0.773,0.812
			c-0.048,0.474-0.029,0.957-0.004,1.434c0.021,0.38-0.128,0.502-0.498,0.491C54.476,7.728,53.779,7.779,53.09,7.732z
			 M62.846,23.791c0.001,0.404-0.178,0.479-0.521,0.467c-0.525-0.018-1.054-0.035-1.576,0.005c-0.501,0.038-0.705-0.128-0.643-0.638
			c0.033-0.258,0.006-0.523,0.006-0.935c-0.431,0.4-0.75,0.713-1.086,1.006c-0.602,0.524-1.289,0.8-2.105,0.707
			c-0.801-0.091-1.402-0.73-1.543-1.728c-0.08-0.565-0.139-1.139-0.141-1.709c-0.012-3.467,0.006-6.934-0.018-10.4
			c-0.004-0.533,0.133-0.731,0.678-0.68c0.474,0.046,0.959,0.042,1.433,0.001c0.512-0.044,0.643,0.147,0.64,0.645
			c-0.02,3.49-0.013,6.981-0.008,10.473c0.001,0.39-0.135,0.867,0.377,1.052c0.475,0.173,0.827-0.144,1.144-0.433
			c0.415-0.379,0.651-0.816,0.646-1.436c-0.032-3.203-0.004-6.407-0.026-9.611c-0.004-0.518,0.106-0.743,0.667-0.69
			c0.521,0.048,1.052,0.026,1.576,0.005c0.367-0.016,0.503,0.104,0.502,0.487C62.836,14.85,62.835,19.321,62.846,23.791z
			 M72.579,22.166c-0.192,2.1-2.214,2.934-3.906,1.659c-0.354-0.268-0.667-0.592-1.064-0.949c-0.071,1.378-0.071,1.378-1.383,1.378
			c-1.232,0-1.232,0-1.232-1.251c0-5.74,0.011-11.479-0.017-17.22c-0.003-0.647,0.179-0.797,0.8-0.783
			c1.786,0.037,1.786,0.009,1.786,1.794v4.289c0.287,0.027,0.374-0.176,0.498-0.299c0.832-0.823,1.797-1.336,2.971-0.954
			c1.182,0.385,1.467,1.473,1.553,2.531C72.852,15.627,72.877,18.902,72.579,22.166z M77.195,20.419
			c-0.001,0.265,0.029,0.52,0.109,0.775c0.202,0.638,0.628,0.95,1.289,0.896c0.697-0.059,0.975-0.537,1.036-1.166
			c0.036-0.355,0.051-0.72,0.015-1.074c-0.053-0.524,0.175-0.66,0.658-0.629c0.548,0.035,1.1,0.008,1.65,0.009
			c0.195,0.001,0.412-0.003,0.402,0.276c-0.043,1.262,0.01,2.547-0.896,3.597c-1.136,1.315-2.59,1.58-4.168,1.138
			c-1.589-0.445-2.402-1.626-2.684-3.218c-0.232-1.307-0.089-2.624-0.146-3.866c0.047-1.569-0.107-3.08,0.275-4.562
			c0.505-1.952,2.008-2.977,4.209-2.847c1.663,0.1,3.043,1.539,3.293,3.348c0.18,1.288,0.08,2.577,0.135,3.864
			c0.02,0.461-0.163,0.562-0.582,0.555c-1.316-0.021-2.632,0.011-3.947-0.018c-0.482-0.011-0.688,0.102-0.658,0.628
			C77.229,18.887,77.198,19.654,77.195,20.419z"/>
	</g>
</g>
</svg>
